<svg id="svg" version="1.1" width="400" height="400" viewBox="0 0 400 400" xmlns="http://www.w3.org/2000/svg" xmlns:xlink="http://www.w3.org/1999/xlink" ><g id="svgg"><path id="path0" d="M278.400 52.000 C 277.960 52.440,277.518 52.800,277.418 52.800 C 277.084 52.800,275.200 54.831,275.200 55.191 C 275.200 55.386,274.840 55.660,274.400 55.800 C 273.960 55.940,273.600 56.312,273.600 56.627 C 273.600 56.942,273.342 57.200,273.027 57.200 C 272.712 57.200,272.340 57.560,272.200 58.000 C 272.060 58.440,271.786 58.800,271.591 58.800 C 271.141 58.800,269.200 60.725,269.200 61.172 C 269.200 61.356,268.840 61.601,268.400 61.716 C 267.960 61.831,267.600 62.212,267.600 62.563 C 267.600 62.913,267.342 63.200,267.027 63.200 C 266.712 63.200,266.340 63.560,266.200 64.000 C 266.060 64.440,265.688 64.800,265.373 64.800 C 265.058 64.800,264.800 65.058,264.800 65.373 C 264.800 65.688,264.440 66.060,264.000 66.200 C 263.560 66.340,263.200 66.712,263.200 67.027 C 263.200 67.342,262.936 67.600,262.614 67.600 C 262.292 67.600,261.835 67.960,261.600 68.400 C 261.365 68.840,260.998 69.200,260.786 69.200 C 260.574 69.200,260.040 69.560,259.600 70.000 C 259.160 70.440,258.449 70.800,258.020 70.800 C 257.591 70.800,257.096 71.041,256.920 71.336 C 256.252 72.455,253.573 72.548,214.400 72.810 C 174.175 73.079,171.151 73.196,169.670 74.536 C 169.267 74.901,168.636 75.200,168.269 75.200 C 167.901 75.200,167.600 75.400,167.600 75.644 C 167.600 76.204,164.183 79.600,163.619 79.600 C 163.389 79.600,163.200 79.789,163.200 80.019 C 163.200 80.583,159.804 84.000,159.244 84.000 C 159.000 84.000,158.800 84.287,158.800 84.637 C 158.800 84.988,158.440 85.369,158.000 85.484 C 157.560 85.599,157.200 85.861,157.200 86.066 C 157.200 86.596,153.777 90.000,153.244 90.000 C 153.000 90.000,152.800 90.287,152.800 90.637 C 152.800 90.988,152.440 91.369,152.000 91.484 C 151.560 91.599,151.200 91.872,151.200 92.091 C 151.200 92.617,147.755 96.000,147.219 96.000 C 146.989 96.000,146.800 96.287,146.800 96.637 C 146.800 96.988,146.440 97.369,146.000 97.484 C 145.560 97.599,145.200 97.872,145.200 98.091 C 145.200 98.617,141.755 102.000,141.219 102.000 C 140.989 102.000,140.800 102.189,140.800 102.419 C 140.800 102.983,137.404 106.400,136.844 106.400 C 136.600 106.400,136.400 106.687,136.400 107.037 C 136.400 107.388,136.040 107.769,135.600 107.884 C 135.160 107.999,134.800 108.257,134.800 108.457 C 134.800 108.931,131.331 112.400,130.857 112.400 C 130.657 112.400,130.399 112.760,130.284 113.200 C 130.169 113.640,129.788 114.000,129.437 114.000 C 129.087 114.000,128.800 114.211,128.800 114.468 C 128.800 114.726,127.810 115.873,126.600 117.017 C 125.356 118.193,124.400 119.446,124.400 119.900 C 124.400 120.341,124.130 120.926,123.800 121.200 C 123.296 121.618,123.200 123.299,123.200 131.713 L 123.200 141.729 124.440 142.836 C 125.122 143.445,126.395 144.064,127.268 144.212 C 128.141 144.359,128.952 144.732,129.071 145.040 C 129.204 145.387,129.877 145.600,130.843 145.600 C 131.867 145.600,132.674 145.874,133.200 146.400 C 133.709 146.909,134.533 147.200,135.469 147.200 C 136.276 147.200,137.259 147.491,137.652 147.847 C 138.046 148.203,139.200 148.588,140.218 148.703 C 141.275 148.822,142.160 149.152,142.283 149.472 C 143.113 151.634,143.600 147.464,143.600 138.204 C 143.600 127.982,143.910 126.161,146.086 123.594 C 147.128 122.366,152.011 119.637,153.211 119.613 C 153.547 119.606,154.186 119.345,154.631 119.033 C 155.077 118.721,156.152 118.341,157.020 118.188 C 157.889 118.035,158.960 117.688,159.400 117.415 C 159.840 117.143,160.920 116.787,161.800 116.625 C 162.680 116.462,163.628 116.140,163.907 115.909 C 164.186 115.679,165.086 115.349,165.907 115.176 C 167.630 114.814,170.859 113.739,172.600 112.948 C 173.260 112.648,174.430 112.285,175.200 112.141 C 175.970 111.997,176.955 111.636,177.389 111.339 C 177.823 111.043,178.516 110.800,178.929 110.800 C 180.495 110.800,182.714 109.503,185.283 107.086 C 187.737 104.776,189.844 104.613,191.760 106.586 C 193.389 108.264,193.607 109.659,192.400 110.693 C 191.960 111.070,191.600 111.510,191.600 111.671 C 191.600 112.075,189.641 114.000,189.228 114.000 C 189.044 114.000,188.799 114.360,188.684 114.800 C 188.569 115.240,188.188 115.600,187.837 115.600 C 187.487 115.600,187.200 115.858,187.200 116.173 C 187.200 116.488,186.840 116.860,186.400 117.000 C 185.960 117.140,185.600 117.512,185.600 117.827 C 185.600 118.142,185.342 118.400,185.027 118.400 C 184.712 118.400,184.340 118.760,184.200 119.200 C 184.060 119.640,183.709 120.000,183.420 120.000 C 183.130 120.000,182.799 120.360,182.684 120.800 C 182.569 121.240,182.188 121.600,181.837 121.600 C 181.487 121.600,181.200 121.858,181.200 122.173 C 181.200 122.488,180.840 122.860,180.400 123.000 C 179.960 123.140,179.600 123.512,179.600 123.827 C 179.600 124.142,179.342 124.400,179.027 124.400 C 178.712 124.400,178.340 124.760,178.200 125.200 C 178.060 125.640,177.688 126.000,177.373 126.000 C 177.058 126.000,176.800 126.287,176.800 126.637 C 176.800 126.988,176.440 127.369,176.000 127.484 C 175.560 127.599,175.200 127.930,175.200 128.220 C 175.200 128.509,174.840 128.860,174.400 129.000 C 173.960 129.140,173.600 129.512,173.600 129.827 C 173.600 130.142,173.330 130.400,173.000 130.400 C 172.670 130.400,172.400 130.687,172.400 131.037 C 172.400 131.388,172.040 131.769,171.600 131.884 C 171.160 131.999,170.800 132.359,170.800 132.684 C 170.800 133.009,170.440 133.369,170.000 133.484 C 169.560 133.599,169.200 133.942,169.200 134.247 C 169.200 134.551,168.942 134.800,168.627 134.800 C 168.312 134.800,167.940 135.160,167.800 135.600 C 167.660 136.040,167.288 136.400,166.973 136.400 C 166.658 136.400,166.400 136.687,166.400 137.037 C 166.400 137.388,166.040 137.769,165.600 137.884 C 165.160 137.999,164.800 138.330,164.800 138.620 C 164.800 138.909,164.440 139.260,164.000 139.400 C 163.560 139.540,163.200 139.912,163.200 140.227 C 163.200 140.542,162.942 140.800,162.627 140.800 C 162.312 140.800,161.940 141.160,161.800 141.600 C 161.660 142.040,161.288 142.400,160.973 142.400 C 160.658 142.400,160.400 142.687,160.400 143.037 C 160.400 143.388,160.040 143.769,159.600 143.884 C 159.160 143.999,158.800 144.330,158.800 144.620 C 158.800 144.909,158.440 145.260,158.000 145.400 C 157.560 145.540,157.200 145.912,157.200 146.227 C 157.200 146.542,156.942 146.800,156.627 146.800 C 156.312 146.800,155.940 147.160,155.800 147.600 C 155.660 148.040,155.288 148.400,154.973 148.400 C 154.658 148.400,154.400 148.687,154.400 149.037 C 154.400 149.388,154.040 149.769,153.600 149.884 C 153.160 149.999,152.800 150.244,152.800 150.428 C 152.800 150.890,150.852 152.800,150.382 152.800 C 150.172 152.800,150.000 153.087,150.000 153.437 C 150.000 153.788,149.640 154.169,149.200 154.284 C 148.760 154.399,148.400 154.730,148.400 155.020 C 148.400 155.309,148.040 155.660,147.600 155.800 C 147.160 155.940,146.800 156.312,146.800 156.627 C 146.800 156.942,146.542 157.200,146.227 157.200 C 145.912 157.200,145.540 157.560,145.400 158.000 C 145.260 158.440,144.909 158.800,144.620 158.800 C 144.330 158.800,143.999 159.160,143.884 159.600 C 143.769 160.040,143.388 160.400,143.037 160.400 C 142.687 160.400,142.400 160.658,142.400 160.973 C 142.400 161.288,142.040 161.660,141.600 161.800 C 141.160 161.940,140.800 162.312,140.800 162.627 C 140.800 162.942,140.542 163.200,140.227 163.200 C 139.912 163.200,139.540 163.560,139.400 164.000 C 139.260 164.440,138.909 164.800,138.620 164.800 C 138.330 164.800,137.999 165.160,137.884 165.600 C 137.769 166.040,137.388 166.400,137.037 166.400 C 136.687 166.400,136.400 166.658,136.400 166.973 C 136.400 167.288,136.040 167.660,135.600 167.800 C 135.160 167.940,134.800 168.312,134.800 168.627 C 134.800 168.942,134.551 169.200,134.247 169.200 C 133.942 169.200,133.599 169.560,133.484 170.000 C 133.369 170.440,133.009 170.800,132.684 170.800 C 132.359 170.800,131.999 171.160,131.884 171.600 C 131.769 172.040,131.388 172.400,131.037 172.400 C 130.687 172.400,130.400 172.670,130.400 173.000 C 130.400 173.330,130.142 173.600,129.827 173.600 C 129.512 173.600,129.140 173.960,129.000 174.400 C 128.860 174.840,128.509 175.200,128.220 175.200 C 127.930 175.200,127.599 175.560,127.484 176.000 C 127.369 176.440,126.988 176.800,126.637 176.800 C 126.287 176.800,126.000 177.058,126.000 177.373 C 126.000 177.688,125.640 178.060,125.200 178.200 C 124.760 178.340,124.400 178.712,124.400 179.027 C 124.400 179.342,124.142 179.600,123.827 179.600 C 123.512 179.600,123.140 179.960,123.000 180.400 C 122.860 180.840,122.509 181.200,122.220 181.200 C 121.930 181.200,121.599 181.560,121.484 182.000 C 121.369 182.440,120.988 182.800,120.637 182.800 C 120.287 182.800,120.000 183.058,120.000 183.373 C 120.000 183.688,119.640 184.060,119.200 184.200 C 118.760 184.340,118.400 184.712,118.400 185.027 C 118.400 185.342,118.142 185.600,117.827 185.600 C 117.512 185.600,117.140 185.960,117.000 186.400 C 116.860 186.840,116.509 187.200,116.220 187.200 C 115.930 187.200,115.599 187.560,115.484 188.000 C 115.369 188.440,114.988 188.800,114.637 188.800 C 114.287 188.800,114.000 188.972,114.000 189.182 C 114.000 189.652,112.090 191.600,111.628 191.600 C 111.444 191.600,111.199 191.960,111.084 192.400 C 110.969 192.840,110.588 193.200,110.237 193.200 C 109.887 193.200,109.600 193.458,109.600 193.773 C 109.600 194.088,109.240 194.460,108.800 194.600 C 108.360 194.740,108.000 195.112,108.000 195.427 C 108.000 195.742,107.742 196.000,107.427 196.000 C 107.112 196.000,106.740 196.360,106.600 196.800 C 106.460 197.240,106.109 197.600,105.820 197.600 C 105.530 197.600,105.199 197.960,105.084 198.400 C 104.969 198.840,104.588 199.200,104.237 199.200 C 103.887 199.200,103.600 199.458,103.600 199.773 C 103.600 200.088,103.240 200.460,102.800 200.600 C 102.360 200.740,102.000 201.112,102.000 201.427 C 102.000 201.742,101.742 202.000,101.427 202.000 C 101.112 202.000,100.740 202.360,100.600 202.800 C 100.460 203.240,100.109 203.600,99.820 203.600 C 99.530 203.600,99.199 203.960,99.084 204.400 C 98.969 204.840,98.588 205.200,98.237 205.200 C 97.887 205.200,97.600 205.458,97.600 205.773 C 97.600 206.088,97.240 206.460,96.800 206.600 C 96.360 206.740,96.000 207.112,96.000 207.427 C 96.000 207.742,95.742 208.000,95.427 208.000 C 95.112 208.000,94.740 208.360,94.600 208.800 C 94.460 209.240,94.109 209.600,93.820 209.600 C 93.530 209.600,93.199 209.960,93.084 210.400 C 92.969 210.840,92.588 211.200,92.237 211.200 C 91.887 211.200,91.600 211.372,91.600 211.582 C 91.600 212.052,89.690 214.000,89.228 214.000 C 89.044 214.000,88.799 214.360,88.684 214.800 C 88.569 215.240,88.188 215.600,87.837 215.600 C 87.487 215.600,87.200 215.858,87.200 216.173 C 87.200 216.488,86.840 216.860,86.400 217.000 C 85.960 217.140,85.600 217.512,85.600 217.827 C 85.600 218.142,85.342 218.400,85.027 218.400 C 84.712 218.400,84.340 218.760,84.200 219.200 C 84.060 219.640,83.709 220.000,83.420 220.000 C 83.130 220.000,82.799 220.360,82.684 220.800 C 82.569 221.240,82.188 221.600,81.837 221.600 C 81.487 221.600,81.200 221.858,81.200 222.173 C 81.200 222.488,80.840 222.860,80.400 223.000 C 79.960 223.140,79.600 223.512,79.600 223.827 C 79.600 224.142,79.342 224.400,79.027 224.400 C 78.712 224.400,78.340 224.760,78.200 225.200 C 78.060 225.640,77.709 226.000,77.420 226.000 C 77.130 226.000,76.799 226.360,76.684 226.800 C 76.569 227.240,76.188 227.600,75.837 227.600 C 75.487 227.600,75.200 227.858,75.200 228.173 C 75.200 228.488,74.840 228.860,74.400 229.000 C 73.960 229.140,73.600 229.512,73.600 229.827 C 73.600 230.142,73.330 230.400,73.000 230.400 C 72.670 230.400,72.400 230.687,72.400 231.037 C 72.400 231.388,72.040 231.769,71.600 231.884 C 71.160 231.999,70.800 232.359,70.800 232.684 C 70.800 233.009,70.440 233.369,70.000 233.484 C 69.560 233.599,69.200 233.942,69.200 234.247 C 69.200 234.551,68.942 234.800,68.627 234.800 C 68.312 234.800,67.940 235.160,67.800 235.600 C 67.660 236.040,67.288 236.400,66.973 236.400 C 66.658 236.400,66.400 236.687,66.400 237.037 C 66.400 237.388,66.040 237.769,65.600 237.884 C 65.160 237.999,64.800 238.330,64.800 238.620 C 64.800 238.909,64.440 239.260,64.000 239.400 C 63.560 239.540,63.200 239.912,63.200 240.227 C 63.200 240.542,62.942 240.800,62.627 240.800 C 62.312 240.800,61.940 241.160,61.800 241.600 C 61.660 242.040,61.288 242.400,60.973 242.400 C 60.658 242.400,60.400 242.687,60.400 243.037 C 60.400 243.388,60.040 243.769,59.600 243.884 C 59.160 243.999,58.800 244.330,58.800 244.620 C 58.800 244.909,58.440 245.260,58.000 245.400 C 57.560 245.540,57.200 245.912,57.200 246.227 C 57.200 246.542,56.942 246.800,56.627 246.800 C 56.312 246.800,55.940 247.160,55.800 247.600 C 55.660 248.040,55.288 248.400,54.973 248.400 C 54.658 248.400,54.400 248.687,54.400 249.037 C 54.400 249.388,54.040 249.769,53.600 249.884 C 53.160 249.999,52.800 250.244,52.800 250.428 C 52.800 250.890,50.852 252.800,50.382 252.800 C 50.172 252.800,50.000 253.087,50.000 253.437 C 50.000 253.788,49.640 254.169,49.200 254.284 C 48.760 254.399,48.400 254.730,48.400 255.020 C 48.400 255.309,48.040 255.660,47.600 255.800 C 47.160 255.940,46.800 256.312,46.800 256.627 C 46.800 256.942,46.542 257.200,46.227 257.200 C 45.912 257.200,45.540 257.560,45.400 258.000 C 45.260 258.440,44.909 258.800,44.620 258.800 C 44.330 258.800,43.999 259.160,43.884 259.600 C 43.769 260.040,43.388 260.400,43.037 260.400 C 42.687 260.400,42.400 260.658,42.400 260.973 C 42.400 261.288,42.040 261.660,41.600 261.800 C 41.160 261.940,40.800 262.312,40.800 262.627 C 40.800 262.942,40.542 263.200,40.227 263.200 C 39.912 263.200,39.540 263.560,39.400 264.000 C 39.260 264.440,38.909 264.800,38.620 264.800 C 38.330 264.800,37.999 265.160,37.884 265.600 C 37.769 266.040,37.388 266.400,37.037 266.400 C 36.687 266.400,36.400 266.670,36.400 267.000 C 36.400 267.330,36.211 267.600,35.980 267.600 C 35.748 267.600,35.303 268.214,34.990 268.963 C 34.676 269.713,34.190 270.403,33.910 270.497 C 33.514 270.628,33.400 272.987,33.400 281.033 L 33.400 291.400 34.446 292.500 C 35.049 293.134,35.920 293.600,36.503 293.600 C 37.059 293.600,37.608 293.845,37.723 294.144 C 37.840 294.450,38.770 294.783,39.842 294.904 C 40.921 295.025,41.955 295.397,42.220 295.759 C 42.514 296.161,43.282 296.400,44.282 296.400 C 45.368 296.400,46.107 296.655,46.600 297.200 C 47.110 297.763,47.832 298.000,49.042 298.000 C 50.038 298.000,50.895 298.222,51.080 298.529 C 51.552 299.309,57.069 300.207,57.778 299.618 C 58.205 299.264,58.369 297.277,58.500 290.880 C 58.650 283.515,58.766 282.365,59.543 280.472 C 61.117 276.644,59.820 278.061,85.600 252.007 C 90.550 247.004,98.188 239.268,102.573 234.815 C 106.958 230.361,111.262 226.241,112.137 225.659 C 113.012 225.077,114.194 224.287,114.764 223.904 C 115.334 223.522,116.070 223.106,116.400 222.979 C 116.730 222.853,117.903 222.401,119.008 221.975 C 120.112 221.549,121.282 221.194,121.608 221.186 C 121.933 221.179,122.920 220.825,123.800 220.400 C 124.680 219.975,125.765 219.621,126.211 219.614 C 126.657 219.606,127.386 219.345,127.831 219.033 C 128.277 218.721,129.352 218.336,130.220 218.176 C 131.089 218.017,132.155 217.642,132.589 217.343 C 133.023 217.044,133.788 216.800,134.289 216.800 C 134.790 216.800,135.200 216.620,135.200 216.400 C 135.200 216.180,135.410 216.000,135.666 216.000 C 135.923 216.000,136.418 215.730,136.766 215.401 C 137.115 215.071,138.115 214.126,138.988 213.301 C 142.487 209.995,144.754 209.126,146.071 210.586 C 148.257 213.010,148.655 214.189,147.594 215.098 C 147.157 215.472,146.800 215.931,146.800 216.119 C 146.800 216.307,137.080 226.173,125.200 238.044 C 113.320 249.916,103.600 259.802,103.600 260.014 C 103.600 260.226,103.434 260.400,103.232 260.400 C 102.751 260.400,99.200 263.951,99.200 264.432 C 99.200 264.634,99.023 264.800,98.807 264.800 C 98.295 264.800,93.200 269.895,93.200 270.407 C 93.200 270.623,93.023 270.800,92.807 270.800 C 92.295 270.800,87.200 275.895,87.200 276.407 C 87.200 276.623,87.035 276.800,86.833 276.800 C 86.382 276.800,76.800 286.338,76.800 286.786 C 76.800 286.962,76.440 287.201,76.000 287.316 C 75.560 287.431,75.200 287.845,75.200 288.237 C 75.200 288.628,74.858 289.320,74.439 289.774 C 73.540 290.750,73.455 292.108,73.541 304.095 L 73.600 312.389 75.000 312.974 C 75.770 313.296,76.400 313.748,76.400 313.980 C 76.400 314.211,77.188 314.400,78.151 314.400 C 79.193 314.400,80.097 314.635,80.384 314.980 C 80.649 315.300,81.670 315.681,82.653 315.829 C 83.635 315.976,84.658 316.316,84.926 316.583 C 85.193 316.851,86.189 317.174,87.137 317.301 C 88.086 317.428,89.177 317.817,89.563 318.166 C 89.948 318.515,90.924 318.800,91.731 318.800 C 92.667 318.800,93.491 319.091,94.000 319.600 C 94.535 320.135,95.333 320.400,96.410 320.400 C 98.666 320.400,98.800 319.821,98.800 310.063 C 98.800 303.714,98.928 301.594,99.346 300.989 C 99.646 300.555,100.032 299.753,100.202 299.208 C 100.789 297.330,102.251 295.749,119.617 278.200 C 129.196 268.520,140.536 257.026,144.817 252.657 C 154.403 242.874,154.540 242.743,157.000 240.899 C 159.905 238.722,165.662 236.000,167.362 236.000 C 167.835 236.000,168.586 235.745,169.031 235.433 C 169.477 235.121,170.552 234.741,171.420 234.588 C 172.289 234.435,173.360 234.088,173.800 233.815 C 174.240 233.543,175.263 233.198,176.073 233.047 C 177.563 232.771,180.752 231.165,182.078 230.022 C 182.475 229.680,183.386 228.851,184.100 228.181 C 188.008 224.514,189.313 224.142,191.392 226.100 C 193.185 227.789,193.564 229.296,192.437 230.262 C 191.976 230.655,191.600 231.161,191.600 231.385 C 191.600 231.610,177.710 245.745,160.733 262.797 C 125.727 297.958,128.800 294.754,128.800 296.085 C 128.800 296.644,128.530 297.326,128.200 297.600 C 127.700 298.015,127.600 299.560,127.600 306.862 C 127.600 314.282,127.692 315.660,128.200 315.855 C 128.530 315.982,128.803 316.291,128.807 316.543 C 128.820 317.380,130.698 318.800,131.793 318.800 C 132.388 318.800,133.331 319.160,133.891 319.600 C 134.450 320.040,135.474 320.400,136.165 320.400 C 136.856 320.400,137.777 320.647,138.211 320.950 C 138.645 321.252,139.755 321.626,140.677 321.781 C 141.599 321.936,142.566 322.318,142.826 322.631 C 143.142 323.012,144.125 323.200,145.802 323.200 C 148.920 323.200,148.787 323.592,148.795 314.320 C 148.800 306.749,149.196 303.830,150.516 301.600 C 151.682 299.632,153.172 298.093,189.069 261.793 C 194.831 255.966,198.939 252.400,199.889 252.400 C 200.025 252.400,200.421 252.157,200.769 251.861 C 201.426 251.299,204.290 250.234,206.942 249.566 C 207.790 249.352,208.996 248.912,209.622 248.589 C 210.248 248.265,211.084 247.994,211.480 247.986 C 211.876 247.979,212.920 247.625,213.800 247.200 C 214.680 246.775,215.710 246.421,216.089 246.414 C 217.691 246.382,221.225 244.194,224.189 241.398 C 228.083 237.725,232.000 237.197,232.000 240.346 C 232.000 240.611,232.274 241.246,232.609 241.758 C 233.154 242.590,233.154 242.740,232.609 243.193 C 232.274 243.471,232.000 243.944,232.000 244.246 C 232.000 244.547,231.640 245.018,231.200 245.293 C 230.760 245.568,230.400 245.998,230.400 246.250 C 230.400 246.501,230.040 246.801,229.600 246.916 C 229.160 247.031,228.800 247.412,228.800 247.763 C 228.800 248.113,228.628 248.400,228.418 248.400 C 227.948 248.400,226.000 250.310,226.000 250.772 C 226.000 250.956,225.640 251.201,225.200 251.316 C 224.760 251.431,224.400 251.812,224.400 252.163 C 224.400 252.513,224.142 252.800,223.827 252.800 C 223.512 252.800,223.140 253.160,223.000 253.600 C 222.860 254.040,222.586 254.400,222.391 254.400 C 221.915 254.400,220.000 256.337,220.000 256.818 C 220.000 257.028,219.713 257.200,219.363 257.200 C 219.012 257.200,218.631 257.560,218.516 258.000 C 218.401 258.440,218.070 258.800,217.780 258.800 C 217.491 258.800,217.140 259.160,217.000 259.600 C 216.860 260.040,216.488 260.400,216.173 260.400 C 215.858 260.400,215.600 260.658,215.600 260.973 C 215.600 261.288,215.240 261.660,214.800 261.800 C 214.360 261.940,214.000 262.312,214.000 262.627 C 214.000 262.942,213.713 263.200,213.363 263.200 C 213.012 263.200,212.631 263.560,212.516 264.000 C 212.401 264.440,212.156 264.800,211.972 264.800 C 211.525 264.800,209.600 266.741,209.600 267.191 C 209.600 267.386,209.240 267.660,208.800 267.800 C 208.360 267.940,208.000 268.312,208.000 268.627 C 208.000 268.942,207.742 269.200,207.427 269.200 C 207.112 269.200,206.740 269.560,206.600 270.000 C 206.460 270.440,206.186 270.800,205.991 270.800 C 205.515 270.800,203.600 272.737,203.600 273.218 C 203.600 273.428,203.313 273.600,202.963 273.600 C 202.612 273.600,202.231 273.960,202.116 274.400 C 202.001 274.840,201.670 275.200,201.380 275.200 C 201.091 275.200,200.740 275.560,200.600 276.000 C 200.460 276.440,200.088 276.800,199.773 276.800 C 199.458 276.800,199.200 277.058,199.200 277.373 C 199.200 277.688,198.840 278.060,198.400 278.200 C 197.960 278.340,197.600 278.712,197.600 279.027 C 197.600 279.342,197.313 279.600,196.963 279.600 C 196.612 279.600,196.231 279.960,196.116 280.400 C 196.001 280.840,195.756 281.200,195.572 281.200 C 195.125 281.200,193.200 283.141,193.200 283.591 C 193.200 283.786,192.840 284.060,192.400 284.200 C 191.960 284.340,191.600 284.712,191.600 285.027 C 191.600 285.342,191.313 285.600,190.963 285.600 C 190.612 285.600,190.231 285.960,190.116 286.400 C 190.001 286.840,189.756 287.200,189.572 287.200 C 189.110 287.200,187.200 289.148,187.200 289.618 C 187.200 289.828,186.924 290.000,186.587 290.000 C 186.251 290.000,185.859 290.315,185.718 290.700 C 185.576 291.085,185.229 291.540,184.946 291.711 C 184.664 291.882,184.316 292.640,184.174 293.397 C 184.032 294.153,183.665 294.980,183.358 295.235 C 182.543 295.911,182.539 308.400,183.353 308.400 C 183.658 308.400,184.001 308.760,184.116 309.200 C 184.254 309.728,184.662 310.000,185.314 310.000 C 185.857 310.000,186.507 310.247,186.757 310.549 C 187.008 310.850,188.054 311.192,189.082 311.308 C 190.110 311.424,191.142 311.778,191.376 312.095 C 191.854 312.743,195.902 313.280,197.662 312.928 L 198.800 312.700 198.800 307.149 C 198.800 302.361,198.910 301.392,199.600 300.104 C 200.040 299.284,200.400 298.357,200.400 298.046 C 200.400 297.734,206.663 291.162,214.318 283.440 C 221.973 275.718,232.317 265.260,237.304 260.200 C 242.291 255.140,252.812 244.501,260.685 236.557 C 272.102 225.038,293.821 203.047,322.900 173.564 L 324.800 171.638 324.800 159.606 C 324.800 149.420,324.890 147.540,325.385 147.350 C 325.706 147.227,326.079 146.783,326.212 146.363 C 326.359 145.898,326.820 145.600,327.391 145.600 L 328.328 145.600 328.464 137.700 C 328.576 131.199,328.717 129.623,329.258 128.800 C 329.620 128.250,330.047 127.350,330.205 126.800 C 330.364 126.250,333.398 122.851,336.947 119.248 C 340.496 115.644,345.359 110.694,347.753 108.248 C 350.148 105.801,356.744 99.120,362.412 93.400 C 372.360 83.361,374.148 81.203,372.527 81.197 C 372.127 81.196,371.260 80.837,370.600 80.400 C 369.940 79.963,368.855 79.604,368.189 79.603 C 367.523 79.601,366.623 79.353,366.189 79.050 C 365.755 78.748,364.645 78.374,363.723 78.219 C 362.801 78.064,361.834 77.682,361.574 77.369 C 361.314 77.056,360.593 76.800,359.970 76.800 C 358.693 76.800,356.800 76.045,356.800 75.536 C 356.800 75.351,356.125 75.199,355.300 75.197 C 354.475 75.196,353.260 74.837,352.600 74.400 C 351.940 73.963,350.837 73.604,350.149 73.603 C 349.461 73.601,348.693 73.353,348.443 73.051 C 348.192 72.750,347.173 72.411,346.177 72.299 C 345.182 72.186,344.046 71.803,343.652 71.447 C 343.259 71.091,342.390 70.800,341.722 70.800 C 341.054 70.800,340.050 70.440,339.491 70.000 C 338.931 69.560,337.917 69.200,337.235 69.200 C 336.554 69.200,335.325 68.840,334.504 68.400 C 333.684 67.960,332.536 67.600,331.955 67.600 C 331.374 67.600,330.693 67.353,330.443 67.051 C 330.192 66.750,329.173 66.411,328.177 66.299 C 327.182 66.186,326.046 65.803,325.652 65.447 C 325.259 65.091,324.411 64.799,323.769 64.797 C 323.126 64.796,322.060 64.437,321.400 64.000 C 320.740 63.563,319.655 63.204,318.989 63.203 C 318.323 63.201,317.401 62.936,316.940 62.613 C 316.479 62.290,315.362 61.907,314.458 61.763 C 313.555 61.618,312.610 61.253,312.359 60.950 C 312.107 60.648,311.393 60.400,310.770 60.400 C 309.493 60.400,307.600 59.645,307.600 59.136 C 307.600 58.951,306.925 58.799,306.100 58.797 C 305.275 58.796,304.060 58.437,303.400 58.000 C 302.740 57.563,301.628 57.204,300.929 57.203 C 300.229 57.201,299.413 56.956,299.116 56.658 C 298.818 56.361,297.740 55.992,296.720 55.839 C 295.700 55.686,294.649 55.300,294.384 54.980 C 294.119 54.661,293.393 54.400,292.770 54.400 C 291.493 54.400,289.600 53.645,289.600 53.136 C 289.600 52.951,288.925 52.799,288.100 52.797 C 287.275 52.796,286.060 52.437,285.400 52.000 C 283.696 50.872,279.528 50.872,278.400 52.000 " stroke="none" fill="#f9f9f9" fill-rule="evenodd"></path><path id="path1" d="M279.400 40.683 C 273.653 42.047,273.187 42.383,262.800 52.624 C 258.070 57.288,253.570 61.389,252.800 61.738 C 251.556 62.302,246.885 62.386,211.000 62.487 C 172.561 62.594,170.522 62.636,169.000 63.345 C 168.120 63.755,166.410 64.546,165.200 65.103 C 161.543 66.787,117.095 111.320,115.072 115.328 C 111.737 121.935,111.171 142.614,114.222 146.400 C 114.488 146.730,114.817 147.368,114.953 147.817 C 115.537 149.741,121.243 154.000,123.236 154.000 C 123.630 154.000,124.050 154.158,124.170 154.351 C 124.289 154.544,125.224 154.912,126.247 155.170 C 127.270 155.428,128.826 156.005,129.705 156.453 L 131.302 157.268 124.351 164.292 C 120.528 168.156,97.418 191.315,72.995 215.758 C 28.165 260.625,26.499 262.353,24.917 265.600 C 22.819 269.907,22.600 271.496,22.600 282.400 L 22.600 292.600 24.168 295.735 C 26.513 300.424,30.543 303.514,35.769 304.630 C 36.446 304.774,37.187 305.042,37.416 305.225 C 37.644 305.408,38.544 305.735,39.416 305.952 C 40.900 306.321,43.117 307.043,46.400 308.227 C 52.343 310.369,54.847 310.798,59.000 310.386 C 62.090 310.079,62.800 310.444,62.800 312.338 C 62.800 317.635,68.719 322.701,78.018 325.364 C 79.019 325.650,80.222 326.091,80.692 326.342 C 81.163 326.594,81.874 326.806,82.274 326.814 C 82.673 326.821,83.720 327.175,84.600 327.600 C 85.480 328.025,86.524 328.379,86.920 328.386 C 87.316 328.394,88.126 328.651,88.720 328.958 C 91.190 330.233,96.467 330.850,99.666 330.238 C 104.054 329.399,105.370 328.529,111.825 322.200 C 117.749 316.393,116.910 316.659,118.550 320.066 C 121.032 325.219,124.257 327.707,131.200 329.823 C 133.970 330.668,136.856 331.615,138.400 332.187 C 149.044 336.129,152.423 334.846,165.443 321.921 L 173.885 313.539 176.203 315.969 C 181.454 321.474,197.034 325.808,201.800 323.089 C 202.460 322.713,203.213 322.404,203.474 322.402 C 205.938 322.390,330.689 197.467,332.899 192.800 C 335.161 188.022,335.284 187.410,335.550 179.600 C 335.863 170.421,333.106 174.133,358.559 148.622 C 381.924 125.204,381.480 125.673,382.655 123.199 C 385.205 117.837,384.989 119.877,385.119 99.879 L 385.238 81.557 384.024 78.988 C 381.969 74.638,375.850 70.000,372.168 70.000 C 371.849 70.000,371.277 69.824,370.895 69.608 C 370.513 69.392,367.680 68.402,364.600 67.408 C 361.520 66.414,358.460 65.413,357.800 65.184 C 357.140 64.956,353.090 63.607,348.800 62.187 C 344.510 60.766,340.460 59.416,339.800 59.186 C 339.140 58.955,336.080 57.941,333.000 56.931 C 329.920 55.921,326.557 54.759,325.526 54.348 C 324.495 53.936,323.368 53.600,323.020 53.600 C 322.673 53.600,322.077 53.424,321.695 53.208 C 321.313 52.992,318.480 52.002,315.400 51.008 C 312.320 50.014,309.260 49.013,308.600 48.784 C 307.940 48.556,303.890 47.207,299.600 45.787 C 295.310 44.366,291.260 43.010,290.600 42.773 C 285.492 40.936,281.485 40.188,279.400 40.683 M284.800 50.538 C 287.681 51.369,290.799 52.386,291.800 52.821 C 292.240 53.012,295.120 53.986,298.200 54.984 C 301.280 55.983,304.340 56.996,305.000 57.237 C 305.660 57.477,306.920 57.863,307.800 58.095 C 308.680 58.327,309.580 58.640,309.800 58.789 C 310.020 58.939,311.820 59.567,313.800 60.186 C 315.780 60.804,318.300 61.624,319.400 62.007 C 320.500 62.391,322.030 62.913,322.800 63.167 C 332.310 66.308,335.184 67.268,336.200 67.645 C 336.860 67.890,338.210 68.332,339.200 68.627 C 340.916 69.138,351.671 72.729,354.200 73.635 C 354.860 73.871,356.030 74.239,356.800 74.451 C 357.570 74.664,358.560 75.002,359.000 75.203 C 360.069 75.691,370.304 79.044,371.710 79.366 C 372.321 79.506,373.536 80.358,374.410 81.258 L 376.000 82.896 376.000 99.197 C 376.000 114.871,375.968 115.573,375.160 117.449 C 374.271 119.514,332.636 161.793,331.924 161.353 C 331.746 161.243,331.600 158.308,331.600 154.830 C 331.600 147.677,331.173 146.400,328.781 146.400 C 326.615 146.400,326.404 147.490,326.367 158.880 C 326.302 178.607,325.918 185.926,324.830 188.155 C 323.598 190.677,201.759 312.694,199.135 314.033 C 196.888 315.180,194.094 314.784,189.000 312.599 C 188.340 312.316,187.236 311.966,186.547 311.821 C 185.858 311.676,184.553 310.923,183.647 310.147 L 182.000 308.738 182.000 301.753 C 182.000 292.277,179.652 295.427,207.499 267.537 C 229.484 245.516,231.321 243.573,231.287 242.376 C 231.234 240.500,230.374 239.823,228.208 239.953 C 227.207 240.013,181.295 285.805,179.413 288.622 C 178.104 290.579,176.752 294.042,176.263 296.687 C 176.074 297.712,173.378 300.616,163.047 310.926 C 146.811 327.128,149.412 325.949,138.000 322.283 C 126.146 318.475,126.800 319.374,126.800 306.888 C 126.800 293.395,122.784 298.883,159.724 261.900 C 176.842 244.761,190.987 230.364,191.157 229.906 C 191.926 227.825,190.378 226.089,188.234 226.627 C 187.413 226.833,126.676 287.209,124.884 289.600 C 123.437 291.532,122.453 293.828,121.800 296.800 L 121.142 299.800 110.871 309.952 C 98.876 321.809,97.864 322.409,93.000 320.555 C 92.120 320.220,90.733 319.779,89.918 319.575 C 89.102 319.371,87.842 318.954,87.118 318.648 C 86.393 318.343,83.370 317.324,80.400 316.384 C 71.617 313.605,71.422 313.241,71.688 300.156 C 71.918 288.839,67.550 294.346,110.072 251.763 L 146.456 215.325 146.328 213.770 C 146.186 212.041,144.974 211.262,143.156 211.732 C 142.611 211.873,126.515 227.690,105.749 248.490 C 66.283 288.019,67.723 286.423,66.967 291.492 C 66.631 293.748,66.027 294.767,63.565 297.226 C 58.355 302.433,58.527 302.421,46.400 298.409 C 34.632 294.516,33.490 293.973,32.521 291.822 C 31.448 289.440,31.466 274.525,32.545 271.000 L 33.280 268.600 112.240 189.595 C 188.895 112.896,191.200 110.546,191.200 109.104 C 191.200 106.900,189.729 105.989,187.826 107.014 C 187.086 107.413,176.877 117.343,165.140 129.081 C 143.072 151.152,142.948 151.260,140.734 150.278 C 139.370 149.673,136.801 148.784,133.600 147.810 C 128.274 146.189,124.498 144.611,123.400 143.547 L 122.200 142.383 122.200 131.640 L 122.200 120.896 123.685 118.748 C 126.305 114.957,167.876 73.844,170.200 72.745 L 172.200 71.800 213.000 71.597 C 252.739 71.398,253.847 71.372,255.600 70.591 C 259.111 69.027,261.094 67.384,269.306 59.239 C 279.492 49.136,279.644 49.051,284.800 50.538 " stroke="none" fill="#393330" fill-rule="evenodd"></path><path id="path2" d="M0.000 200.000 L 0.000 400.000 200.000 400.000 L 400.000 400.000 400.000 200.000 L 400.000 0.000 200.000 0.000 L 0.000 0.000 0.000 200.000 M287.777 40.500 C 288.089 40.927,288.816 41.201,289.644 41.203 C 290.390 41.204,291.540 41.563,292.200 42.000 C 292.860 42.437,293.945 42.796,294.611 42.797 C 295.277 42.799,296.177 43.044,296.611 43.343 C 297.045 43.642,298.120 44.017,299.000 44.177 C 299.880 44.337,300.870 44.699,301.200 44.981 C 301.530 45.264,302.604 45.597,303.586 45.721 C 304.568 45.845,305.578 46.229,305.830 46.573 C 306.089 46.928,306.878 47.201,307.644 47.203 C 308.390 47.204,309.540 47.563,310.200 48.000 C 310.860 48.437,311.972 48.796,312.671 48.797 C 313.371 48.799,314.183 49.041,314.478 49.335 C 314.772 49.629,315.789 49.974,316.737 50.101 C 317.686 50.228,318.777 50.617,319.163 50.966 C 319.548 51.315,320.335 51.600,320.913 51.600 C 322.121 51.600,324.000 52.369,324.000 52.864 C 324.000 53.049,324.631 53.200,325.401 53.200 C 326.172 53.200,327.475 53.560,328.296 54.000 C 329.116 54.440,330.273 54.800,330.866 54.800 C 331.458 54.800,332.183 55.041,332.478 55.335 C 332.772 55.629,333.789 55.974,334.737 56.101 C 335.686 56.228,336.777 56.617,337.163 56.966 C 337.548 57.315,338.389 57.601,339.031 57.603 C 339.674 57.604,340.740 57.963,341.400 58.400 C 342.060 58.837,343.145 59.196,343.811 59.197 C 344.477 59.199,345.386 59.455,345.831 59.767 C 346.277 60.079,347.352 60.462,348.220 60.618 C 349.089 60.774,350.070 61.125,350.400 61.398 C 350.730 61.671,351.804 61.997,352.786 62.121 C 353.768 62.245,354.778 62.629,355.030 62.973 C 355.289 63.328,356.078 63.601,356.844 63.603 C 357.590 63.604,358.740 63.963,359.400 64.400 C 360.060 64.837,361.145 65.196,361.811 65.197 C 362.477 65.199,363.377 65.444,363.811 65.743 C 364.245 66.042,365.320 66.417,366.200 66.577 C 367.080 66.737,368.070 67.099,368.400 67.381 C 368.730 67.664,369.804 67.997,370.786 68.121 C 371.768 68.245,372.778 68.629,373.030 68.973 C 373.282 69.318,374.069 69.600,374.781 69.600 C 375.492 69.600,376.531 69.960,377.091 70.400 C 377.650 70.840,378.444 71.200,378.854 71.200 C 379.264 71.200,379.600 71.449,379.600 71.753 C 379.600 72.058,379.960 72.401,380.400 72.516 C 380.840 72.631,381.200 72.991,381.200 73.316 C 381.200 73.641,381.560 74.001,382.000 74.116 C 382.440 74.231,382.800 74.612,382.800 74.963 C 382.800 75.313,383.070 75.600,383.400 75.600 C 383.730 75.600,384.000 75.846,384.000 76.146 C 384.000 76.446,384.360 77.150,384.800 77.709 C 385.251 78.282,385.600 79.332,385.600 80.114 C 385.600 80.877,385.870 81.726,386.200 82.000 C 387.090 82.739,387.102 114.648,386.213 115.824 C 385.887 116.255,385.620 117.476,385.613 118.569 C 385.606 119.656,385.352 120.820,385.047 121.169 C 383.799 122.593,383.200 126.206,383.177 132.462 C 383.153 138.927,382.500 142.793,381.096 144.789 C 380.713 145.333,380.400 145.935,380.400 146.126 C 380.400 146.885,377.985 149.393,357.002 170.419 C 331.202 196.271,333.416 193.174,333.096 203.859 L 332.878 211.119 331.243 214.459 L 329.609 217.800 267.104 280.251 C 197.649 349.647,202.891 344.800,197.292 344.800 C 194.691 344.800,190.678 343.883,187.798 342.630 C 187.138 342.342,185.989 341.973,185.246 341.810 C 181.710 341.033,177.011 336.897,176.260 333.900 C 175.782 331.991,174.984 332.591,165.687 341.843 C 153.842 353.632,154.153 353.399,148.125 355.005 C 146.934 355.322,137.801 352.974,134.198 351.424 C 133.538 351.139,132.400 350.776,131.671 350.616 C 130.943 350.456,129.863 350.073,129.273 349.765 C 128.683 349.457,128.074 349.204,127.920 349.202 C 127.462 349.198,124.237 346.928,123.562 346.135 C 121.779 344.037,121.102 342.171,120.901 338.800 C 120.789 336.930,120.574 335.166,120.422 334.880 C 120.236 334.529,117.821 336.650,112.973 341.422 C 101.270 352.942,99.921 353.331,86.818 348.972 C 83.838 347.980,81.040 347.010,80.600 346.817 C 80.160 346.623,78.351 346.016,76.580 345.466 C 71.913 344.019,67.208 340.784,67.198 339.016 C 67.196 338.787,66.908 338.060,66.557 337.400 C 66.199 336.726,65.824 334.747,65.702 332.888 C 65.444 328.940,65.494 328.988,62.987 330.297 C 59.058 332.348,55.580 331.940,44.200 328.095 C 26.743 322.197,25.600 320.946,25.600 307.741 C 25.600 301.092,25.364 299.781,23.900 298.305 C 23.515 297.917,23.200 297.299,23.200 296.931 C 23.200 296.564,22.885 295.915,22.500 295.490 C 21.427 294.304,21.427 269.008,22.500 268.224 C 22.893 267.936,23.200 267.194,23.200 266.531 C 23.200 265.882,23.560 264.964,24.000 264.492 C 24.440 264.020,24.800 263.362,24.800 263.031 C 24.800 262.699,25.160 262.235,25.600 262.000 C 26.040 261.765,26.400 261.333,26.400 261.040 C 26.400 260.748,46.852 240.062,71.849 215.071 C 108.689 178.241,117.240 169.498,116.991 168.917 C 116.096 166.833,115.616 162.856,115.608 157.460 C 115.600 151.241,115.234 149.558,113.529 147.884 C 113.128 147.491,112.800 146.791,112.800 146.329 C 112.800 145.866,112.485 145.258,112.100 144.976 C 111.026 144.191,111.026 120.209,112.100 119.424 C 112.533 119.107,112.800 118.384,112.800 117.531 C 112.800 116.704,113.120 115.807,113.600 115.292 C 114.040 114.820,114.400 114.150,114.400 113.804 C 114.400 113.458,114.670 113.071,115.000 112.945 C 115.330 112.818,115.600 112.479,115.600 112.191 C 115.600 111.344,159.540 66.800,160.376 66.800 C 160.541 66.800,161.002 66.440,161.400 66.000 C 161.798 65.560,162.413 65.200,162.766 65.200 C 163.119 65.200,163.632 64.840,163.907 64.400 C 164.190 63.948,164.840 63.600,165.403 63.600 C 165.952 63.600,166.760 63.240,167.200 62.800 C 167.816 62.184,168.533 62.000,170.320 62.000 C 171.643 62.000,172.855 61.785,173.140 61.500 C 173.530 61.109,182.298 60.956,213.178 60.800 C 252.009 60.604,252.732 60.586,253.605 59.800 C 254.093 59.360,258.161 55.355,262.643 50.900 C 267.126 46.445,271.059 42.800,271.383 42.800 C 271.707 42.800,272.165 42.440,272.400 42.000 C 272.702 41.436,273.238 41.200,274.214 41.200 C 275.148 41.200,275.600 41.014,275.600 40.629 C 275.600 39.361,286.858 39.241,287.777 40.500 " stroke="none" fill="#faea04" fill-rule="evenodd"></path><path id="path3" d="M279.306 50.308 C 278.090 50.805,275.270 53.324,269.306 59.239 C 261.094 67.384,259.111 69.027,255.600 70.591 C 253.847 71.372,252.739 71.398,213.000 71.597 L 172.200 71.800 170.200 72.745 C 167.876 73.844,126.305 114.957,123.685 118.748 L 122.200 120.896 122.200 131.640 L 122.200 142.383 123.400 143.547 C 124.498 144.611,128.274 146.189,133.600 147.810 C 136.801 148.784,139.370 149.673,140.734 150.278 C 142.948 151.260,143.072 151.152,165.140 129.081 C 176.877 117.343,187.086 107.413,187.826 107.014 C 189.729 105.989,191.200 106.900,191.200 109.104 C 191.200 110.546,188.895 112.896,112.240 189.595 L 33.280 268.600 32.545 271.000 C 31.466 274.525,31.448 289.440,32.521 291.822 C 33.490 293.973,34.632 294.516,46.400 298.409 C 58.527 302.421,58.355 302.433,63.565 297.226 C 66.027 294.767,66.631 293.748,66.967 291.492 C 67.723 286.423,66.283 288.019,105.749 248.490 C 126.515 227.690,142.611 211.873,143.156 211.732 C 144.974 211.262,146.186 212.041,146.328 213.770 L 146.456 215.325 110.072 251.763 C 67.550 294.346,71.918 288.839,71.688 300.156 C 71.422 313.241,71.617 313.605,80.400 316.384 C 83.370 317.324,86.393 318.343,87.118 318.648 C 87.842 318.954,89.102 319.371,89.918 319.575 C 90.733 319.779,92.120 320.220,93.000 320.555 C 97.864 322.409,98.876 321.809,110.871 309.952 L 121.142 299.800 121.800 296.800 C 122.453 293.828,123.437 291.532,124.884 289.600 C 126.676 287.209,187.413 226.833,188.234 226.627 C 190.378 226.089,191.926 227.825,191.157 229.906 C 190.987 230.364,176.842 244.761,159.724 261.900 C 122.784 298.883,126.800 293.395,126.800 306.888 C 126.800 319.374,126.146 318.475,138.000 322.283 C 149.412 325.949,146.811 327.128,163.047 310.926 C 173.378 300.616,176.074 297.712,176.263 296.687 C 176.752 294.042,178.104 290.579,179.413 288.622 C 181.295 285.805,227.207 240.013,228.208 239.953 C 230.374 239.823,231.234 240.500,231.287 242.376 C 231.321 243.573,229.484 245.516,207.499 267.537 C 179.652 295.427,182.000 292.277,182.000 301.753 L 182.000 308.738 183.647 310.147 C 184.553 310.923,185.858 311.676,186.547 311.821 C 187.236 311.966,188.340 312.316,189.000 312.599 C 194.094 314.784,196.888 315.180,199.135 314.033 C 201.759 312.694,323.598 190.677,324.830 188.155 C 325.918 185.926,326.302 178.607,326.367 158.880 C 326.404 147.490,326.615 146.400,328.781 146.400 C 331.173 146.400,331.600 147.677,331.600 154.830 C 331.600 158.308,331.746 161.243,331.924 161.353 C 332.636 161.793,374.271 119.514,375.160 117.449 C 375.968 115.573,376.000 114.871,376.000 99.197 L 376.000 82.896 374.410 81.258 C 373.536 80.358,372.321 79.506,371.710 79.366 C 370.304 79.044,360.069 75.691,359.000 75.203 C 358.560 75.002,357.570 74.664,356.800 74.451 C 356.030 74.239,354.860 73.871,354.200 73.635 C 351.671 72.729,340.916 69.138,339.200 68.627 C 338.210 68.332,336.860 67.890,336.200 67.645 C 335.184 67.268,332.310 66.308,322.800 63.167 C 322.030 62.913,320.500 62.391,319.400 62.007 C 318.300 61.624,315.780 60.804,313.800 60.186 C 311.820 59.567,310.020 58.939,309.800 58.789 C 309.580 58.640,308.680 58.327,307.800 58.095 C 306.920 57.863,305.660 57.477,305.000 57.237 C 304.340 56.996,301.280 55.983,298.200 54.984 C 295.120 53.986,292.240 53.012,291.800 52.821 C 290.181 52.117,283.451 50.057,281.800 49.760 C 281.360 49.680,280.238 49.927,279.306 50.308 M285.400 52.000 C 286.060 52.437,287.275 52.796,288.100 52.797 C 288.925 52.799,289.600 52.951,289.600 53.136 C 289.600 53.645,291.493 54.400,292.770 54.400 C 293.393 54.400,294.119 54.661,294.384 54.980 C 294.649 55.300,295.700 55.686,296.720 55.839 C 297.740 55.992,298.818 56.361,299.116 56.658 C 299.413 56.956,300.229 57.201,300.929 57.203 C 301.628 57.204,302.740 57.563,303.400 58.000 C 304.060 58.437,305.275 58.796,306.100 58.797 C 306.925 58.799,307.600 58.951,307.600 59.136 C 307.600 59.645,309.493 60.400,310.770 60.400 C 311.393 60.400,312.107 60.648,312.359 60.950 C 312.610 61.253,313.555 61.618,314.458 61.763 C 315.362 61.907,316.479 62.290,316.940 62.613 C 317.401 62.936,318.323 63.201,318.989 63.203 C 319.655 63.204,320.740 63.563,321.400 64.000 C 322.060 64.437,323.126 64.796,323.769 64.797 C 324.411 64.799,325.259 65.091,325.652 65.447 C 326.046 65.803,327.182 66.186,328.177 66.299 C 329.173 66.411,330.192 66.750,330.443 67.051 C 330.693 67.353,331.374 67.600,331.955 67.600 C 332.536 67.600,333.684 67.960,334.504 68.400 C 335.325 68.840,336.554 69.200,337.235 69.200 C 337.917 69.200,338.931 69.560,339.491 70.000 C 340.050 70.440,341.054 70.800,341.722 70.800 C 342.390 70.800,343.259 71.091,343.652 71.447 C 344.046 71.803,345.182 72.186,346.177 72.299 C 347.173 72.411,348.192 72.750,348.443 73.051 C 348.693 73.353,349.461 73.601,350.149 73.603 C 350.837 73.604,351.940 73.963,352.600 74.400 C 353.260 74.837,354.475 75.196,355.300 75.197 C 356.125 75.199,356.800 75.351,356.800 75.536 C 356.800 76.045,358.693 76.800,359.970 76.800 C 360.593 76.800,361.314 77.056,361.574 77.369 C 361.834 77.682,362.801 78.064,363.723 78.219 C 364.645 78.374,365.755 78.748,366.189 79.050 C 366.623 79.353,367.523 79.601,368.189 79.603 C 368.855 79.604,369.940 79.963,370.600 80.400 C 371.260 80.837,372.127 81.196,372.527 81.197 C 374.148 81.203,372.360 83.361,362.412 93.400 C 356.744 99.120,350.148 105.801,347.753 108.248 C 345.359 110.694,340.496 115.644,336.947 119.248 C 333.398 122.851,330.364 126.250,330.205 126.800 C 330.047 127.350,329.620 128.250,329.258 128.800 C 328.717 129.623,328.576 131.199,328.464 137.700 L 328.328 145.600 327.391 145.600 C 326.820 145.600,326.359 145.898,326.212 146.363 C 326.079 146.783,325.706 147.227,325.385 147.350 C 324.890 147.540,324.800 149.420,324.800 159.606 L 324.800 171.638 322.900 173.564 C 293.821 203.047,272.102 225.038,260.685 236.557 C 252.812 244.501,242.291 255.140,237.304 260.200 C 232.317 265.260,221.973 275.718,214.318 283.440 C 206.663 291.162,200.400 297.734,200.400 298.046 C 200.400 298.357,200.040 299.284,199.600 300.104 C 198.910 301.392,198.800 302.361,198.800 307.149 L 198.800 312.700 197.662 312.928 C 195.902 313.280,191.854 312.743,191.376 312.095 C 191.142 311.778,190.110 311.424,189.082 311.308 C 188.054 311.192,187.008 310.850,186.757 310.549 C 186.507 310.247,185.857 310.000,185.314 310.000 C 184.662 310.000,184.254 309.728,184.116 309.200 C 184.001 308.760,183.658 308.400,183.353 308.400 C 182.539 308.400,182.543 295.911,183.358 295.235 C 183.665 294.980,184.032 294.153,184.174 293.397 C 184.316 292.640,184.664 291.882,184.946 291.711 C 185.229 291.540,185.576 291.085,185.718 290.700 C 185.859 290.315,186.251 290.000,186.587 290.000 C 186.924 290.000,187.200 289.828,187.200 289.618 C 187.200 289.148,189.110 287.200,189.572 287.200 C 189.756 287.200,190.001 286.840,190.116 286.400 C 190.231 285.960,190.612 285.600,190.963 285.600 C 191.313 285.600,191.600 285.342,191.600 285.027 C 191.600 284.712,191.960 284.340,192.400 284.200 C 192.840 284.060,193.200 283.786,193.200 283.591 C 193.200 283.141,195.125 281.200,195.572 281.200 C 195.756 281.200,196.001 280.840,196.116 280.400 C 196.231 279.960,196.612 279.600,196.963 279.600 C 197.313 279.600,197.600 279.342,197.600 279.027 C 197.600 278.712,197.960 278.340,198.400 278.200 C 198.840 278.060,199.200 277.688,199.200 277.373 C 199.200 277.058,199.458 276.800,199.773 276.800 C 200.088 276.800,200.460 276.440,200.600 276.000 C 200.740 275.560,201.091 275.200,201.380 275.200 C 201.670 275.200,202.001 274.840,202.116 274.400 C 202.231 273.960,202.612 273.600,202.963 273.600 C 203.313 273.600,203.600 273.428,203.600 273.218 C 203.600 272.737,205.515 270.800,205.991 270.800 C 206.186 270.800,206.460 270.440,206.600 270.000 C 206.740 269.560,207.112 269.200,207.427 269.200 C 207.742 269.200,208.000 268.942,208.000 268.627 C 208.000 268.312,208.360 267.940,208.800 267.800 C 209.240 267.660,209.600 267.386,209.600 267.191 C 209.600 266.741,211.525 264.800,211.972 264.800 C 212.156 264.800,212.401 264.440,212.516 264.000 C 212.631 263.560,213.012 263.200,213.363 263.200 C 213.713 263.200,214.000 262.942,214.000 262.627 C 214.000 262.312,214.360 261.940,214.800 261.800 C 215.240 261.660,215.600 261.288,215.600 260.973 C 215.600 260.658,215.858 260.400,216.173 260.400 C 216.488 260.400,216.860 260.040,217.000 259.600 C 217.140 259.160,217.491 258.800,217.780 258.800 C 218.070 258.800,218.401 258.440,218.516 258.000 C 218.631 257.560,219.012 257.200,219.363 257.200 C 219.713 257.200,220.000 257.028,220.000 256.818 C 220.000 256.337,221.915 254.400,222.391 254.400 C 222.586 254.400,222.860 254.040,223.000 253.600 C 223.140 253.160,223.512 252.800,223.827 252.800 C 224.142 252.800,224.400 252.513,224.400 252.163 C 224.400 251.812,224.760 251.431,225.200 251.316 C 225.640 251.201,226.000 250.956,226.000 250.772 C 226.000 250.310,227.948 248.400,228.418 248.400 C 228.628 248.400,228.800 248.113,228.800 247.763 C 228.800 247.412,229.160 247.031,229.600 246.916 C 230.040 246.801,230.400 246.501,230.400 246.250 C 230.400 245.998,230.760 245.568,231.200 245.293 C 231.640 245.018,232.000 244.547,232.000 244.246 C 232.000 243.944,232.274 243.471,232.609 243.193 C 233.154 242.740,233.154 242.590,232.609 241.758 C 232.274 241.246,232.000 240.611,232.000 240.346 C 232.000 237.197,228.083 237.725,224.189 241.398 C 221.225 244.194,217.691 246.382,216.089 246.414 C 215.710 246.421,214.680 246.775,213.800 247.200 C 212.920 247.625,211.876 247.979,211.480 247.986 C 211.084 247.994,210.248 248.265,209.622 248.589 C 208.996 248.912,207.790 249.352,206.942 249.566 C 204.290 250.234,201.426 251.299,200.769 251.861 C 200.421 252.157,200.025 252.400,199.889 252.400 C 198.939 252.400,194.831 255.966,189.069 261.793 C 153.172 298.093,151.682 299.632,150.516 301.600 C 149.196 303.830,148.800 306.749,148.795 314.320 C 148.787 323.592,148.920 323.200,145.802 323.200 C 144.125 323.200,143.142 323.012,142.826 322.631 C 142.566 322.318,141.599 321.936,140.677 321.781 C 139.755 321.626,138.645 321.252,138.211 320.950 C 137.777 320.647,136.856 320.400,136.165 320.400 C 135.474 320.400,134.450 320.040,133.891 319.600 C 133.331 319.160,132.388 318.800,131.793 318.800 C 130.698 318.800,128.820 317.380,128.807 316.543 C 128.803 316.291,128.530 315.982,128.200 315.855 C 127.692 315.660,127.600 314.282,127.600 306.862 C 127.600 299.560,127.700 298.015,128.200 297.600 C 128.530 297.326,128.800 296.644,128.800 296.085 C 128.800 294.754,125.727 297.958,160.733 262.797 C 177.710 245.745,191.600 231.610,191.600 231.385 C 191.600 231.161,191.976 230.655,192.437 230.262 C 193.564 229.296,193.185 227.789,191.392 226.100 C 189.313 224.142,188.008 224.514,184.100 228.181 C 183.386 228.851,182.475 229.680,182.078 230.022 C 180.752 231.165,177.563 232.771,176.073 233.047 C 175.263 233.198,174.240 233.543,173.800 233.815 C 173.360 234.088,172.289 234.435,171.420 234.588 C 170.552 234.741,169.477 235.121,169.031 235.433 C 168.586 235.745,167.835 236.000,167.362 236.000 C 165.662 236.000,159.905 238.722,157.000 240.899 C 154.540 242.743,154.403 242.874,144.817 252.657 C 140.536 257.026,129.196 268.520,119.617 278.200 C 102.251 295.749,100.789 297.330,100.202 299.208 C 100.032 299.753,99.646 300.555,99.346 300.989 C 98.928 301.594,98.800 303.714,98.800 310.063 C 98.800 319.821,98.666 320.400,96.410 320.400 C 95.333 320.400,94.535 320.135,94.000 319.600 C 93.491 319.091,92.667 318.800,91.731 318.800 C 90.924 318.800,89.948 318.515,89.563 318.166 C 89.177 317.817,88.086 317.428,87.137 317.301 C 86.189 317.174,85.193 316.851,84.926 316.583 C 84.658 316.316,83.635 315.976,82.653 315.829 C 81.670 315.681,80.649 315.300,80.384 314.980 C 80.097 314.635,79.193 314.400,78.151 314.400 C 77.188 314.400,76.400 314.211,76.400 313.980 C 76.400 313.748,75.770 313.296,75.000 312.974 L 73.600 312.389 73.541 304.095 C 73.455 292.108,73.540 290.750,74.439 289.774 C 74.858 289.320,75.200 288.628,75.200 288.237 C 75.200 287.845,75.560 287.431,76.000 287.316 C 76.440 287.201,76.800 286.962,76.800 286.786 C 76.800 286.338,86.382 276.800,86.833 276.800 C 87.035 276.800,87.200 276.623,87.200 276.407 C 87.200 275.895,92.295 270.800,92.807 270.800 C 93.023 270.800,93.200 270.623,93.200 270.407 C 93.200 269.895,98.295 264.800,98.807 264.800 C 99.023 264.800,99.200 264.634,99.200 264.432 C 99.200 263.951,102.751 260.400,103.232 260.400 C 103.434 260.400,103.600 260.226,103.600 260.014 C 103.600 259.802,113.320 249.916,125.200 238.044 C 137.080 226.173,146.800 216.307,146.800 216.119 C 146.800 215.931,147.157 215.472,147.594 215.098 C 148.655 214.189,148.257 213.010,146.071 210.586 C 144.754 209.126,142.487 209.995,138.988 213.301 C 138.115 214.126,137.115 215.071,136.766 215.401 C 136.418 215.730,135.923 216.000,135.666 216.000 C 135.410 216.000,135.200 216.180,135.200 216.400 C 135.200 216.620,134.790 216.800,134.289 216.800 C 133.788 216.800,133.023 217.044,132.589 217.343 C 132.155 217.642,131.089 218.017,130.220 218.176 C 129.352 218.336,128.277 218.721,127.831 219.033 C 127.386 219.345,126.657 219.606,126.211 219.614 C 125.765 219.621,124.680 219.975,123.800 220.400 C 122.920 220.825,121.933 221.179,121.608 221.186 C 121.282 221.194,120.112 221.549,119.008 221.975 C 117.903 222.401,116.730 222.853,116.400 222.979 C 116.070 223.106,115.334 223.522,114.764 223.904 C 114.194 224.287,113.012 225.077,112.137 225.659 C 111.262 226.241,106.958 230.361,102.573 234.815 C 98.188 239.268,90.550 247.004,85.600 252.007 C 59.820 278.061,61.117 276.644,59.543 280.472 C 58.766 282.365,58.650 283.515,58.500 290.880 C 58.369 297.277,58.205 299.264,57.778 299.618 C 57.069 300.207,51.552 299.309,51.080 298.529 C 50.895 298.222,50.038 298.000,49.042 298.000 C 47.832 298.000,47.110 297.763,46.600 297.200 C 46.107 296.655,45.368 296.400,44.282 296.400 C 43.282 296.400,42.514 296.161,42.220 295.759 C 41.955 295.397,40.921 295.025,39.842 294.904 C 38.770 294.783,37.840 294.450,37.723 294.144 C 37.608 293.845,37.059 293.600,36.503 293.600 C 35.920 293.600,35.049 293.134,34.446 292.500 L 33.400 291.400 33.400 281.033 C 33.400 272.987,33.514 270.628,33.910 270.497 C 34.190 270.403,34.676 269.713,34.990 268.963 C 35.303 268.214,35.748 267.600,35.980 267.600 C 36.211 267.600,36.400 267.330,36.400 267.000 C 36.400 266.670,36.687 266.400,37.037 266.400 C 37.388 266.400,37.769 266.040,37.884 265.600 C 37.999 265.160,38.330 264.800,38.620 264.800 C 38.909 264.800,39.260 264.440,39.400 264.000 C 39.540 263.560,39.912 263.200,40.227 263.200 C 40.542 263.200,40.800 262.942,40.800 262.627 C 40.800 262.312,41.160 261.940,41.600 261.800 C 42.040 261.660,42.400 261.288,42.400 260.973 C 42.400 260.658,42.687 260.400,43.037 260.400 C 43.388 260.400,43.769 260.040,43.884 259.600 C 43.999 259.160,44.330 258.800,44.620 258.800 C 44.909 258.800,45.260 258.440,45.400 258.000 C 45.540 257.560,45.912 257.200,46.227 257.200 C 46.542 257.200,46.800 256.942,46.800 256.627 C 46.800 256.312,47.160 255.940,47.600 255.800 C 48.040 255.660,48.400 255.309,48.400 255.020 C 48.400 254.730,48.760 254.399,49.200 254.284 C 49.640 254.169,50.000 253.788,50.000 253.437 C 50.000 253.087,50.172 252.800,50.382 252.800 C 50.852 252.800,52.800 250.890,52.800 250.428 C 52.800 250.244,53.160 249.999,53.600 249.884 C 54.040 249.769,54.400 249.388,54.400 249.037 C 54.400 248.687,54.658 248.400,54.973 248.400 C 55.288 248.400,55.660 248.040,55.800 247.600 C 55.940 247.160,56.312 246.800,56.627 246.800 C 56.942 246.800,57.200 246.542,57.200 246.227 C 57.200 245.912,57.560 245.540,58.000 245.400 C 58.440 245.260,58.800 244.909,58.800 244.620 C 58.800 244.330,59.160 243.999,59.600 243.884 C 60.040 243.769,60.400 243.388,60.400 243.037 C 60.400 242.687,60.658 242.400,60.973 242.400 C 61.288 242.400,61.660 242.040,61.800 241.600 C 61.940 241.160,62.312 240.800,62.627 240.800 C 62.942 240.800,63.200 240.542,63.200 240.227 C 63.200 239.912,63.560 239.540,64.000 239.400 C 64.440 239.260,64.800 238.909,64.800 238.620 C 64.800 238.330,65.160 237.999,65.600 237.884 C 66.040 237.769,66.400 237.388,66.400 237.037 C 66.400 236.687,66.658 236.400,66.973 236.400 C 67.288 236.400,67.660 236.040,67.800 235.600 C 67.940 235.160,68.312 234.800,68.627 234.800 C 68.942 234.800,69.200 234.551,69.200 234.247 C 69.200 233.942,69.560 233.599,70.000 233.484 C 70.440 233.369,70.800 233.009,70.800 232.684 C 70.800 232.359,71.160 231.999,71.600 231.884 C 72.040 231.769,72.400 231.388,72.400 231.037 C 72.400 230.687,72.670 230.400,73.000 230.400 C 73.330 230.400,73.600 230.142,73.600 229.827 C 73.600 229.512,73.960 229.140,74.400 229.000 C 74.840 228.860,75.200 228.488,75.200 228.173 C 75.200 227.858,75.487 227.600,75.837 227.600 C 76.188 227.600,76.569 227.240,76.684 226.800 C 76.799 226.360,77.130 226.000,77.420 226.000 C 77.709 226.000,78.060 225.640,78.200 225.200 C 78.340 224.760,78.712 224.400,79.027 224.400 C 79.342 224.400,79.600 224.142,79.600 223.827 C 79.600 223.512,79.960 223.140,80.400 223.000 C 80.840 222.860,81.200 222.488,81.200 222.173 C 81.200 221.858,81.487 221.600,81.837 221.600 C 82.188 221.600,82.569 221.240,82.684 220.800 C 82.799 220.360,83.130 220.000,83.420 220.000 C 83.709 220.000,84.060 219.640,84.200 219.200 C 84.340 218.760,84.712 218.400,85.027 218.400 C 85.342 218.400,85.600 218.142,85.600 217.827 C 85.600 217.512,85.960 217.140,86.400 217.000 C 86.840 216.860,87.200 216.488,87.200 216.173 C 87.200 215.858,87.487 215.600,87.837 215.600 C 88.188 215.600,88.569 215.240,88.684 214.800 C 88.799 214.360,89.044 214.000,89.228 214.000 C 89.690 214.000,91.600 212.052,91.600 211.582 C 91.600 211.372,91.887 211.200,92.237 211.200 C 92.588 211.200,92.969 210.840,93.084 210.400 C 93.199 209.960,93.530 209.600,93.820 209.600 C 94.109 209.600,94.460 209.240,94.600 208.800 C 94.740 208.360,95.112 208.000,95.427 208.000 C 95.742 208.000,96.000 207.742,96.000 207.427 C 96.000 207.112,96.360 206.740,96.800 206.600 C 97.240 206.460,97.600 206.088,97.600 205.773 C 97.600 205.458,97.887 205.200,98.237 205.200 C 98.588 205.200,98.969 204.840,99.084 204.400 C 99.199 203.960,99.530 203.600,99.820 203.600 C 100.109 203.600,100.460 203.240,100.600 202.800 C 100.740 202.360,101.112 202.000,101.427 202.000 C 101.742 202.000,102.000 201.742,102.000 201.427 C 102.000 201.112,102.360 200.740,102.800 200.600 C 103.240 200.460,103.600 200.088,103.600 199.773 C 103.600 199.458,103.887 199.200,104.237 199.200 C 104.588 199.200,104.969 198.840,105.084 198.400 C 105.199 197.960,105.530 197.600,105.820 197.600 C 106.109 197.600,106.460 197.240,106.600 196.800 C 106.740 196.360,107.112 196.000,107.427 196.000 C 107.742 196.000,108.000 195.742,108.000 195.427 C 108.000 195.112,108.360 194.740,108.800 194.600 C 109.240 194.460,109.600 194.088,109.600 193.773 C 109.600 193.458,109.887 193.200,110.237 193.200 C 110.588 193.200,110.969 192.840,111.084 192.400 C 111.199 191.960,111.444 191.600,111.628 191.600 C 112.090 191.600,114.000 189.652,114.000 189.182 C 114.000 188.972,114.287 188.800,114.637 188.800 C 114.988 188.800,115.369 188.440,115.484 188.000 C 115.599 187.560,115.930 187.200,116.220 187.200 C 116.509 187.200,116.860 186.840,117.000 186.400 C 117.140 185.960,117.512 185.600,117.827 185.600 C 118.142 185.600,118.400 185.342,118.400 185.027 C 118.400 184.712,118.760 184.340,119.200 184.200 C 119.640 184.060,120.000 183.688,120.000 183.373 C 120.000 183.058,120.287 182.800,120.637 182.800 C 120.988 182.800,121.369 182.440,121.484 182.000 C 121.599 181.560,121.930 181.200,122.220 181.200 C 122.509 181.200,122.860 180.840,123.000 180.400 C 123.140 179.960,123.512 179.600,123.827 179.600 C 124.142 179.600,124.400 179.342,124.400 179.027 C 124.400 178.712,124.760 178.340,125.200 178.200 C 125.640 178.060,126.000 177.688,126.000 177.373 C 126.000 177.058,126.287 176.800,126.637 176.800 C 126.988 176.800,127.369 176.440,127.484 176.000 C 127.599 175.560,127.930 175.200,128.220 175.200 C 128.509 175.200,128.860 174.840,129.000 174.400 C 129.140 173.960,129.512 173.600,129.827 173.600 C 130.142 173.600,130.400 173.330,130.400 173.000 C 130.400 172.670,130.687 172.400,131.037 172.400 C 131.388 172.400,131.769 172.040,131.884 171.600 C 131.999 171.160,132.359 170.800,132.684 170.800 C 133.009 170.800,133.369 170.440,133.484 170.000 C 133.599 169.560,133.942 169.200,134.247 169.200 C 134.551 169.200,134.800 168.942,134.800 168.627 C 134.800 168.312,135.160 167.940,135.600 167.800 C 136.040 167.660,136.400 167.288,136.400 166.973 C 136.400 166.658,136.687 166.400,137.037 166.400 C 137.388 166.400,137.769 166.040,137.884 165.600 C 137.999 165.160,138.330 164.800,138.620 164.800 C 138.909 164.800,139.260 164.440,139.400 164.000 C 139.540 163.560,139.912 163.200,140.227 163.200 C 140.542 163.200,140.800 162.942,140.800 162.627 C 140.800 162.312,141.160 161.940,141.600 161.800 C 142.040 161.660,142.400 161.288,142.400 160.973 C 142.400 160.658,142.687 160.400,143.037 160.400 C 143.388 160.400,143.769 160.040,143.884 159.600 C 143.999 159.160,144.330 158.800,144.620 158.800 C 144.909 158.800,145.260 158.440,145.400 158.000 C 145.540 157.560,145.912 157.200,146.227 157.200 C 146.542 157.200,146.800 156.942,146.800 156.627 C 146.800 156.312,147.160 155.940,147.600 155.800 C 148.040 155.660,148.400 155.309,148.400 155.020 C 148.400 154.730,148.760 154.399,149.200 154.284 C 149.640 154.169,150.000 153.788,150.000 153.437 C 150.000 153.087,150.172 152.800,150.382 152.800 C 150.852 152.800,152.800 150.890,152.800 150.428 C 152.800 150.244,153.160 149.999,153.600 149.884 C 154.040 149.769,154.400 149.388,154.400 149.037 C 154.400 148.687,154.658 148.400,154.973 148.400 C 155.288 148.400,155.660 148.040,155.800 147.600 C 155.940 147.160,156.312 146.800,156.627 146.800 C 156.942 146.800,157.200 146.542,157.200 146.227 C 157.200 145.912,157.560 145.540,158.000 145.400 C 158.440 145.260,158.800 144.909,158.800 144.620 C 158.800 144.330,159.160 143.999,159.600 143.884 C 160.040 143.769,160.400 143.388,160.400 143.037 C 160.400 142.687,160.658 142.400,160.973 142.400 C 161.288 142.400,161.660 142.040,161.800 141.600 C 161.940 141.160,162.312 140.800,162.627 140.800 C 162.942 140.800,163.200 140.542,163.200 140.227 C 163.200 139.912,163.560 139.540,164.000 139.400 C 164.440 139.260,164.800 138.909,164.800 138.620 C 164.800 138.330,165.160 137.999,165.600 137.884 C 166.040 137.769,166.400 137.388,166.400 137.037 C 166.400 136.687,166.658 136.400,166.973 136.400 C 167.288 136.400,167.660 136.040,167.800 135.600 C 167.940 135.160,168.312 134.800,168.627 134.800 C 168.942 134.800,169.200 134.551,169.200 134.247 C 169.200 133.942,169.560 133.599,170.000 133.484 C 170.440 133.369,170.800 133.009,170.800 132.684 C 170.800 132.359,171.160 131.999,171.600 131.884 C 172.040 131.769,172.400 131.388,172.400 131.037 C 172.400 130.687,172.670 130.400,173.000 130.400 C 173.330 130.400,173.600 130.142,173.600 129.827 C 173.600 129.512,173.960 129.140,174.400 129.000 C 174.840 128.860,175.200 128.509,175.200 128.220 C 175.200 127.930,175.560 127.599,176.000 127.484 C 176.440 127.369,176.800 126.988,176.800 126.637 C 176.800 126.287,177.058 126.000,177.373 126.000 C 177.688 126.000,178.060 125.640,178.200 125.200 C 178.340 124.760,178.712 124.400,179.027 124.400 C 179.342 124.400,179.600 124.142,179.600 123.827 C 179.600 123.512,179.960 123.140,180.400 123.000 C 180.840 122.860,181.200 122.488,181.200 122.173 C 181.200 121.858,181.487 121.600,181.837 121.600 C 182.188 121.600,182.569 121.240,182.684 120.800 C 182.799 120.360,183.130 120.000,183.420 120.000 C 183.709 120.000,184.060 119.640,184.200 119.200 C 184.340 118.760,184.712 118.400,185.027 118.400 C 185.342 118.400,185.600 118.142,185.600 117.827 C 185.600 117.512,185.960 117.140,186.400 117.000 C 186.840 116.860,187.200 116.488,187.200 116.173 C 187.200 115.858,187.487 115.600,187.837 115.600 C 188.188 115.600,188.569 115.240,188.684 114.800 C 188.799 114.360,189.044 114.000,189.228 114.000 C 189.641 114.000,191.600 112.075,191.600 111.671 C 191.600 111.510,191.960 111.070,192.400 110.693 C 193.607 109.659,193.389 108.264,191.760 106.586 C 189.844 104.613,187.737 104.776,185.283 107.086 C 182.714 109.503,180.495 110.800,178.929 110.800 C 178.516 110.800,177.823 111.043,177.389 111.339 C 176.955 111.636,175.970 111.997,175.200 112.141 C 174.430 112.285,173.260 112.648,172.600 112.948 C 170.859 113.739,167.630 114.814,165.907 115.176 C 165.086 115.349,164.186 115.679,163.907 115.909 C 163.628 116.140,162.680 116.462,161.800 116.625 C 160.920 116.787,159.840 117.143,159.400 117.415 C 158.960 117.688,157.889 118.035,157.020 118.188 C 156.152 118.341,155.077 118.721,154.631 119.033 C 154.186 119.345,153.547 119.606,153.211 119.613 C 152.011 119.637,147.128 122.366,146.086 123.594 C 143.910 126.161,143.600 127.982,143.600 138.204 C 143.600 147.464,143.113 151.634,142.283 149.472 C 142.160 149.152,141.275 148.822,140.218 148.703 C 139.200 148.588,138.046 148.203,137.652 147.847 C 137.259 147.491,136.276 147.200,135.469 147.200 C 134.533 147.200,133.709 146.909,133.200 146.400 C 132.674 145.874,131.867 145.600,130.843 145.600 C 129.877 145.600,129.204 145.387,129.071 145.040 C 128.952 144.732,128.141 144.359,127.268 144.212 C 126.395 144.064,125.122 143.445,124.440 142.836 L 123.200 141.729 123.200 131.713 C 123.200 123.299,123.296 121.618,123.800 121.200 C 124.130 120.926,124.400 120.341,124.400 119.900 C 124.400 119.446,125.356 118.193,126.600 117.017 C 127.810 115.873,128.800 114.726,128.800 114.468 C 128.800 114.211,129.087 114.000,129.437 114.000 C 129.788 114.000,130.169 113.640,130.284 113.200 C 130.399 112.760,130.657 112.400,130.857 112.400 C 131.331 112.400,134.800 108.931,134.800 108.457 C 134.800 108.257,135.160 107.999,135.600 107.884 C 136.040 107.769,136.400 107.388,136.400 107.037 C 136.400 106.687,136.600 106.400,136.844 106.400 C 137.404 106.400,140.800 102.983,140.800 102.419 C 140.800 102.189,140.989 102.000,141.219 102.000 C 141.755 102.000,145.200 98.617,145.200 98.091 C 145.200 97.872,145.560 97.599,146.000 97.484 C 146.440 97.369,146.800 96.988,146.800 96.637 C 146.800 96.287,146.989 96.000,147.219 96.000 C 147.755 96.000,151.200 92.617,151.200 92.091 C 151.200 91.872,151.560 91.599,152.000 91.484 C 152.440 91.369,152.800 90.988,152.800 90.637 C 152.800 90.287,153.000 90.000,153.244 90.000 C 153.777 90.000,157.200 86.596,157.200 86.066 C 157.200 85.861,157.560 85.599,158.000 85.484 C 158.440 85.369,158.800 84.988,158.800 84.637 C 158.800 84.287,159.000 84.000,159.244 84.000 C 159.804 84.000,163.200 80.583,163.200 80.019 C 163.200 79.789,163.389 79.600,163.619 79.600 C 164.183 79.600,167.600 76.204,167.600 75.644 C 167.600 75.400,167.901 75.200,168.269 75.200 C 168.636 75.200,169.267 74.901,169.670 74.536 C 171.151 73.196,174.175 73.079,214.400 72.810 C 253.573 72.548,256.252 72.455,256.920 71.336 C 257.096 71.041,257.591 70.800,258.020 70.800 C 258.449 70.800,259.160 70.440,259.600 70.000 C 260.040 69.560,260.574 69.200,260.786 69.200 C 260.998 69.200,261.365 68.840,261.600 68.400 C 261.835 67.960,262.292 67.600,262.614 67.600 C 262.936 67.600,263.200 67.342,263.200 67.027 C 263.200 66.712,263.560 66.340,264.000 66.200 C 264.440 66.060,264.800 65.688,264.800 65.373 C 264.800 65.058,265.058 64.800,265.373 64.800 C 265.688 64.800,266.060 64.440,266.200 64.000 C 266.340 63.560,266.712 63.200,267.027 63.200 C 267.342 63.200,267.600 62.913,267.600 62.563 C 267.600 62.212,267.960 61.831,268.400 61.716 C 268.840 61.601,269.200 61.356,269.200 61.172 C 269.200 60.725,271.141 58.800,271.591 58.800 C 271.786 58.800,272.060 58.440,272.200 58.000 C 272.340 57.560,272.712 57.200,273.027 57.200 C 273.342 57.200,273.600 56.942,273.600 56.627 C 273.600 56.312,273.960 55.940,274.400 55.800 C 274.840 55.660,275.200 55.386,275.200 55.191 C 275.200 54.831,277.084 52.800,277.418 52.800 C 277.518 52.800,277.960 52.440,278.400 52.000 C 279.528 50.872,283.696 50.872,285.400 52.000 " stroke="none" fill="#f0f0f0" fill-rule="evenodd"></path><path id="path4" d="M276.300 39.861 C 275.915 39.970,275.600 40.315,275.600 40.629 C 275.600 41.014,275.148 41.200,274.214 41.200 C 273.238 41.200,272.702 41.436,272.400 42.000 C 272.165 42.440,271.707 42.800,271.383 42.800 C 271.059 42.800,267.126 46.445,262.643 50.900 C 258.161 55.355,254.093 59.360,253.605 59.800 C 252.732 60.586,252.009 60.604,213.178 60.800 C 182.298 60.956,173.530 61.109,173.140 61.500 C 172.855 61.785,171.643 62.000,170.320 62.000 C 168.533 62.000,167.816 62.184,167.200 62.800 C 166.760 63.240,165.952 63.600,165.403 63.600 C 164.840 63.600,164.190 63.948,163.907 64.400 C 163.632 64.840,163.119 65.200,162.766 65.200 C 162.413 65.200,161.798 65.560,161.400 66.000 C 161.002 66.440,160.541 66.800,160.376 66.800 C 159.540 66.800,115.600 111.344,115.600 112.191 C 115.600 112.479,115.330 112.818,115.000 112.945 C 114.670 113.071,114.400 113.458,114.400 113.804 C 114.400 114.150,114.040 114.820,113.600 115.292 C 113.120 115.807,112.800 116.704,112.800 117.531 C 112.800 118.384,112.533 119.107,112.100 119.424 C 111.026 120.209,111.026 144.191,112.100 144.976 C 112.485 145.258,112.800 145.866,112.800 146.329 C 112.800 146.791,113.128 147.491,113.529 147.884 C 115.234 149.558,115.600 151.241,115.608 157.460 C 115.616 162.856,116.096 166.833,116.991 168.917 C 117.240 169.498,108.689 178.241,71.849 215.071 C 46.852 240.062,26.400 260.748,26.400 261.040 C 26.400 261.333,26.040 261.765,25.600 262.000 C 25.160 262.235,24.800 262.699,24.800 263.031 C 24.800 263.362,24.440 264.020,24.000 264.492 C 23.560 264.964,23.200 265.882,23.200 266.531 C 23.200 267.194,22.893 267.936,22.500 268.224 C 21.427 269.008,21.427 294.304,22.500 295.490 C 22.885 295.915,23.200 296.564,23.200 296.931 C 23.200 297.299,23.515 297.917,23.900 298.305 C 25.364 299.781,25.600 301.092,25.600 307.741 C 25.600 320.946,26.743 322.197,44.200 328.095 C 55.580 331.940,59.058 332.348,62.987 330.297 C 65.494 328.988,65.444 328.940,65.702 332.888 C 65.824 334.747,66.199 336.726,66.557 337.400 C 66.908 338.060,67.196 338.787,67.198 339.016 C 67.208 340.784,71.913 344.019,76.580 345.466 C 78.351 346.016,80.160 346.623,80.600 346.817 C 81.040 347.010,83.838 347.980,86.818 348.972 C 99.921 353.331,101.270 352.942,112.973 341.422 C 117.821 336.650,120.236 334.529,120.422 334.880 C 120.574 335.166,120.789 336.930,120.901 338.800 C 121.102 342.171,121.779 344.037,123.562 346.135 C 124.237 346.928,127.462 349.198,127.920 349.202 C 128.074 349.204,128.683 349.457,129.273 349.765 C 129.863 350.073,130.943 350.456,131.671 350.616 C 132.400 350.776,133.538 351.139,134.198 351.424 C 137.801 352.974,146.934 355.322,148.125 355.005 C 154.153 353.399,153.842 353.632,165.687 341.843 C 174.984 332.591,175.782 331.991,176.260 333.900 C 177.011 336.897,181.710 341.033,185.246 341.810 C 185.989 341.973,187.138 342.342,187.798 342.630 C 190.678 343.883,194.691 344.800,197.292 344.800 C 202.891 344.800,197.649 349.647,267.104 280.251 L 329.609 217.800 331.243 214.459 L 332.878 211.119 333.096 203.859 C 333.416 193.174,331.202 196.271,357.002 170.419 C 377.985 149.393,380.400 146.885,380.400 146.126 C 380.400 145.935,380.713 145.333,381.096 144.789 C 382.500 142.793,383.153 138.927,383.177 132.462 C 383.200 126.206,383.799 122.593,385.047 121.169 C 385.352 120.820,385.606 119.656,385.613 118.569 C 385.620 117.476,385.887 116.255,386.213 115.824 C 387.102 114.648,387.090 82.739,386.200 82.000 C 385.870 81.726,385.600 80.877,385.600 80.114 C 385.600 79.332,385.251 78.282,384.800 77.709 C 384.360 77.150,384.000 76.446,384.000 76.146 C 384.000 75.846,383.730 75.600,383.400 75.600 C 383.070 75.600,382.800 75.313,382.800 74.963 C 382.800 74.612,382.440 74.231,382.000 74.116 C 381.560 74.001,381.200 73.641,381.200 73.316 C 381.200 72.991,380.840 72.631,380.400 72.516 C 379.960 72.401,379.600 72.058,379.600 71.753 C 379.600 71.449,379.264 71.200,378.854 71.200 C 378.444 71.200,377.650 70.840,377.091 70.400 C 376.531 69.960,375.492 69.600,374.781 69.600 C 374.069 69.600,373.282 69.318,373.030 68.973 C 372.778 68.629,371.768 68.245,370.786 68.121 C 369.804 67.997,368.730 67.664,368.400 67.381 C 368.070 67.099,367.080 66.737,366.200 66.577 C 365.320 66.417,364.245 66.042,363.811 65.743 C 363.377 65.444,362.477 65.199,361.811 65.197 C 361.145 65.196,360.060 64.837,359.400 64.400 C 358.740 63.963,357.590 63.604,356.844 63.603 C 356.078 63.601,355.289 63.328,355.030 62.973 C 354.778 62.629,353.768 62.245,352.786 62.121 C 351.804 61.997,350.730 61.671,350.400 61.398 C 350.070 61.125,349.089 60.774,348.220 60.618 C 347.352 60.462,346.277 60.079,345.831 59.767 C 345.386 59.455,344.477 59.199,343.811 59.197 C 343.145 59.196,342.060 58.837,341.400 58.400 C 340.740 57.963,339.674 57.604,339.031 57.603 C 338.389 57.601,337.548 57.315,337.163 56.966 C 336.777 56.617,335.686 56.228,334.737 56.101 C 333.789 55.974,332.772 55.629,332.478 55.335 C 332.183 55.041,331.458 54.800,330.866 54.800 C 330.273 54.800,329.116 54.440,328.296 54.000 C 327.475 53.560,326.172 53.200,325.401 53.200 C 324.631 53.200,324.000 53.049,324.000 52.864 C 324.000 52.369,322.121 51.600,320.913 51.600 C 320.335 51.600,319.548 51.315,319.163 50.966 C 318.777 50.617,317.686 50.228,316.737 50.101 C 315.789 49.974,314.772 49.629,314.478 49.335 C 314.183 49.041,313.371 48.799,312.671 48.797 C 311.972 48.796,310.860 48.437,310.200 48.000 C 309.540 47.563,308.390 47.204,307.644 47.203 C 306.878 47.201,306.089 46.928,305.830 46.573 C 305.578 46.229,304.568 45.845,303.586 45.721 C 302.604 45.597,301.530 45.264,301.200 44.981 C 300.870 44.699,299.880 44.337,299.000 44.177 C 298.120 44.017,297.045 43.642,296.611 43.343 C 296.177 43.044,295.277 42.799,294.611 42.797 C 293.945 42.796,292.860 42.437,292.200 42.000 C 291.540 41.563,290.390 41.204,289.644 41.203 C 288.816 41.201,288.089 40.927,287.777 40.500 C 287.270 39.805,278.268 39.304,276.300 39.861 M286.000 41.376 C 287.870 41.907,289.940 42.535,290.600 42.773 C 291.260 43.010,295.310 44.366,299.600 45.787 C 303.890 47.207,307.940 48.556,308.600 48.784 C 309.260 49.013,312.320 50.014,315.400 51.008 C 318.480 52.002,321.313 52.992,321.695 53.208 C 322.077 53.424,322.673 53.600,323.020 53.600 C 323.368 53.600,324.495 53.936,325.526 54.348 C 326.557 54.759,329.920 55.921,333.000 56.931 C 336.080 57.941,339.140 58.955,339.800 59.186 C 340.460 59.416,344.510 60.766,348.800 62.187 C 353.090 63.607,357.140 64.956,357.800 65.184 C 358.460 65.413,361.520 66.414,364.600 67.408 C 367.680 68.402,370.513 69.392,370.895 69.608 C 371.277 69.824,371.849 70.000,372.168 70.000 C 375.850 70.000,381.969 74.638,384.024 78.988 L 385.238 81.557 385.119 99.879 C 384.989 119.877,385.205 117.837,382.655 123.199 C 381.480 125.673,381.924 125.204,358.559 148.622 C 333.106 174.133,335.863 170.421,335.550 179.600 C 335.284 187.410,335.161 188.022,332.899 192.800 C 330.689 197.467,205.938 322.390,203.474 322.402 C 203.213 322.404,202.460 322.713,201.800 323.089 C 199.346 324.489,193.418 324.056,187.600 322.051 C 180.444 319.586,178.832 318.726,176.203 315.969 L 173.885 313.539 165.443 321.921 C 152.423 334.846,149.044 336.129,138.400 332.187 C 136.856 331.615,133.970 330.668,131.200 329.823 C 124.257 327.707,121.032 325.219,118.550 320.066 C 116.910 316.659,117.749 316.393,111.825 322.200 C 105.370 328.529,104.054 329.399,99.666 330.238 C 96.467 330.850,91.190 330.233,88.720 328.958 C 88.126 328.651,87.316 328.394,86.920 328.386 C 86.524 328.379,85.480 328.025,84.600 327.600 C 83.720 327.175,82.673 326.821,82.274 326.814 C 81.874 326.806,81.163 326.594,80.692 326.342 C 80.222 326.091,79.019 325.650,78.018 325.364 C 68.719 322.701,62.800 317.635,62.800 312.338 C 62.800 310.444,62.090 310.079,59.000 310.386 C 54.847 310.798,52.343 310.369,46.400 308.227 C 43.117 307.043,40.900 306.321,39.416 305.952 C 38.544 305.735,37.644 305.408,37.416 305.225 C 37.187 305.042,36.446 304.774,35.769 304.630 C 30.543 303.514,26.513 300.424,24.168 295.735 L 22.600 292.600 22.600 282.400 C 22.600 271.496,22.819 269.907,24.917 265.600 C 26.499 262.353,28.165 260.625,72.995 215.758 C 97.418 191.315,120.528 168.156,124.351 164.292 L 131.302 157.268 129.705 156.453 C 128.826 156.005,127.270 155.428,126.247 155.170 C 125.224 154.912,124.289 154.544,124.170 154.351 C 124.050 154.158,123.630 154.000,123.236 154.000 C 121.243 154.000,115.537 149.741,114.953 147.817 C 114.817 147.368,114.488 146.730,114.222 146.400 C 111.171 142.614,111.737 121.935,115.072 115.328 C 117.095 111.320,161.543 66.787,165.200 65.103 C 166.410 64.546,168.120 63.755,169.000 63.345 C 170.522 62.636,172.561 62.594,211.000 62.487 C 246.885 62.386,251.556 62.302,252.800 61.738 C 253.570 61.389,258.070 57.288,262.800 52.624 C 272.362 43.195,272.991 42.682,276.286 41.619 C 280.856 40.145,281.601 40.126,286.000 41.376 " stroke="none" fill="#ead705" fill-rule="evenodd"></path></g></svg>