<svg id="svg" version="1.1" width="400" height="400" viewBox="0 0 400 400" xmlns="http://www.w3.org/2000/svg" xmlns:xlink="http://www.w3.org/1999/xlink" ><g id="svgg"><path id="path0" d="M282.000 23.600 C 281.230 24.022,279.965 24.374,279.188 24.383 C 278.249 24.394,277.584 24.668,277.200 25.200 C 276.883 25.640,276.303 26.000,275.912 26.000 C 275.520 26.000,275.200 26.287,275.200 26.637 C 275.200 26.988,274.857 27.365,274.437 27.474 C 274.017 27.584,273.584 28.017,273.474 28.437 C 273.365 28.857,273.009 29.200,272.684 29.200 C 272.359 29.200,271.999 29.560,271.884 30.000 C 271.769 30.440,271.388 30.800,271.037 30.800 C 270.687 30.800,270.400 31.087,270.400 31.437 C 270.400 31.788,270.040 32.169,269.600 32.284 C 269.160 32.399,268.800 32.759,268.800 33.084 C 268.800 33.409,268.440 33.769,268.000 33.884 C 267.560 33.999,267.200 34.359,267.200 34.684 C 267.200 35.009,266.857 35.365,266.437 35.474 C 266.017 35.584,265.584 36.017,265.474 36.437 C 265.365 36.857,265.009 37.200,264.684 37.200 C 264.359 37.200,263.999 37.560,263.884 38.000 C 263.769 38.440,263.409 38.800,263.084 38.800 C 262.759 38.800,262.399 39.160,262.284 39.600 C 262.169 40.040,261.809 40.400,261.484 40.400 C 261.159 40.400,260.799 40.760,260.684 41.200 C 260.569 41.640,260.209 42.000,259.884 42.000 C 259.559 42.000,259.199 42.360,259.084 42.800 C 258.969 43.240,258.588 43.600,258.237 43.600 C 257.887 43.600,257.600 43.771,257.600 43.979 C 257.600 44.431,244.667 57.429,243.919 57.729 C 243.633 57.843,246.479 57.951,250.242 57.968 C 256.929 57.999,257.107 58.022,258.142 58.981 C 259.589 60.322,259.664 63.425,258.280 64.725 L 257.360 65.589 215.922 65.694 C 177.105 65.793,174.435 65.844,173.710 66.500 C 173.285 66.885,172.463 67.200,171.883 67.200 C 171.238 67.200,170.662 67.511,170.400 68.000 C 170.165 68.440,169.708 68.800,169.386 68.800 C 169.064 68.800,168.800 69.087,168.800 69.437 C 168.800 69.788,168.440 70.169,168.000 70.284 C 167.560 70.399,167.200 70.759,167.200 71.084 C 167.200 71.409,166.840 71.769,166.400 71.884 C 165.960 71.999,165.600 72.359,165.600 72.684 C 165.600 73.009,165.240 73.369,164.800 73.484 C 164.360 73.599,164.000 73.959,164.000 74.284 C 164.000 74.609,163.640 74.969,163.200 75.084 C 162.760 75.199,162.400 75.559,162.400 75.884 C 162.400 76.209,162.040 76.569,161.600 76.684 C 161.160 76.799,160.800 77.159,160.800 77.484 C 160.800 77.809,160.440 78.169,160.000 78.284 C 159.560 78.399,159.200 78.759,159.200 79.084 C 159.200 79.409,158.840 79.769,158.400 79.884 C 157.960 79.999,157.600 80.359,157.600 80.684 C 157.600 81.009,157.240 81.369,156.800 81.484 C 156.360 81.599,156.000 81.959,156.000 82.284 C 156.000 82.609,155.640 82.969,155.200 83.084 C 154.760 83.199,154.400 83.559,154.400 83.884 C 154.400 84.209,154.040 84.569,153.600 84.684 C 153.160 84.799,152.800 85.159,152.800 85.484 C 152.800 85.809,152.440 86.169,152.000 86.284 C 151.560 86.399,151.200 86.640,151.200 86.820 C 151.200 87.258,136.473 102.000,136.036 102.000 C 135.847 102.000,135.599 102.360,135.484 102.800 C 135.369 103.240,135.009 103.600,134.684 103.600 C 134.359 103.600,133.999 103.960,133.884 104.400 C 133.769 104.840,133.409 105.200,133.084 105.200 C 132.759 105.200,132.399 105.560,132.284 106.000 C 132.169 106.440,131.809 106.800,131.484 106.800 C 131.159 106.800,130.799 107.160,130.684 107.600 C 130.569 108.040,130.209 108.400,129.884 108.400 C 129.559 108.400,129.199 108.760,129.084 109.200 C 128.969 109.640,128.609 110.000,128.284 110.000 C 127.959 110.000,127.599 110.360,127.484 110.800 C 127.369 111.240,127.009 111.600,126.684 111.600 C 126.359 111.600,125.999 111.960,125.884 112.400 C 125.769 112.840,125.388 113.200,125.037 113.200 C 124.687 113.200,124.400 113.464,124.400 113.786 C 124.400 114.108,124.040 114.565,123.600 114.800 C 123.091 115.072,122.800 115.638,122.800 116.352 C 122.800 116.970,122.440 117.802,122.000 118.200 C 121.243 118.885,121.200 119.432,121.200 128.314 L 121.200 137.705 122.650 137.469 C 123.447 137.340,124.392 136.980,124.750 136.670 C 125.107 136.359,126.179 136.007,127.131 135.886 C 128.083 135.766,129.163 135.406,129.531 135.086 C 129.899 134.767,130.979 134.407,131.931 134.286 C 132.883 134.166,133.977 133.783,134.363 133.434 C 134.748 133.085,135.700 132.800,136.478 132.800 C 137.286 132.800,138.328 132.457,138.909 132.000 C 139.481 131.550,140.532 131.200,141.309 131.200 C 142.086 131.200,143.138 130.850,143.709 130.400 C 144.278 129.952,145.332 129.600,146.102 129.600 C 146.903 129.600,147.863 129.266,148.400 128.800 C 148.964 128.311,149.897 128.000,150.800 128.000 C 151.703 128.000,152.636 127.689,153.200 127.200 C 153.801 126.678,154.697 126.400,155.772 126.400 C 156.927 126.400,157.628 126.160,158.107 125.600 C 158.594 125.031,159.287 124.800,160.507 124.800 C 161.727 124.800,162.420 124.569,162.907 124.000 C 163.394 123.431,164.087 123.200,165.307 123.200 C 166.527 123.200,167.220 122.969,167.707 122.400 C 168.157 121.875,168.887 121.600,169.833 121.600 C 170.668 121.600,171.701 121.264,172.291 120.800 C 172.936 120.292,173.914 120.000,174.965 120.000 C 176.127 120.000,176.827 119.761,177.307 119.200 C 177.757 118.675,178.487 118.400,179.433 118.400 C 180.268 118.400,181.301 118.064,181.891 117.600 C 182.450 117.160,183.374 116.800,183.944 116.800 C 184.660 116.800,185.447 116.274,186.490 115.100 L 187.999 113.400 188.004 105.600 C 188.009 96.868,188.220 94.839,189.158 94.495 C 189.511 94.366,189.944 94.022,190.120 93.730 C 190.788 92.623,193.215 93.104,194.653 94.628 L 196.000 96.057 196.000 105.369 C 196.000 114.239,195.690 117.200,194.761 117.200 C 194.562 117.200,194.400 117.538,194.400 117.952 C 194.400 118.887,190.725 122.800,189.846 122.800 C 189.491 122.800,189.200 123.051,189.200 123.357 C 189.200 124.045,188.333 124.400,186.656 124.400 C 185.873 124.400,185.113 124.710,184.693 125.200 C 184.206 125.769,183.513 126.000,182.293 126.000 C 181.073 126.000,180.380 126.231,179.893 126.800 C 179.406 127.369,178.713 127.600,177.493 127.600 C 176.273 127.600,175.580 127.831,175.093 128.400 C 174.606 128.969,173.913 129.200,172.693 129.200 C 171.473 129.200,170.780 129.431,170.293 130.000 C 169.806 130.569,169.113 130.800,167.893 130.800 C 166.673 130.800,165.980 131.031,165.493 131.600 C 165.019 132.153,164.313 132.400,163.204 132.400 C 162.133 132.400,161.334 132.666,160.800 133.200 C 160.267 133.733,159.467 134.000,158.400 134.000 C 157.333 134.000,156.533 134.267,156.000 134.800 C 155.467 135.333,154.667 135.600,153.600 135.600 C 152.533 135.600,151.733 135.867,151.200 136.400 C 150.667 136.933,149.867 137.200,148.800 137.200 C 147.733 137.200,146.933 137.467,146.400 138.000 C 145.867 138.533,145.067 138.800,144.000 138.800 C 142.933 138.800,142.133 139.067,141.600 139.600 C 141.067 140.133,140.267 140.400,139.200 140.400 C 138.133 140.400,137.333 140.667,136.800 141.200 C 136.267 141.733,135.467 142.000,134.400 142.000 C 133.333 142.000,132.533 142.267,132.000 142.800 C 131.458 143.342,130.667 143.600,129.544 143.600 C 128.487 143.600,127.719 143.832,127.420 144.241 C 127.151 144.609,126.110 144.976,124.976 145.103 C 123.889 145.225,122.814 145.579,122.586 145.889 C 122.358 146.199,121.368 146.552,120.386 146.673 C 119.404 146.795,118.400 147.143,118.156 147.447 C 117.912 147.751,116.832 148.112,115.756 148.248 C 114.680 148.385,113.600 148.745,113.356 149.048 C 113.112 149.352,112.032 149.712,110.956 149.848 C 109.880 149.985,108.800 150.345,108.556 150.648 C 108.312 150.952,107.232 151.317,106.156 151.460 C 105.080 151.603,104.063 151.951,103.896 152.232 C 103.729 152.513,102.616 152.865,101.422 153.015 C 100.218 153.165,99.163 153.519,99.051 153.811 C 98.939 154.104,97.876 154.458,96.651 154.611 C 95.426 154.764,94.363 155.118,94.251 155.411 C 94.139 155.704,93.076 156.058,91.851 156.211 C 90.642 156.362,89.565 156.714,89.458 156.993 C 89.351 157.272,88.274 157.623,87.065 157.775 C 85.856 157.926,84.778 158.281,84.669 158.565 C 84.560 158.848,83.534 159.191,82.389 159.327 C 81.245 159.462,80.104 159.828,79.854 160.138 C 79.604 160.449,78.520 160.815,77.444 160.952 C 76.368 161.088,75.288 161.448,75.044 161.752 C 74.800 162.055,73.720 162.415,72.644 162.552 C 71.568 162.688,70.488 163.049,70.244 163.353 C 70.000 163.657,69.021 164.002,68.069 164.119 C 67.117 164.236,66.023 164.617,65.637 164.966 C 65.252 165.315,64.300 165.600,63.522 165.600 C 62.714 165.600,61.672 165.943,61.091 166.400 C 60.519 166.850,59.468 167.200,58.691 167.200 C 57.914 167.200,56.862 167.550,56.291 168.000 C 55.719 168.450,54.668 168.800,53.891 168.800 C 53.114 168.800,52.062 169.150,51.491 169.600 C 50.919 170.050,49.868 170.400,49.091 170.400 C 48.314 170.400,47.262 170.750,46.691 171.200 C 46.072 171.687,45.068 172.000,44.126 172.000 C 43.073 172.000,42.359 172.256,41.893 172.800 C 41.406 173.369,40.713 173.600,39.493 173.600 C 38.273 173.600,37.580 173.831,37.093 174.400 C 36.577 175.002,35.913 175.200,34.404 175.200 C 32.958 175.200,32.400 175.355,32.400 175.757 C 32.400 176.429,31.539 176.800,29.981 176.800 C 29.237 176.800,28.325 177.261,27.413 178.097 L 26.000 179.394 26.000 192.928 L 26.000 206.462 27.104 207.565 C 27.832 208.294,28.794 208.748,29.935 208.901 C 30.885 209.028,31.873 209.397,32.131 209.721 C 32.389 210.045,33.465 210.399,34.522 210.508 C 35.579 210.617,36.659 210.977,36.922 211.308 C 37.185 211.639,38.282 212.001,39.360 212.113 C 40.580 212.239,41.457 212.558,41.680 212.958 C 41.892 213.336,42.565 213.602,43.320 213.605 C 45.146 213.613,46.400 214.014,46.400 214.589 C 46.400 216.150,60.073 215.927,61.660 214.340 C 62.130 213.870,62.976 213.600,63.980 213.600 C 65.015 213.600,65.684 213.378,65.920 212.958 C 66.143 212.558,67.020 212.239,68.240 212.113 C 69.318 212.001,70.415 211.639,70.678 211.308 C 70.941 210.977,72.021 210.617,73.078 210.508 C 74.135 210.399,75.215 210.039,75.478 209.708 C 75.741 209.377,76.821 209.017,77.878 208.908 C 78.935 208.799,80.015 208.439,80.278 208.108 C 80.541 207.777,81.621 207.417,82.678 207.308 C 83.735 207.199,84.815 206.839,85.078 206.508 C 85.341 206.177,86.421 205.810,87.478 205.691 C 88.535 205.572,89.591 205.215,89.824 204.897 C 90.058 204.579,91.138 204.219,92.224 204.097 C 93.311 203.975,94.391 203.615,94.624 203.297 C 94.858 202.979,95.938 202.619,97.024 202.497 C 98.111 202.375,99.180 202.034,99.400 201.740 C 99.620 201.446,100.700 201.084,101.800 200.937 C 102.900 200.789,103.980 200.429,104.200 200.137 C 104.420 199.844,105.500 199.484,106.600 199.337 C 107.700 199.189,108.780 198.829,109.000 198.537 C 109.220 198.244,110.300 197.884,111.400 197.737 C 112.500 197.589,113.580 197.229,113.800 196.937 C 114.020 196.644,115.100 196.287,116.200 196.142 C 117.300 195.998,118.337 195.649,118.504 195.368 C 118.671 195.087,119.784 194.735,120.978 194.585 C 122.171 194.436,123.235 194.086,123.342 193.807 C 123.449 193.529,124.406 193.172,125.468 193.015 C 126.531 192.857,127.670 192.499,128.000 192.218 C 128.330 191.936,129.405 191.584,130.390 191.434 C 131.374 191.284,132.454 190.924,132.790 190.634 C 133.125 190.344,134.205 189.984,135.190 189.834 C 136.174 189.684,137.254 189.324,137.590 189.034 C 137.925 188.743,138.979 188.407,139.931 188.286 C 140.883 188.166,141.963 187.806,142.331 187.486 C 142.699 187.167,143.779 186.807,144.731 186.686 C 145.683 186.566,146.763 186.206,147.131 185.886 C 147.499 185.567,148.591 185.205,149.558 185.083 C 150.524 184.961,151.450 184.643,151.614 184.378 C 151.778 184.112,152.835 183.749,153.962 183.570 C 155.089 183.392,156.291 182.966,156.634 182.623 C 156.978 182.279,157.933 182.000,158.767 182.000 C 159.703 182.000,160.628 181.696,161.200 181.200 C 161.764 180.711,162.697 180.400,163.600 180.400 C 164.503 180.400,165.436 180.089,166.000 179.600 C 166.629 179.054,167.497 178.800,168.730 178.800 C 169.817 178.800,170.816 178.548,171.237 178.167 C 171.664 177.780,172.661 177.533,173.800 177.533 C 174.939 177.533,175.936 177.780,176.363 178.167 C 176.748 178.515,177.626 178.800,178.313 178.800 C 179.617 178.800,181.600 180.352,181.600 181.372 C 181.600 181.666,181.960 182.001,182.400 182.116 C 183.592 182.428,183.592 188.008,182.400 189.200 C 181.960 189.640,181.600 190.291,181.600 190.646 C 181.600 191.001,159.100 213.786,131.600 241.278 C 104.100 268.771,81.600 291.420,81.600 291.609 C 81.600 291.799,81.268 292.190,80.863 292.477 C 80.428 292.786,80.032 293.709,79.897 294.731 C 79.771 295.683,79.383 296.777,79.034 297.163 C 78.127 298.165,78.082 314.039,78.985 314.787 C 79.306 315.054,79.684 315.634,79.824 316.076 C 80.222 317.328,81.501 318.400,82.600 318.400 C 83.150 318.400,83.960 318.760,84.400 319.200 C 84.934 319.734,85.733 320.000,86.804 320.000 C 87.913 320.000,88.619 320.247,89.093 320.800 C 89.580 321.369,90.273 321.600,91.493 321.600 C 92.713 321.600,93.406 321.831,93.893 322.400 C 94.378 322.966,95.073 323.200,96.273 323.200 C 97.429 323.200,98.197 323.444,98.684 323.967 C 99.362 324.693,101.216 324.956,104.800 324.834 L 105.800 324.800 105.800 312.900 C 105.800 300.338,106.166 296.794,107.666 294.846 C 108.070 294.321,108.400 293.686,108.400 293.435 C 108.400 293.184,108.715 292.688,109.100 292.335 C 109.485 291.981,157.540 243.926,215.888 185.546 C 274.237 127.166,327.652 73.736,334.588 66.814 C 341.525 59.892,347.200 54.025,347.200 53.776 C 347.200 53.221,320.152 26.000,319.601 26.000 C 319.384 26.000,318.982 25.640,318.707 25.200 C 318.379 24.675,317.774 24.400,316.947 24.400 C 316.254 24.400,314.903 24.044,313.944 23.609 C 311.303 22.411,284.186 22.403,282.000 23.600 M168.693 187.200 C 168.219 187.753,167.513 188.000,166.404 188.000 C 165.333 188.000,164.534 188.266,164.000 188.800 C 163.467 189.333,162.667 189.600,161.600 189.600 C 160.533 189.600,159.733 189.867,159.200 190.400 C 158.658 190.942,157.867 191.200,156.744 191.200 C 155.687 191.200,154.919 191.432,154.620 191.841 C 154.351 192.209,153.310 192.576,152.176 192.703 C 151.089 192.825,150.009 193.185,149.776 193.503 C 149.542 193.821,148.462 194.181,147.376 194.303 C 146.289 194.425,145.209 194.785,144.976 195.103 C 144.742 195.421,143.662 195.781,142.576 195.903 C 141.489 196.025,140.409 196.385,140.176 196.703 C 139.942 197.021,138.862 197.381,137.776 197.503 C 136.689 197.625,135.605 197.990,135.367 198.315 C 135.125 198.645,134.024 198.992,132.867 199.103 C 131.478 199.237,130.800 199.482,130.800 199.851 C 130.800 200.153,130.536 200.400,130.214 200.400 C 129.892 200.400,129.435 200.760,129.200 201.200 C 128.965 201.640,128.529 202.000,128.233 202.000 C 127.936 202.000,127.599 202.360,127.484 202.800 C 127.369 203.240,127.009 203.600,126.684 203.600 C 126.359 203.600,125.999 203.960,125.884 204.400 C 125.769 204.840,125.388 205.200,125.037 205.200 C 124.687 205.200,124.400 205.464,124.400 205.786 C 124.400 206.108,124.040 206.565,123.600 206.800 C 123.091 207.072,122.800 207.638,122.800 208.352 C 122.800 208.970,122.440 209.802,122.000 210.200 C 121.240 210.888,121.200 211.432,121.200 221.015 C 121.200 230.770,121.227 231.114,122.000 231.316 C 122.440 231.431,122.800 231.812,122.800 232.163 C 122.800 232.533,123.135 232.800,123.600 232.800 C 124.040 232.800,124.400 232.984,124.400 233.210 C 124.400 233.794,126.366 234.465,127.253 234.183 C 127.664 234.053,128.000 233.709,128.000 233.420 C 128.000 233.130,128.360 232.799,128.800 232.684 C 129.240 232.569,129.600 232.209,129.600 231.884 C 129.600 231.559,129.960 231.199,130.400 231.084 C 130.840 230.969,131.200 230.609,131.200 230.284 C 131.200 229.959,131.560 229.599,132.000 229.484 C 132.440 229.369,132.800 229.009,132.800 228.684 C 132.800 228.359,133.160 227.999,133.600 227.884 C 134.040 227.769,134.400 227.388,134.400 227.037 C 134.400 226.687,134.658 226.400,134.973 226.400 C 135.288 226.400,135.660 226.040,135.800 225.600 C 135.940 225.160,136.300 224.800,136.600 224.800 C 136.900 224.800,137.260 224.440,137.400 224.000 C 137.540 223.560,137.900 223.200,138.200 223.200 C 138.500 223.200,138.860 222.840,139.000 222.400 C 139.140 221.960,139.500 221.600,139.800 221.600 C 140.100 221.600,140.460 221.240,140.600 220.800 C 140.740 220.360,141.100 220.000,141.400 220.000 C 141.700 220.000,142.060 219.640,142.200 219.200 C 142.340 218.760,142.700 218.400,143.000 218.400 C 143.300 218.400,143.660 218.040,143.800 217.600 C 143.940 217.160,144.300 216.800,144.600 216.800 C 144.900 216.800,145.260 216.440,145.400 216.000 C 145.540 215.560,145.900 215.200,146.200 215.200 C 146.500 215.200,146.860 214.840,147.000 214.400 C 147.140 213.960,147.491 213.600,147.780 213.600 C 148.070 213.600,148.401 213.240,148.516 212.800 C 148.631 212.360,148.991 212.000,149.316 212.000 C 149.641 212.000,150.001 211.640,150.116 211.200 C 150.231 210.760,150.567 210.399,150.863 210.397 C 152.311 210.388,152.339 207.601,150.900 206.680 C 149.775 205.960,150.991 202.954,152.994 201.506 C 153.770 200.945,156.812 201.165,157.055 201.800 C 157.410 202.724,159.462 202.570,159.716 201.600 C 159.831 201.160,160.191 200.800,160.516 200.800 C 160.841 200.800,161.201 200.440,161.316 200.000 C 161.431 199.560,161.812 199.200,162.163 199.200 C 162.513 199.200,162.800 198.942,162.800 198.627 C 162.800 198.312,163.160 197.940,163.600 197.800 C 164.040 197.660,164.400 197.300,164.400 197.000 C 164.400 196.700,164.760 196.340,165.200 196.200 C 165.640 196.060,166.000 195.700,166.000 195.400 C 166.000 195.100,166.360 194.740,166.800 194.600 C 167.240 194.460,167.600 194.100,167.600 193.800 C 167.600 193.500,167.960 193.140,168.400 193.000 C 168.840 192.860,169.200 192.500,169.200 192.200 C 169.200 191.900,169.560 191.540,170.000 191.400 C 170.440 191.260,170.800 190.900,170.800 190.600 C 170.800 190.300,171.160 189.940,171.600 189.800 C 172.040 189.660,172.400 189.300,172.400 189.000 C 172.400 188.700,172.741 188.346,173.157 188.214 C 173.573 188.082,174.006 187.619,174.119 187.187 C 174.430 186.001,169.710 186.012,168.693 187.200 M216.573 226.565 C 216.430 227.134,216.075 227.600,215.784 227.600 C 215.492 227.600,215.140 227.960,215.000 228.400 C 214.860 228.840,214.500 229.200,214.200 229.200 C 213.900 229.200,213.540 229.560,213.400 230.000 C 213.260 230.440,212.900 230.800,212.600 230.800 C 212.300 230.800,211.940 231.160,211.800 231.600 C 211.660 232.040,211.309 232.400,211.020 232.400 C 210.730 232.400,210.399 232.760,210.284 233.200 C 210.169 233.640,209.809 234.000,209.484 234.000 C 209.159 234.000,208.799 234.360,208.684 234.800 C 208.569 235.240,208.209 235.600,207.884 235.600 C 207.559 235.600,207.199 235.960,207.084 236.400 C 206.969 236.840,206.609 237.200,206.284 237.200 C 205.959 237.200,205.599 237.560,205.484 238.000 C 205.369 238.440,205.009 238.800,204.684 238.800 C 204.359 238.800,203.999 239.160,203.884 239.600 C 203.769 240.040,203.409 240.400,203.084 240.400 C 202.759 240.400,202.399 240.760,202.284 241.200 C 202.169 241.640,201.809 242.000,201.484 242.000 C 201.159 242.000,200.799 242.360,200.684 242.800 C 200.569 243.240,200.209 243.600,199.884 243.600 C 199.559 243.600,199.199 243.960,199.084 244.400 C 198.969 244.840,198.609 245.200,198.284 245.200 C 197.959 245.200,197.599 245.560,197.484 246.000 C 197.369 246.440,197.009 246.800,196.684 246.800 C 196.359 246.800,195.999 247.160,195.884 247.600 C 195.769 248.040,195.409 248.400,195.084 248.400 C 194.759 248.400,194.399 248.760,194.284 249.200 C 194.169 249.640,193.809 250.000,193.484 250.000 C 193.159 250.000,192.799 250.360,192.684 250.800 C 192.569 251.240,192.209 251.600,191.884 251.600 C 191.559 251.600,191.199 251.960,191.084 252.400 C 190.969 252.840,190.609 253.200,190.284 253.200 C 189.221 253.200,189.156 254.774,190.208 255.038 C 190.722 255.167,191.239 255.526,191.359 255.836 C 191.493 256.188,192.161 256.400,193.134 256.400 C 194.086 256.400,195.087 256.711,195.709 257.200 C 196.281 257.650,197.332 258.000,198.109 258.000 C 198.886 258.000,199.938 258.350,200.509 258.800 C 201.081 259.250,202.132 259.600,202.909 259.600 C 203.686 259.600,204.738 259.950,205.309 260.400 C 205.881 260.850,206.932 261.200,207.709 261.200 C 208.486 261.200,209.538 261.550,210.109 262.000 C 210.669 262.440,211.668 262.800,212.330 262.800 C 213.903 262.800,214.800 263.162,214.800 263.796 C 214.800 264.077,215.169 264.403,215.619 264.521 C 216.357 264.714,216.426 264.999,216.319 267.406 C 216.191 270.271,214.709 271.596,212.569 270.757 C 212.146 270.592,210.973 270.444,209.962 270.428 C 208.657 270.408,207.914 270.168,207.400 269.600 C 206.910 269.058,206.168 268.800,205.101 268.800 C 204.132 268.800,203.135 268.492,202.509 268.000 C 201.938 267.550,200.886 267.200,200.109 267.200 C 199.332 267.200,198.281 266.850,197.709 266.400 C 197.128 265.943,196.086 265.600,195.278 265.600 C 194.500 265.600,193.548 265.315,193.163 264.966 C 192.777 264.617,191.683 264.236,190.731 264.119 C 189.779 264.002,188.796 263.651,188.546 263.340 C 188.296 263.028,187.155 262.662,186.011 262.527 C 184.826 262.386,183.840 262.047,183.722 261.740 C 183.441 261.009,181.600 261.038,181.600 261.773 C 181.600 262.088,181.240 262.460,180.800 262.600 C 180.360 262.740,180.000 263.100,180.000 263.400 C 180.000 263.700,179.640 264.060,179.200 264.200 C 178.760 264.340,178.400 264.700,178.400 265.000 C 178.400 265.300,178.040 265.660,177.600 265.800 C 177.160 265.940,176.800 266.300,176.800 266.600 C 176.800 266.900,176.440 267.260,176.000 267.400 C 175.560 267.540,175.200 267.900,175.200 268.200 C 175.200 268.500,174.840 268.860,174.400 269.000 C 173.960 269.140,173.600 269.497,173.600 269.794 C 173.600 270.090,173.375 270.424,173.100 270.535 C 172.825 270.646,173.007 270.751,173.504 270.768 C 174.001 270.786,174.716 271.160,175.093 271.600 C 175.580 272.169,176.273 272.400,177.493 272.400 C 178.713 272.400,179.406 272.631,179.893 273.200 C 180.380 273.769,181.073 274.000,182.293 274.000 C 183.513 274.000,184.206 274.231,184.693 274.800 C 185.180 275.369,185.873 275.600,187.093 275.600 C 188.313 275.600,189.006 275.831,189.493 276.400 C 189.972 276.960,190.673 277.200,191.827 277.200 C 192.968 277.200,193.699 277.446,194.200 278.000 C 194.690 278.542,195.432 278.800,196.499 278.800 C 197.468 278.800,198.465 279.108,199.091 279.600 C 199.662 280.050,200.714 280.400,201.491 280.400 C 202.268 280.400,203.319 280.750,203.891 281.200 C 204.462 281.650,205.514 282.000,206.291 282.000 C 207.068 282.000,208.119 282.350,208.691 282.800 C 209.272 283.257,210.314 283.600,211.122 283.600 C 211.900 283.600,212.852 283.885,213.237 284.234 C 213.623 284.583,214.717 284.964,215.669 285.081 C 216.621 285.198,217.600 285.543,217.844 285.847 C 218.088 286.151,219.168 286.512,220.244 286.648 C 221.320 286.785,222.404 287.151,222.654 287.462 C 222.904 287.772,224.045 288.138,225.189 288.273 C 226.334 288.409,227.359 288.749,227.467 289.030 C 227.726 289.706,230.337 290.123,232.163 289.781 L 233.622 289.507 233.511 262.853 C 233.409 238.352,233.344 236.103,232.702 235.000 C 232.319 234.340,232.004 233.612,232.002 233.381 C 231.994 232.008,227.108 228.766,224.242 228.232 C 223.384 228.072,222.304 227.705,221.842 227.416 C 221.379 227.126,220.280 226.763,219.400 226.609 C 218.520 226.455,217.582 226.149,217.316 225.929 C 216.966 225.639,216.761 225.814,216.573 226.565 " stroke="none" fill="#f7f7f7" fill-rule="evenodd"></path><path id="path1" d="M280.000 12.787 C 278.570 12.958,276.680 13.399,275.800 13.766 C 270.294 16.065,270.435 15.943,251.285 35.077 L 232.770 53.577 230.143 54.389 C 227.615 55.169,226.512 55.200,200.812 55.200 C 163.290 55.200,171.148 51.584,139.171 83.567 L 114.542 108.200 112.915 111.600 C 110.837 115.941,110.725 116.686,110.439 128.158 L 110.200 137.716 109.187 138.471 C 108.629 138.887,107.279 139.475,106.187 139.780 C 105.094 140.084,103.570 140.549,102.800 140.814 C 102.030 141.079,100.500 141.603,99.400 141.978 C 98.300 142.354,96.500 142.971,95.400 143.349 C 94.300 143.727,92.590 144.278,91.600 144.573 C 90.610 144.868,89.170 145.331,88.400 145.602 C 87.630 145.874,86.100 146.403,85.000 146.778 C 83.900 147.154,82.100 147.775,81.000 148.158 C 79.900 148.541,78.358 149.015,77.574 149.213 C 76.789 149.410,75.619 149.846,74.974 150.183 C 74.328 150.520,73.440 150.802,73.000 150.811 C 72.560 150.820,71.480 151.175,70.600 151.600 C 69.720 152.025,68.640 152.385,68.200 152.400 C 67.760 152.415,66.680 152.775,65.800 153.200 C 64.920 153.625,63.840 153.985,63.400 154.000 C 62.960 154.015,61.880 154.375,61.000 154.800 C 60.120 155.225,59.040 155.585,58.600 155.600 C 58.160 155.615,57.080 155.975,56.200 156.400 C 55.320 156.825,54.240 157.185,53.800 157.200 C 53.360 157.215,52.280 157.575,51.400 158.000 C 50.520 158.425,49.440 158.785,49.000 158.800 C 48.560 158.815,47.480 159.175,46.600 159.600 C 45.720 160.025,44.640 160.385,44.200 160.400 C 43.760 160.415,42.680 160.775,41.800 161.200 C 40.920 161.625,39.840 161.980,39.400 161.989 C 38.960 161.998,38.072 162.280,37.426 162.617 C 36.781 162.954,35.611 163.390,34.826 163.587 C 33.477 163.926,32.418 164.277,27.200 166.112 C 20.395 168.505,17.206 171.648,15.449 177.690 C 14.506 180.933,14.490 205.012,15.429 208.239 C 16.877 213.221,22.360 219.200,25.481 219.200 C 25.751 219.200,26.564 219.457,27.286 219.770 C 28.560 220.323,30.675 221.046,34.400 222.200 C 37.294 223.097,40.095 224.029,41.600 224.596 C 50.639 228.003,56.316 227.956,66.600 224.389 C 70.680 222.974,71.440 222.720,73.200 222.187 C 75.854 221.384,78.812 220.403,80.400 219.800 C 81.891 219.234,84.658 218.312,87.600 217.400 C 90.793 216.410,93.371 215.526,94.600 214.999 C 95.260 214.716,96.430 214.355,97.200 214.196 C 97.970 214.037,98.780 213.766,99.000 213.593 C 99.220 213.420,100.210 213.073,101.200 212.822 C 102.190 212.572,103.360 212.192,103.800 211.978 C 104.952 211.419,110.158 210.024,110.355 210.222 C 110.447 210.314,110.483 214.783,110.436 220.154 C 110.324 232.888,110.895 235.796,114.204 239.366 C 115.848 241.140,115.938 241.034,94.266 262.788 C 72.886 284.248,71.456 285.868,69.349 291.000 L 68.200 293.800 68.200 306.200 L 68.200 318.600 69.575 321.126 C 72.444 326.398,75.520 328.304,86.800 331.800 C 89.694 332.697,92.495 333.629,94.000 334.196 C 102.559 337.422,108.114 337.235,113.800 333.531 C 114.680 332.957,126.952 320.948,141.070 306.844 C 169.025 278.918,167.301 280.387,170.486 281.770 C 171.760 282.323,173.875 283.046,177.600 284.200 C 180.542 285.112,183.309 286.034,184.800 286.600 C 186.291 287.166,189.058 288.088,192.000 289.000 C 194.556 289.792,197.568 290.785,199.200 291.373 C 201.618 292.245,204.532 293.217,206.400 293.773 C 207.390 294.068,208.830 294.531,209.600 294.802 C 210.370 295.074,211.900 295.603,213.000 295.978 C 214.100 296.354,215.900 296.975,217.000 297.358 C 218.100 297.741,219.713 298.231,220.584 298.448 C 221.456 298.665,222.356 298.992,222.584 299.175 C 223.362 299.797,229.744 301.200,231.776 301.195 C 238.935 301.177,237.749 302.214,287.455 252.517 C 328.847 211.134,333.470 206.299,334.837 202.962 C 335.098 202.323,335.592 201.170,335.933 200.400 C 336.389 199.370,336.619 196.936,336.802 191.200 C 337.144 180.457,334.814 183.703,360.789 157.800 C 392.585 126.094,390.000 130.819,390.000 104.400 C 390.000 77.686,393.501 83.613,355.127 45.364 C 327.059 17.388,325.499 15.970,320.400 13.792 L 317.800 12.682 300.200 12.579 C 290.520 12.522,281.430 12.616,280.000 12.787 M317.850 23.427 C 321.116 24.854,376.802 80.283,378.666 83.963 L 379.800 86.200 379.926 103.000 C 380.065 121.371,379.901 123.337,378.000 126.114 C 375.437 129.860,334.100 170.581,333.427 170.023 C 332.909 169.592,332.800 168.465,332.800 163.531 C 332.800 155.659,331.741 153.672,328.450 155.374 C 326.811 156.222,326.800 156.378,326.803 177.550 L 326.805 196.600 325.730 198.872 C 324.008 202.508,236.221 290.124,233.600 290.823 C 231.588 291.359,228.597 290.943,225.000 289.627 C 221.650 288.401,220.278 287.933,218.400 287.373 C 217.410 287.078,215.700 286.527,214.600 286.149 C 213.500 285.771,211.700 285.154,210.600 284.778 C 209.500 284.403,207.970 283.874,207.200 283.602 C 206.430 283.331,204.990 282.868,204.000 282.573 C 203.010 282.278,201.300 281.727,200.200 281.349 C 199.100 280.971,197.300 280.354,196.200 279.978 C 195.100 279.603,193.570 279.074,192.800 278.802 C 192.030 278.531,190.590 278.066,189.600 277.769 C 186.659 276.885,183.854 275.951,183.000 275.570 C 182.560 275.374,180.271 274.590,177.913 273.828 C 173.370 272.359,171.980 271.754,171.511 271.040 C 171.340 270.780,173.302 268.513,176.305 265.500 C 182.004 259.783,182.249 259.675,186.192 261.152 C 189.203 262.280,190.809 262.833,192.800 263.427 C 193.790 263.722,195.500 264.273,196.600 264.651 C 197.700 265.029,199.500 265.646,200.600 266.022 C 201.700 266.397,203.230 266.926,204.000 267.198 C 204.770 267.469,206.210 267.934,207.200 268.231 C 208.190 268.529,209.856 269.070,210.901 269.434 C 213.885 270.472,216.103 269.109,215.687 266.492 C 215.540 265.570,212.339 263.600,210.987 263.600 C 210.636 263.600,209.505 263.269,208.474 262.865 C 206.194 261.971,203.215 260.947,200.800 260.227 C 199.810 259.932,198.370 259.469,197.600 259.198 C 196.830 258.926,195.300 258.389,194.200 258.002 C 193.100 257.616,191.452 257.095,190.539 256.845 C 189.625 256.596,188.455 256.042,187.939 255.616 L 187.000 254.841 201.367 240.452 C 217.006 224.788,217.139 224.613,214.822 222.738 C 212.648 220.977,215.309 218.501,160.204 273.563 C 106.266 327.458,106.659 327.089,103.644 326.675 C 101.854 326.430,94.414 324.120,91.800 322.999 C 91.140 322.716,89.970 322.355,89.200 322.196 C 88.430 322.037,87.620 321.766,87.400 321.593 C 87.180 321.420,86.190 321.065,85.200 320.804 C 78.038 318.919,77.799 318.429,77.803 305.628 L 77.807 295.400 78.950 293.200 C 79.877 291.416,89.581 281.499,130.225 240.800 C 183.432 187.522,182.000 189.054,182.000 185.380 C 182.000 181.760,179.403 179.568,174.800 179.303 C 171.390 179.106,168.868 179.649,163.200 181.800 C 161.709 182.366,158.942 183.288,156.000 184.200 C 153.058 185.112,150.291 186.034,148.800 186.600 C 147.309 187.166,144.542 188.088,141.600 189.000 C 138.407 189.990,135.829 190.874,134.600 191.401 C 133.940 191.684,132.770 192.045,132.000 192.204 C 131.230 192.363,130.418 192.638,130.195 192.817 C 129.972 192.995,128.892 193.360,127.795 193.628 C 126.698 193.896,125.618 194.256,125.395 194.428 C 125.172 194.600,124.097 194.966,123.006 195.240 C 121.915 195.515,120.567 195.977,120.011 196.267 C 119.455 196.558,118.640 196.802,118.200 196.811 C 117.760 196.820,116.680 197.175,115.800 197.600 C 114.920 198.025,113.840 198.385,113.400 198.400 C 112.960 198.415,111.880 198.775,111.000 199.200 C 110.120 199.625,109.040 199.985,108.600 200.000 C 108.160 200.015,107.080 200.375,106.200 200.800 C 105.320 201.225,104.240 201.585,103.800 201.600 C 103.360 201.615,102.280 201.975,101.400 202.400 C 100.520 202.825,99.440 203.185,99.000 203.200 C 98.560 203.215,97.480 203.575,96.600 204.000 C 95.720 204.425,94.733 204.779,94.408 204.786 C 94.082 204.794,92.912 205.139,91.808 205.552 C 88.797 206.680,87.191 207.233,85.200 207.827 C 84.210 208.122,82.500 208.673,81.400 209.051 C 80.300 209.429,78.500 210.046,77.400 210.422 C 76.300 210.797,74.770 211.326,74.000 211.598 C 73.230 211.869,71.790 212.332,70.800 212.627 C 69.810 212.922,68.100 213.473,67.000 213.851 C 65.900 214.229,64.100 214.846,63.000 215.222 C 61.900 215.597,60.370 216.126,59.600 216.396 C 56.026 217.651,51.577 217.651,48.000 216.396 C 47.230 216.126,45.700 215.597,44.600 215.222 C 43.500 214.846,41.700 214.229,40.600 213.851 C 39.500 213.473,37.790 212.922,36.800 212.627 C 31.486 211.043,27.104 209.213,26.143 208.176 C 24.855 206.786,24.734 205.182,24.874 191.326 L 25.000 178.851 26.170 177.630 C 26.814 176.959,27.714 176.297,28.170 176.160 C 28.627 176.023,29.540 175.680,30.200 175.399 C 31.485 174.850,34.284 173.896,37.200 173.013 C 38.190 172.713,39.630 172.251,40.400 171.986 C 41.170 171.721,42.700 171.197,43.800 170.822 C 44.900 170.446,46.700 169.829,47.800 169.451 C 48.900 169.073,50.610 168.522,51.600 168.227 C 52.590 167.932,54.030 167.469,54.800 167.198 C 55.570 166.926,57.100 166.397,58.200 166.022 C 59.300 165.646,61.100 165.029,62.200 164.651 C 63.300 164.273,65.010 163.722,66.000 163.427 C 66.990 163.132,68.430 162.665,69.200 162.390 C 73.014 161.029,74.330 160.583,75.800 160.157 C 76.680 159.902,77.940 159.490,78.600 159.241 C 79.260 158.992,96.090 153.394,116.000 146.800 C 135.910 140.206,152.740 134.609,153.400 134.361 C 154.060 134.113,155.410 133.668,156.400 133.373 C 157.390 133.078,159.100 132.527,160.200 132.149 C 161.300 131.771,163.100 131.154,164.200 130.778 C 165.300 130.403,166.830 129.874,167.600 129.602 C 168.370 129.331,169.810 128.866,170.800 128.567 C 193.338 121.774,194.393 120.785,194.693 106.156 C 194.879 97.062,194.573 95.459,192.554 94.953 C 189.345 94.147,188.891 95.525,188.840 106.223 C 188.800 114.610,188.796 114.651,187.792 115.863 C 186.743 117.129,182.797 118.839,176.800 120.627 C 175.810 120.922,174.100 121.473,173.000 121.851 C 171.900 122.229,170.100 122.846,169.000 123.222 C 167.900 123.597,166.370 124.121,165.600 124.386 C 164.830 124.651,163.390 125.113,162.400 125.413 C 159.746 126.216,156.788 127.197,155.200 127.800 C 153.709 128.366,150.942 129.288,148.000 130.200 C 144.807 131.190,142.229 132.074,141.000 132.601 C 140.340 132.884,139.170 133.245,138.400 133.404 C 137.630 133.563,136.818 133.838,136.595 134.017 C 136.372 134.195,135.292 134.560,134.195 134.828 C 133.098 135.096,132.018 135.456,131.795 135.628 C 131.572 135.800,130.492 136.160,129.395 136.428 C 128.298 136.696,127.218 137.056,126.995 137.228 C 126.772 137.400,125.692 137.760,124.595 138.028 C 123.498 138.296,122.356 138.708,122.057 138.943 C 120.007 140.554,119.550 119.166,121.562 115.800 C 123.160 113.127,169.063 67.326,171.400 66.073 L 173.400 65.000 214.788 64.891 L 256.175 64.782 257.288 63.716 C 260.385 60.749,257.871 59.200,249.955 59.200 C 240.164 59.200,239.288 60.938,259.000 41.244 C 273.234 27.023,276.136 24.307,278.000 23.462 L 280.200 22.466 297.850 22.433 L 315.500 22.400 317.850 23.427 M175.936 185.988 C 176.046 186.743,174.520 188.480,167.936 195.095 L 159.800 203.268 156.780 203.031 C 152.295 202.680,150.562 204.992,153.203 207.804 L 154.167 208.829 140.983 222.044 L 127.800 235.260 125.903 235.049 C 120.854 234.488,120.307 232.966,120.481 219.945 L 120.621 209.400 121.694 207.600 C 124.783 202.419,130.360 198.238,136.142 196.769 C 136.990 196.553,138.196 196.112,138.822 195.789 C 139.448 195.465,140.284 195.194,140.680 195.186 C 141.076 195.179,142.120 194.825,143.000 194.400 C 143.880 193.975,144.960 193.615,145.400 193.600 C 145.840 193.585,146.920 193.225,147.800 192.800 C 148.680 192.375,149.760 192.017,150.200 192.005 C 150.640 191.992,151.785 191.626,152.744 191.191 C 153.703 190.756,154.783 190.399,155.144 190.398 C 155.505 190.396,156.255 190.158,156.811 189.867 C 157.367 189.577,158.715 189.115,159.806 188.840 C 160.897 188.566,161.972 188.195,162.195 188.017 C 162.418 187.838,163.230 187.563,164.000 187.404 C 164.770 187.245,165.940 186.872,166.600 186.575 C 171.008 184.589,175.690 184.294,175.936 185.988 " stroke="none" fill="#3b3430" fill-rule="evenodd"></path><path id="path2" d="M0.000 200.000 L 0.000 400.000 200.000 400.000 L 400.000 400.000 400.000 200.000 L 400.000 0.000 200.000 0.000 L 0.000 0.000 0.000 200.000 M315.024 11.387 C 315.468 11.724,316.689 11.980,317.881 11.987 C 319.963 12.000,322.000 12.632,322.000 13.264 C 322.000 13.449,322.416 13.600,322.925 13.600 C 323.433 13.600,324.198 13.916,324.625 14.303 C 325.051 14.689,325.895 15.226,326.500 15.494 C 327.105 15.763,327.600 16.167,327.600 16.391 C 327.600 16.616,327.887 16.800,328.237 16.800 C 328.588 16.800,328.969 17.160,329.084 17.600 C 329.199 18.040,329.559 18.400,329.884 18.400 C 330.209 18.400,330.569 18.760,330.684 19.200 C 330.799 19.640,331.159 20.000,331.484 20.000 C 331.809 20.000,332.165 20.343,332.274 20.763 C 332.384 21.183,332.817 21.616,333.237 21.726 C 333.657 21.835,334.000 22.191,334.000 22.516 C 334.000 22.841,334.360 23.201,334.800 23.316 C 335.240 23.431,335.600 23.791,335.600 24.116 C 335.600 24.441,335.960 24.801,336.400 24.916 C 336.840 25.031,337.200 25.391,337.200 25.716 C 337.200 26.041,337.560 26.401,338.000 26.516 C 338.440 26.631,338.800 26.991,338.800 27.316 C 338.800 27.641,339.160 28.001,339.600 28.116 C 340.040 28.231,340.400 28.591,340.400 28.916 C 340.400 29.241,340.760 29.601,341.200 29.716 C 341.640 29.831,342.000 30.191,342.000 30.516 C 342.000 30.841,342.360 31.201,342.800 31.316 C 343.240 31.431,343.600 31.791,343.600 32.116 C 343.600 32.441,343.960 32.801,344.400 32.916 C 344.840 33.031,345.200 33.412,345.200 33.763 C 345.200 34.113,345.458 34.400,345.773 34.400 C 346.088 34.400,346.460 34.760,346.600 35.200 C 346.740 35.640,347.100 36.000,347.400 36.000 C 347.700 36.000,348.060 36.360,348.200 36.800 C 348.340 37.240,348.700 37.600,349.000 37.600 C 349.300 37.600,349.660 37.960,349.800 38.400 C 349.940 38.840,350.300 39.200,350.600 39.200 C 350.900 39.200,351.260 39.560,351.400 40.000 C 351.540 40.440,351.804 40.800,351.987 40.800 C 352.422 40.800,359.200 47.578,359.200 48.013 C 359.200 48.196,359.560 48.460,360.000 48.600 C 360.440 48.740,360.800 49.100,360.800 49.400 C 360.800 49.700,361.160 50.060,361.600 50.200 C 362.040 50.340,362.400 50.700,362.400 51.000 C 362.400 51.300,362.760 51.660,363.200 51.800 C 363.640 51.940,364.000 52.300,364.000 52.600 C 364.000 52.900,364.360 53.260,364.800 53.400 C 365.240 53.540,365.600 53.912,365.600 54.227 C 365.600 54.542,365.887 54.800,366.237 54.800 C 366.588 54.800,366.969 55.160,367.084 55.600 C 367.199 56.040,367.559 56.400,367.884 56.400 C 368.209 56.400,368.569 56.760,368.684 57.200 C 368.799 57.640,369.159 58.000,369.484 58.000 C 369.809 58.000,370.169 58.360,370.284 58.800 C 370.399 59.240,370.759 59.600,371.084 59.600 C 371.409 59.600,371.769 59.960,371.884 60.400 C 371.999 60.840,372.359 61.200,372.684 61.200 C 373.009 61.200,373.369 61.560,373.484 62.000 C 373.599 62.440,373.959 62.800,374.284 62.800 C 374.609 62.800,374.969 63.160,375.084 63.600 C 375.199 64.040,375.559 64.400,375.884 64.400 C 376.209 64.400,376.569 64.760,376.684 65.200 C 376.799 65.640,377.159 66.000,377.484 66.000 C 377.809 66.000,378.169 66.360,378.284 66.800 C 378.399 67.240,378.759 67.600,379.084 67.600 C 379.409 67.600,379.769 67.960,379.884 68.400 C 379.999 68.840,380.359 69.200,380.684 69.200 C 381.009 69.200,381.369 69.560,381.484 70.000 C 381.599 70.440,381.959 70.800,382.284 70.800 C 382.609 70.800,382.969 71.160,383.084 71.600 C 383.199 72.040,383.548 72.400,383.859 72.400 C 384.170 72.400,384.537 72.692,384.674 73.048 C 384.810 73.404,385.518 74.292,386.246 75.020 C 386.975 75.748,387.693 76.833,387.843 77.430 C 387.993 78.027,388.450 78.850,388.858 79.258 C 389.298 79.698,389.600 80.570,389.600 81.400 C 389.600 82.170,389.773 82.800,389.984 82.800 C 391.481 82.800,391.789 124.688,390.300 125.777 C 389.902 126.067,389.600 126.807,389.600 127.490 C 389.600 128.151,389.240 129.150,388.800 129.709 C 388.360 130.269,388.000 131.006,388.000 131.349 C 388.000 131.692,387.640 132.165,387.200 132.400 C 386.760 132.635,386.400 133.092,386.400 133.414 C 386.400 133.736,385.680 134.720,384.800 135.600 C 382.718 137.682,382.759 137.882,385.706 139.953 C 389.287 142.470,391.593 146.015,392.364 150.190 C 393.303 155.268,392.575 168.900,391.278 170.524 C 391.069 170.786,390.766 171.450,390.604 172.000 C 389.527 175.662,386.446 178.814,296.340 268.432 C 266.717 297.894,242.235 322.000,241.934 322.000 C 241.634 322.000,240.671 322.404,239.794 322.899 C 237.485 324.201,228.910 324.230,225.600 322.948 C 222.958 321.924,221.205 321.316,218.800 320.587 C 217.810 320.288,213.580 318.869,209.400 317.434 C 205.220 315.999,201.533 314.820,201.207 314.813 C 200.881 314.806,184.051 331.330,163.807 351.534 C 123.963 391.300,125.781 389.662,120.000 390.991 C 115.512 392.022,114.385 391.841,103.800 388.395 C 91.881 384.514,88.886 382.698,86.431 377.861 C 84.699 374.449,83.918 373.806,80.800 373.226 C 77.948 372.696,65.354 368.561,61.945 367.036 C 58.937 365.690,55.898 362.728,54.111 359.400 L 52.607 356.600 52.481 344.401 L 52.356 332.202 53.415 329.085 C 55.054 324.263,56.188 322.579,61.379 317.266 L 66.200 312.333 66.400 304.099 C 66.548 298.014,66.730 295.822,67.100 295.700 C 67.429 295.590,67.600 294.680,67.600 293.042 C 67.600 291.104,67.778 290.360,68.400 289.692 C 68.840 289.220,69.200 288.494,69.200 288.079 C 69.200 287.664,69.560 286.998,70.000 286.600 C 70.440 286.202,70.800 285.634,70.800 285.338 C 70.800 285.042,71.129 284.471,71.531 284.069 C 71.932 283.668,72.377 283.038,72.518 282.669 C 72.659 282.301,73.051 282.000,73.387 282.000 C 73.724 282.000,74.000 281.713,74.000 281.363 C 74.000 281.012,74.360 280.631,74.800 280.516 C 75.240 280.401,75.600 280.041,75.600 279.716 C 75.600 279.391,75.943 279.035,76.363 278.926 C 76.783 278.816,77.216 278.383,77.326 277.963 C 77.435 277.543,77.791 277.200,78.116 277.200 C 78.441 277.200,78.801 276.840,78.916 276.400 C 79.031 275.960,79.391 275.600,79.716 275.600 C 80.041 275.600,80.401 275.240,80.516 274.800 C 80.631 274.360,80.991 274.000,81.316 274.000 C 81.641 274.000,82.001 273.640,82.116 273.200 C 82.231 272.760,82.591 272.400,82.916 272.400 C 83.241 272.400,83.601 272.040,83.716 271.600 C 83.831 271.160,84.191 270.800,84.516 270.800 C 84.841 270.800,85.201 270.440,85.316 270.000 C 85.431 269.560,85.791 269.200,86.116 269.200 C 86.441 269.200,86.801 268.840,86.916 268.400 C 87.031 267.960,87.412 267.600,87.763 267.600 C 88.113 267.600,88.400 267.324,88.400 266.987 C 88.400 266.651,88.670 266.271,89.000 266.145 C 89.493 265.956,89.600 264.939,89.600 260.457 C 89.600 248.167,91.118 245.026,102.582 233.605 L 108.800 227.410 108.800 219.505 C 108.800 210.825,108.668 210.433,106.400 212.400 C 105.836 212.889,104.903 213.200,104.000 213.200 C 103.097 213.200,102.164 213.511,101.600 214.000 C 101.063 214.466,100.103 214.800,99.302 214.800 C 98.532 214.800,97.478 215.152,96.909 215.600 C 96.338 216.050,95.286 216.400,94.509 216.400 C 93.732 216.400,92.681 216.750,92.109 217.200 C 91.538 217.650,90.486 218.000,89.709 218.000 C 88.932 218.000,87.881 218.350,87.309 218.800 C 86.738 219.250,85.686 219.600,84.909 219.600 C 84.132 219.600,83.081 219.950,82.509 220.400 C 81.938 220.850,80.886 221.200,80.109 221.200 C 79.332 221.200,78.281 221.550,77.709 222.000 C 77.091 222.487,76.086 222.800,75.146 222.800 C 74.133 222.800,73.324 223.076,72.800 223.600 C 72.267 224.133,71.467 224.400,70.400 224.400 C 69.333 224.400,68.533 224.667,68.000 225.200 C 67.467 225.733,66.667 226.000,65.600 226.000 C 64.533 226.000,63.733 226.267,63.200 226.800 C 62.555 227.445,61.867 227.600,59.646 227.600 C 57.981 227.600,56.438 227.836,55.746 228.198 C 54.289 228.957,52.769 228.963,51.776 228.213 C 51.264 227.825,50.014 227.621,48.100 227.613 C 45.744 227.602,45.050 227.450,44.400 226.800 C 43.837 226.237,43.067 226.000,41.803 226.000 C 40.440 226.000,39.886 225.807,39.507 225.200 C 39.121 224.582,38.574 224.400,37.107 224.400 C 35.640 224.400,35.093 224.218,34.707 223.600 C 34.321 222.982,33.774 222.800,32.307 222.800 C 30.840 222.800,30.293 222.618,29.907 222.000 C 29.521 221.382,28.974 221.200,27.507 221.200 C 26.040 221.200,25.493 221.018,25.107 220.400 C 24.769 219.858,24.174 219.600,23.266 219.600 C 22.262 219.600,21.873 219.399,21.716 218.800 C 21.601 218.360,21.265 218.000,20.969 218.000 C 20.259 218.000,16.800 214.624,16.800 213.932 C 16.800 213.635,16.440 213.168,16.000 212.893 C 15.548 212.610,15.200 211.960,15.200 211.397 C 15.200 210.848,14.834 210.034,14.387 209.587 C 13.214 208.414,13.321 176.611,14.500 175.952 C 14.885 175.736,15.200 175.119,15.200 174.580 C 15.200 174.041,15.529 173.271,15.931 172.869 C 16.332 172.468,16.777 171.838,16.918 171.469 C 17.059 171.101,17.451 170.800,17.787 170.800 C 18.133 170.800,18.400 170.452,18.400 170.000 C 18.400 169.560,18.664 169.200,18.986 169.200 C 19.308 169.200,19.765 168.840,20.000 168.400 C 20.235 167.960,20.649 167.600,20.918 167.600 C 21.187 167.600,21.632 167.240,21.907 166.800 C 22.234 166.277,22.840 166.000,23.659 166.000 C 24.348 166.000,25.123 165.712,25.380 165.359 C 25.649 164.991,26.690 164.624,27.824 164.497 C 28.911 164.375,29.991 164.015,30.224 163.697 C 30.458 163.379,31.538 163.019,32.624 162.897 C 33.711 162.775,34.786 162.421,35.014 162.111 C 35.242 161.801,36.232 161.445,37.214 161.321 C 38.196 161.197,39.301 160.833,39.669 160.514 C 40.037 160.194,41.117 159.834,42.069 159.714 C 43.021 159.593,44.101 159.233,44.469 158.914 C 44.837 158.594,45.917 158.234,46.869 158.114 C 47.821 157.993,48.901 157.633,49.269 157.314 C 49.637 156.994,50.717 156.634,51.669 156.514 C 52.621 156.393,53.701 156.033,54.069 155.714 C 54.437 155.394,55.517 155.034,56.469 154.914 C 57.421 154.793,58.501 154.433,58.869 154.114 C 59.237 153.794,60.314 153.428,61.263 153.301 C 62.211 153.174,63.218 152.840,63.499 152.559 C 63.780 152.278,64.857 151.921,65.892 151.765 C 66.927 151.610,68.007 151.250,68.292 150.965 C 68.577 150.681,69.657 150.321,70.692 150.165 C 71.727 150.010,72.807 149.650,73.092 149.365 C 73.377 149.081,74.457 148.721,75.492 148.565 C 76.527 148.410,77.596 148.061,77.867 147.790 C 78.138 147.519,79.207 147.170,80.243 147.015 C 81.278 146.859,82.358 146.499,82.643 146.215 C 82.927 145.930,84.007 145.570,85.043 145.415 C 86.078 145.259,87.158 144.899,87.443 144.615 C 87.727 144.330,88.807 143.970,89.843 143.815 C 90.878 143.659,91.980 143.277,92.291 142.966 C 92.602 142.655,93.342 142.400,93.934 142.400 C 94.527 142.400,95.684 142.040,96.504 141.600 C 97.325 141.160,98.493 140.799,99.099 140.797 C 99.704 140.796,100.740 140.437,101.400 140.000 C 102.060 139.563,103.202 139.204,103.937 139.203 C 104.672 139.201,105.731 138.840,106.291 138.400 C 106.850 137.960,107.628 137.600,108.019 137.600 C 108.677 137.600,108.739 136.857,108.865 127.441 C 108.985 118.446,109.080 117.194,109.700 116.510 C 110.089 116.080,110.400 115.109,110.400 114.322 C 110.400 113.514,110.743 112.472,111.200 111.891 C 111.640 111.331,112.000 110.585,112.000 110.233 C 112.000 109.881,112.360 109.284,112.800 108.907 C 113.240 108.530,113.601 108.037,113.602 107.811 C 113.603 107.585,114.413 106.508,115.402 105.417 C 116.391 104.326,117.200 103.291,117.200 103.117 C 117.200 102.943,117.358 102.800,117.552 102.800 C 117.995 102.800,152.000 68.821,152.000 68.379 C 152.000 68.200,152.360 67.940,152.800 67.800 C 153.240 67.660,153.600 67.300,153.600 67.000 C 153.600 66.700,153.960 66.340,154.400 66.200 C 154.840 66.060,155.200 65.700,155.200 65.400 C 155.200 65.100,155.560 64.740,156.000 64.600 C 156.440 64.460,156.800 64.109,156.800 63.820 C 156.800 63.530,157.160 63.199,157.600 63.084 C 158.040 62.969,158.400 62.588,158.400 62.237 C 158.400 61.887,158.587 61.600,158.815 61.600 C 159.043 61.600,160.074 60.790,161.108 59.800 C 162.141 58.810,163.304 58.000,163.693 58.000 C 164.082 58.000,164.400 57.733,164.400 57.408 C 164.400 57.082,164.895 56.698,165.500 56.554 C 166.105 56.410,166.901 56.031,167.269 55.712 C 167.637 55.393,168.717 55.030,169.669 54.904 C 170.621 54.779,171.842 54.389,172.382 54.038 C 173.253 53.472,176.628 53.386,202.304 53.276 C 227.046 53.170,231.276 53.069,231.465 52.576 C 231.586 52.259,231.829 52.000,232.005 52.000 C 232.181 52.000,240.129 44.215,249.668 34.700 C 265.497 18.911,267.881 16.646,269.984 15.397 C 270.357 15.176,270.976 14.681,271.360 14.297 C 271.743 13.914,272.485 13.600,273.009 13.600 C 273.532 13.600,274.131 13.295,274.340 12.922 C 274.622 12.417,275.424 12.199,277.460 12.071 C 278.967 11.976,280.555 11.651,280.989 11.349 C 282.198 10.508,313.907 10.543,315.024 11.387 " stroke="none" fill="#f9e804" fill-rule="evenodd"></path><path id="path3" d="M280.989 11.349 C 280.555 11.651,278.967 11.976,277.460 12.071 C 275.424 12.199,274.622 12.417,274.340 12.922 C 274.131 13.295,273.532 13.600,273.009 13.600 C 272.485 13.600,271.743 13.914,271.360 14.297 C 270.976 14.681,270.357 15.176,269.984 15.397 C 267.881 16.646,265.497 18.911,249.668 34.700 C 240.129 44.215,232.181 52.000,232.005 52.000 C 231.829 52.000,231.586 52.259,231.465 52.576 C 231.276 53.069,227.046 53.170,202.304 53.276 C 176.628 53.386,173.253 53.472,172.382 54.038 C 171.842 54.389,170.621 54.779,169.669 54.904 C 168.717 55.030,167.637 55.393,167.269 55.712 C 166.901 56.031,166.105 56.410,165.500 56.554 C 164.895 56.698,164.400 57.082,164.400 57.408 C 164.400 57.733,164.082 58.000,163.693 58.000 C 163.304 58.000,162.141 58.810,161.108 59.800 C 160.074 60.790,159.043 61.600,158.815 61.600 C 158.587 61.600,158.400 61.887,158.400 62.237 C 158.400 62.588,158.040 62.969,157.600 63.084 C 157.160 63.199,156.800 63.530,156.800 63.820 C 156.800 64.109,156.440 64.460,156.000 64.600 C 155.560 64.740,155.200 65.100,155.200 65.400 C 155.200 65.700,154.840 66.060,154.400 66.200 C 153.960 66.340,153.600 66.700,153.600 67.000 C 153.600 67.300,153.240 67.660,152.800 67.800 C 152.360 67.940,152.000 68.200,152.000 68.379 C 152.000 68.821,117.995 102.800,117.552 102.800 C 117.358 102.800,117.200 102.943,117.200 103.117 C 117.200 103.291,116.391 104.326,115.402 105.417 C 114.413 106.508,113.603 107.585,113.602 107.811 C 113.601 108.037,113.240 108.530,112.800 108.907 C 112.360 109.284,112.000 109.881,112.000 110.233 C 112.000 110.585,111.640 111.331,111.200 111.891 C 110.743 112.472,110.400 113.514,110.400 114.322 C 110.400 115.109,110.089 116.080,109.700 116.510 C 109.080 117.194,108.985 118.446,108.865 127.441 C 108.739 136.857,108.677 137.600,108.019 137.600 C 107.628 137.600,106.850 137.960,106.291 138.400 C 105.731 138.840,104.672 139.201,103.937 139.203 C 103.202 139.204,102.060 139.563,101.400 140.000 C 100.740 140.437,99.704 140.796,99.099 140.797 C 98.493 140.799,97.325 141.160,96.504 141.600 C 95.684 142.040,94.527 142.400,93.934 142.400 C 93.342 142.400,92.602 142.655,92.291 142.966 C 91.980 143.277,90.878 143.659,89.843 143.815 C 88.807 143.970,87.727 144.330,87.443 144.615 C 87.158 144.899,86.078 145.259,85.043 145.415 C 84.007 145.570,82.927 145.930,82.643 146.215 C 82.358 146.499,81.278 146.859,80.243 147.015 C 79.207 147.170,78.138 147.519,77.867 147.790 C 77.596 148.061,76.527 148.410,75.492 148.565 C 74.457 148.721,73.377 149.081,73.092 149.365 C 72.807 149.650,71.727 150.010,70.692 150.165 C 69.657 150.321,68.577 150.681,68.292 150.965 C 68.007 151.250,66.927 151.610,65.892 151.765 C 64.857 151.921,63.780 152.278,63.499 152.559 C 63.218 152.840,62.211 153.174,61.263 153.301 C 60.314 153.428,59.237 153.794,58.869 154.114 C 58.501 154.433,57.421 154.793,56.469 154.914 C 55.517 155.034,54.437 155.394,54.069 155.714 C 53.701 156.033,52.621 156.393,51.669 156.514 C 50.717 156.634,49.637 156.994,49.269 157.314 C 48.901 157.633,47.821 157.993,46.869 158.114 C 45.917 158.234,44.837 158.594,44.469 158.914 C 44.101 159.233,43.021 159.593,42.069 159.714 C 41.117 159.834,40.037 160.194,39.669 160.514 C 39.301 160.833,38.196 161.197,37.214 161.321 C 36.232 161.445,35.242 161.801,35.014 162.111 C 34.786 162.421,33.711 162.775,32.624 162.897 C 31.538 163.019,30.458 163.379,30.224 163.697 C 29.991 164.015,28.911 164.375,27.824 164.497 C 26.690 164.624,25.649 164.991,25.380 165.359 C 25.123 165.712,24.348 166.000,23.659 166.000 C 22.840 166.000,22.234 166.277,21.907 166.800 C 21.632 167.240,21.187 167.600,20.918 167.600 C 20.649 167.600,20.235 167.960,20.000 168.400 C 19.765 168.840,19.308 169.200,18.986 169.200 C 18.664 169.200,18.400 169.560,18.400 170.000 C 18.400 170.452,18.133 170.800,17.787 170.800 C 17.451 170.800,17.059 171.101,16.918 171.469 C 16.777 171.838,16.332 172.468,15.931 172.869 C 15.529 173.271,15.200 174.041,15.200 174.580 C 15.200 175.119,14.885 175.736,14.500 175.952 C 13.321 176.611,13.214 208.414,14.387 209.587 C 14.834 210.034,15.200 210.848,15.200 211.397 C 15.200 211.960,15.548 212.610,16.000 212.893 C 16.440 213.168,16.800 213.635,16.800 213.932 C 16.800 214.624,20.259 218.000,20.969 218.000 C 21.265 218.000,21.601 218.360,21.716 218.800 C 21.873 219.399,22.262 219.600,23.266 219.600 C 24.174 219.600,24.769 219.858,25.107 220.400 C 25.493 221.018,26.040 221.200,27.507 221.200 C 28.974 221.200,29.521 221.382,29.907 222.000 C 30.293 222.618,30.840 222.800,32.307 222.800 C 33.774 222.800,34.321 222.982,34.707 223.600 C 35.093 224.218,35.640 224.400,37.107 224.400 C 38.574 224.400,39.121 224.582,39.507 225.200 C 39.886 225.807,40.440 226.000,41.803 226.000 C 43.067 226.000,43.837 226.237,44.400 226.800 C 45.050 227.450,45.744 227.602,48.100 227.613 C 50.014 227.621,51.264 227.825,51.776 228.213 C 52.769 228.963,54.289 228.957,55.746 228.198 C 56.438 227.836,57.981 227.600,59.646 227.600 C 61.867 227.600,62.555 227.445,63.200 226.800 C 63.733 226.267,64.533 226.000,65.600 226.000 C 66.667 226.000,67.467 225.733,68.000 225.200 C 68.533 224.667,69.333 224.400,70.400 224.400 C 71.467 224.400,72.267 224.133,72.800 223.600 C 73.324 223.076,74.133 222.800,75.146 222.800 C 76.086 222.800,77.091 222.487,77.709 222.000 C 78.281 221.550,79.332 221.200,80.109 221.200 C 80.886 221.200,81.938 220.850,82.509 220.400 C 83.081 219.950,84.132 219.600,84.909 219.600 C 85.686 219.600,86.738 219.250,87.309 218.800 C 87.881 218.350,88.932 218.000,89.709 218.000 C 90.486 218.000,91.538 217.650,92.109 217.200 C 92.681 216.750,93.732 216.400,94.509 216.400 C 95.286 216.400,96.338 216.050,96.909 215.600 C 97.478 215.152,98.532 214.800,99.302 214.800 C 100.103 214.800,101.063 214.466,101.600 214.000 C 102.164 213.511,103.097 213.200,104.000 213.200 C 104.903 213.200,105.836 212.889,106.400 212.400 C 108.668 210.433,108.800 210.825,108.800 219.505 L 108.800 227.410 102.582 233.605 C 91.118 245.026,89.600 248.167,89.600 260.457 C 89.600 264.939,89.493 265.956,89.000 266.145 C 88.670 266.271,88.400 266.651,88.400 266.987 C 88.400 267.324,88.113 267.600,87.763 267.600 C 87.412 267.600,87.031 267.960,86.916 268.400 C 86.801 268.840,86.441 269.200,86.116 269.200 C 85.791 269.200,85.431 269.560,85.316 270.000 C 85.201 270.440,84.841 270.800,84.516 270.800 C 84.191 270.800,83.831 271.160,83.716 271.600 C 83.601 272.040,83.241 272.400,82.916 272.400 C 82.591 272.400,82.231 272.760,82.116 273.200 C 82.001 273.640,81.641 274.000,81.316 274.000 C 80.991 274.000,80.631 274.360,80.516 274.800 C 80.401 275.240,80.041 275.600,79.716 275.600 C 79.391 275.600,79.031 275.960,78.916 276.400 C 78.801 276.840,78.441 277.200,78.116 277.200 C 77.791 277.200,77.435 277.543,77.326 277.963 C 77.216 278.383,76.783 278.816,76.363 278.926 C 75.943 279.035,75.600 279.391,75.600 279.716 C 75.600 280.041,75.240 280.401,74.800 280.516 C 74.360 280.631,74.000 281.012,74.000 281.363 C 74.000 281.713,73.724 282.000,73.387 282.000 C 73.051 282.000,72.659 282.301,72.518 282.669 C 72.377 283.038,71.932 283.668,71.531 284.069 C 71.129 284.471,70.800 285.042,70.800 285.338 C 70.800 285.634,70.440 286.202,70.000 286.600 C 69.560 286.998,69.200 287.664,69.200 288.079 C 69.200 288.494,68.840 289.220,68.400 289.692 C 67.778 290.360,67.600 291.104,67.600 293.042 C 67.600 294.680,67.429 295.590,67.100 295.700 C 66.730 295.822,66.548 298.014,66.400 304.099 L 66.200 312.333 61.379 317.266 C 56.188 322.579,55.054 324.263,53.415 329.085 L 52.356 332.202 52.481 344.401 L 52.607 356.600 54.111 359.400 C 55.898 362.728,58.937 365.690,61.945 367.036 C 65.354 368.561,77.948 372.696,80.800 373.226 C 83.918 373.806,84.699 374.449,86.431 377.861 C 88.886 382.698,91.881 384.514,103.800 388.395 C 114.385 391.841,115.512 392.022,120.000 390.991 C 125.781 389.662,123.963 391.300,163.807 351.534 C 184.051 331.330,200.881 314.806,201.207 314.813 C 201.533 314.820,205.220 315.999,209.400 317.434 C 213.580 318.869,217.810 320.288,218.800 320.587 C 221.205 321.316,222.958 321.924,225.600 322.948 C 228.910 324.230,237.485 324.201,239.794 322.899 C 240.671 322.404,241.634 322.000,241.934 322.000 C 242.235 322.000,266.717 297.894,296.340 268.432 C 386.446 178.814,389.527 175.662,390.604 172.000 C 390.766 171.450,391.069 170.786,391.278 170.524 C 392.575 168.900,393.303 155.268,392.364 150.190 C 391.593 146.015,389.287 142.470,385.706 139.953 C 382.759 137.882,382.718 137.682,384.800 135.600 C 385.680 134.720,386.400 133.736,386.400 133.414 C 386.400 133.092,386.760 132.635,387.200 132.400 C 387.640 132.165,388.000 131.692,388.000 131.349 C 388.000 131.006,388.360 130.269,388.800 129.709 C 389.240 129.150,389.600 128.151,389.600 127.490 C 389.600 126.807,389.902 126.067,390.300 125.777 C 391.789 124.688,391.481 82.800,389.984 82.800 C 389.773 82.800,389.600 82.170,389.600 81.400 C 389.600 80.570,389.298 79.698,388.858 79.258 C 388.450 78.850,387.993 78.027,387.843 77.430 C 387.693 76.833,386.975 75.748,386.246 75.020 C 385.518 74.292,384.810 73.404,384.674 73.048 C 384.537 72.692,384.170 72.400,383.859 72.400 C 383.548 72.400,383.199 72.040,383.084 71.600 C 382.969 71.160,382.609 70.800,382.284 70.800 C 381.959 70.800,381.599 70.440,381.484 70.000 C 381.369 69.560,381.009 69.200,380.684 69.200 C 380.359 69.200,379.999 68.840,379.884 68.400 C 379.769 67.960,379.409 67.600,379.084 67.600 C 378.759 67.600,378.399 67.240,378.284 66.800 C 378.169 66.360,377.809 66.000,377.484 66.000 C 377.159 66.000,376.799 65.640,376.684 65.200 C 376.569 64.760,376.209 64.400,375.884 64.400 C 375.559 64.400,375.199 64.040,375.084 63.600 C 374.969 63.160,374.609 62.800,374.284 62.800 C 373.959 62.800,373.599 62.440,373.484 62.000 C 373.369 61.560,373.009 61.200,372.684 61.200 C 372.359 61.200,371.999 60.840,371.884 60.400 C 371.769 59.960,371.409 59.600,371.084 59.600 C 370.759 59.600,370.399 59.240,370.284 58.800 C 370.169 58.360,369.809 58.000,369.484 58.000 C 369.159 58.000,368.799 57.640,368.684 57.200 C 368.569 56.760,368.209 56.400,367.884 56.400 C 367.559 56.400,367.199 56.040,367.084 55.600 C 366.969 55.160,366.588 54.800,366.237 54.800 C 365.887 54.800,365.600 54.542,365.600 54.227 C 365.600 53.912,365.240 53.540,364.800 53.400 C 364.360 53.260,364.000 52.900,364.000 52.600 C 364.000 52.300,363.640 51.940,363.200 51.800 C 362.760 51.660,362.400 51.300,362.400 51.000 C 362.400 50.700,362.040 50.340,361.600 50.200 C 361.160 50.060,360.800 49.700,360.800 49.400 C 360.800 49.100,360.440 48.740,360.000 48.600 C 359.560 48.460,359.200 48.196,359.200 48.013 C 359.200 47.578,352.422 40.800,351.987 40.800 C 351.804 40.800,351.540 40.440,351.400 40.000 C 351.260 39.560,350.900 39.200,350.600 39.200 C 350.300 39.200,349.940 38.840,349.800 38.400 C 349.660 37.960,349.300 37.600,349.000 37.600 C 348.700 37.600,348.340 37.240,348.200 36.800 C 348.060 36.360,347.700 36.000,347.400 36.000 C 347.100 36.000,346.740 35.640,346.600 35.200 C 346.460 34.760,346.088 34.400,345.773 34.400 C 345.458 34.400,345.200 34.113,345.200 33.763 C 345.200 33.412,344.840 33.031,344.400 32.916 C 343.960 32.801,343.600 32.441,343.600 32.116 C 343.600 31.791,343.240 31.431,342.800 31.316 C 342.360 31.201,342.000 30.841,342.000 30.516 C 342.000 30.191,341.640 29.831,341.200 29.716 C 340.760 29.601,340.400 29.241,340.400 28.916 C 340.400 28.591,340.040 28.231,339.600 28.116 C 339.160 28.001,338.800 27.641,338.800 27.316 C 338.800 26.991,338.440 26.631,338.000 26.516 C 337.560 26.401,337.200 26.041,337.200 25.716 C 337.200 25.391,336.840 25.031,336.400 24.916 C 335.960 24.801,335.600 24.441,335.600 24.116 C 335.600 23.791,335.240 23.431,334.800 23.316 C 334.360 23.201,334.000 22.841,334.000 22.516 C 334.000 22.191,333.657 21.835,333.237 21.726 C 332.817 21.616,332.384 21.183,332.274 20.763 C 332.165 20.343,331.809 20.000,331.484 20.000 C 331.159 20.000,330.799 19.640,330.684 19.200 C 330.569 18.760,330.209 18.400,329.884 18.400 C 329.559 18.400,329.199 18.040,329.084 17.600 C 328.969 17.160,328.588 16.800,328.237 16.800 C 327.887 16.800,327.600 16.616,327.600 16.391 C 327.600 16.167,327.105 15.763,326.500 15.494 C 325.895 15.226,325.051 14.689,324.625 14.303 C 324.198 13.916,323.433 13.600,322.925 13.600 C 322.416 13.600,322.000 13.449,322.000 13.264 C 322.000 12.632,319.963 12.000,317.881 11.987 C 316.689 11.980,315.468 11.724,315.024 11.387 C 313.907 10.543,282.198 10.508,280.989 11.349 M320.400 13.792 C 325.499 15.970,327.059 17.388,355.127 45.364 C 393.501 83.613,390.000 77.686,390.000 104.400 C 390.000 130.819,392.585 126.094,360.789 157.800 C 334.814 183.703,337.144 180.457,336.802 191.200 C 336.619 196.936,336.389 199.370,335.933 200.400 C 335.592 201.170,335.098 202.323,334.837 202.962 C 333.470 206.299,328.847 211.134,287.455 252.517 C 237.749 302.214,238.935 301.177,231.776 301.195 C 229.744 301.200,223.362 299.797,222.584 299.175 C 222.356 298.992,221.456 298.665,220.584 298.448 C 219.713 298.231,218.100 297.741,217.000 297.358 C 215.900 296.975,214.100 296.354,213.000 295.978 C 211.900 295.603,210.370 295.074,209.600 294.802 C 208.830 294.531,207.390 294.068,206.400 293.773 C 204.532 293.217,201.618 292.245,199.200 291.373 C 197.568 290.785,194.556 289.792,192.000 289.000 C 189.058 288.088,186.291 287.166,184.800 286.600 C 183.309 286.034,180.542 285.112,177.600 284.200 C 173.875 283.046,171.760 282.323,170.486 281.770 C 167.301 280.387,169.025 278.918,141.070 306.844 C 126.952 320.948,114.680 332.957,113.800 333.531 C 108.114 337.235,102.559 337.422,94.000 334.196 C 92.495 333.629,89.694 332.697,86.800 331.800 C 75.520 328.304,72.444 326.398,69.575 321.126 L 68.200 318.600 68.200 306.200 L 68.200 293.800 69.349 291.000 C 71.456 285.868,72.886 284.248,94.266 262.788 C 115.938 241.034,115.848 241.140,114.204 239.366 C 110.895 235.796,110.324 232.888,110.436 220.154 C 110.483 214.783,110.447 210.314,110.355 210.222 C 110.158 210.024,104.952 211.419,103.800 211.978 C 103.360 212.192,102.190 212.572,101.200 212.822 C 100.210 213.073,99.220 213.420,99.000 213.593 C 98.780 213.766,97.970 214.037,97.200 214.196 C 96.430 214.355,95.260 214.716,94.600 214.999 C 93.371 215.526,90.793 216.410,87.600 217.400 C 84.658 218.312,81.891 219.234,80.400 219.800 C 78.812 220.403,75.854 221.384,73.200 222.187 C 71.440 222.720,70.680 222.974,66.600 224.389 C 56.316 227.956,50.639 228.003,41.600 224.596 C 40.095 224.029,37.294 223.097,34.400 222.200 C 30.675 221.046,28.560 220.323,27.286 219.770 C 26.564 219.457,25.751 219.200,25.481 219.200 C 22.360 219.200,16.877 213.221,15.429 208.239 C 14.490 205.012,14.506 180.933,15.449 177.690 C 17.206 171.648,20.395 168.505,27.200 166.112 C 32.418 164.277,33.477 163.926,34.826 163.587 C 35.611 163.390,36.781 162.954,37.426 162.617 C 38.072 162.280,38.960 161.998,39.400 161.989 C 39.840 161.980,40.920 161.625,41.800 161.200 C 42.680 160.775,43.760 160.415,44.200 160.400 C 44.640 160.385,45.720 160.025,46.600 159.600 C 47.480 159.175,48.560 158.815,49.000 158.800 C 49.440 158.785,50.520 158.425,51.400 158.000 C 52.280 157.575,53.360 157.215,53.800 157.200 C 54.240 157.185,55.320 156.825,56.200 156.400 C 57.080 155.975,58.160 155.615,58.600 155.600 C 59.040 155.585,60.120 155.225,61.000 154.800 C 61.880 154.375,62.960 154.015,63.400 154.000 C 63.840 153.985,64.920 153.625,65.800 153.200 C 66.680 152.775,67.760 152.415,68.200 152.400 C 68.640 152.385,69.720 152.025,70.600 151.600 C 71.480 151.175,72.560 150.820,73.000 150.811 C 73.440 150.802,74.328 150.520,74.974 150.183 C 75.619 149.846,76.789 149.410,77.574 149.213 C 78.358 149.015,79.900 148.541,81.000 148.158 C 82.100 147.775,83.900 147.154,85.000 146.778 C 86.100 146.403,87.630 145.874,88.400 145.602 C 89.170 145.331,90.610 144.868,91.600 144.573 C 92.590 144.278,94.300 143.727,95.400 143.349 C 96.500 142.971,98.300 142.354,99.400 141.978 C 100.500 141.603,102.030 141.079,102.800 140.814 C 103.570 140.549,105.094 140.084,106.187 139.780 C 107.279 139.475,108.629 138.887,109.187 138.471 L 110.200 137.716 110.439 128.158 C 110.725 116.686,110.837 115.941,112.915 111.600 L 114.542 108.200 139.171 83.567 C 171.148 51.584,163.290 55.200,200.812 55.200 C 226.512 55.200,227.615 55.169,230.143 54.389 L 232.770 53.577 251.285 35.077 C 275.962 10.420,271.632 12.412,300.200 12.579 L 317.800 12.682 320.400 13.792 " stroke="none" fill="#ead705" fill-rule="evenodd"></path><path id="path4" d="M278.000 23.462 C 276.136 24.307,273.234 27.023,259.000 41.244 C 239.288 60.938,240.164 59.200,249.955 59.200 C 257.871 59.200,260.385 60.749,257.288 63.716 L 256.175 64.782 214.788 64.891 L 173.400 65.000 171.400 66.073 C 169.063 67.326,123.160 113.127,121.562 115.800 C 119.550 119.166,120.007 140.554,122.057 138.943 C 122.356 138.708,123.498 138.296,124.595 138.028 C 125.692 137.760,126.772 137.400,126.995 137.228 C 127.218 137.056,128.298 136.696,129.395 136.428 C 130.492 136.160,131.572 135.800,131.795 135.628 C 132.018 135.456,133.098 135.096,134.195 134.828 C 135.292 134.560,136.372 134.195,136.595 134.017 C 136.818 133.838,137.630 133.563,138.400 133.404 C 139.170 133.245,140.340 132.884,141.000 132.601 C 142.229 132.074,144.807 131.190,148.000 130.200 C 150.942 129.288,153.709 128.366,155.200 127.800 C 156.788 127.197,159.746 126.216,162.400 125.413 C 163.390 125.113,164.830 124.651,165.600 124.386 C 166.370 124.121,167.900 123.597,169.000 123.222 C 170.100 122.846,171.900 122.229,173.000 121.851 C 174.100 121.473,175.810 120.922,176.800 120.627 C 182.797 118.839,186.743 117.129,187.792 115.863 C 188.796 114.651,188.800 114.610,188.840 106.223 C 188.891 95.525,189.345 94.147,192.554 94.953 C 194.573 95.459,194.879 97.062,194.693 106.156 C 194.403 120.301,193.877 120.908,177.000 126.553 C 174.580 127.362,171.790 128.269,170.800 128.567 C 169.810 128.866,168.370 129.331,167.600 129.602 C 166.830 129.874,165.300 130.403,164.200 130.778 C 163.100 131.154,161.300 131.771,160.200 132.149 C 159.100 132.527,157.390 133.078,156.400 133.373 C 155.410 133.668,154.060 134.113,153.400 134.361 C 152.740 134.609,135.910 140.206,116.000 146.800 C 96.090 153.394,79.260 158.992,78.600 159.241 C 77.940 159.490,76.680 159.902,75.800 160.157 C 74.330 160.583,73.014 161.029,69.200 162.390 C 68.430 162.665,66.990 163.132,66.000 163.427 C 65.010 163.722,63.300 164.273,62.200 164.651 C 61.100 165.029,59.300 165.646,58.200 166.022 C 57.100 166.397,55.570 166.926,54.800 167.198 C 54.030 167.469,52.590 167.932,51.600 168.227 C 50.610 168.522,48.900 169.073,47.800 169.451 C 46.700 169.829,44.900 170.446,43.800 170.822 C 42.700 171.197,41.170 171.721,40.400 171.986 C 39.630 172.251,38.190 172.713,37.200 173.013 C 34.284 173.896,31.485 174.850,30.200 175.399 C 29.540 175.680,28.627 176.023,28.170 176.160 C 27.714 176.297,26.814 176.959,26.170 177.630 L 25.000 178.851 24.874 191.326 C 24.734 205.182,24.855 206.786,26.143 208.176 C 27.104 209.213,31.486 211.043,36.800 212.627 C 37.790 212.922,39.500 213.473,40.600 213.851 C 41.700 214.229,43.500 214.846,44.600 215.222 C 45.700 215.597,47.230 216.126,48.000 216.396 C 51.577 217.651,56.026 217.651,59.600 216.396 C 60.370 216.126,61.900 215.597,63.000 215.222 C 64.100 214.846,65.900 214.229,67.000 213.851 C 68.100 213.473,69.810 212.922,70.800 212.627 C 71.790 212.332,73.230 211.869,74.000 211.598 C 74.770 211.326,76.300 210.797,77.400 210.422 C 78.500 210.046,80.300 209.429,81.400 209.051 C 82.500 208.673,84.210 208.122,85.200 207.827 C 87.191 207.233,88.797 206.680,91.808 205.552 C 92.912 205.139,94.082 204.794,94.408 204.786 C 94.733 204.779,95.720 204.425,96.600 204.000 C 97.480 203.575,98.560 203.215,99.000 203.200 C 99.440 203.185,100.520 202.825,101.400 202.400 C 102.280 201.975,103.360 201.615,103.800 201.600 C 104.240 201.585,105.320 201.225,106.200 200.800 C 107.080 200.375,108.160 200.015,108.600 200.000 C 109.040 199.985,110.120 199.625,111.000 199.200 C 111.880 198.775,112.960 198.415,113.400 198.400 C 113.840 198.385,114.920 198.025,115.800 197.600 C 116.680 197.175,117.760 196.820,118.200 196.811 C 118.640 196.802,119.455 196.558,120.011 196.267 C 120.567 195.977,121.915 195.515,123.006 195.240 C 124.097 194.966,125.172 194.600,125.395 194.428 C 125.618 194.256,126.698 193.896,127.795 193.628 C 128.892 193.360,129.972 192.995,130.195 192.817 C 130.418 192.638,131.230 192.363,132.000 192.204 C 132.770 192.045,133.940 191.684,134.600 191.401 C 135.829 190.874,138.407 189.990,141.600 189.000 C 144.542 188.088,147.309 187.166,148.800 186.600 C 150.291 186.034,153.058 185.112,156.000 184.200 C 158.942 183.288,161.709 182.366,163.200 181.800 C 168.868 179.649,171.390 179.106,174.800 179.303 C 179.403 179.568,182.000 181.760,182.000 185.380 C 182.000 189.054,183.432 187.522,130.225 240.800 C 89.581 281.499,79.877 291.416,78.950 293.200 L 77.807 295.400 77.803 305.628 C 77.799 318.429,78.038 318.919,85.200 320.804 C 86.190 321.065,87.180 321.420,87.400 321.593 C 87.620 321.766,88.430 322.037,89.200 322.196 C 89.970 322.355,91.140 322.716,91.800 322.999 C 94.414 324.120,101.854 326.430,103.644 326.675 C 106.659 327.089,106.266 327.458,160.204 273.563 C 215.309 218.501,212.648 220.977,214.822 222.738 C 217.139 224.613,217.006 224.788,201.367 240.452 L 187.000 254.841 187.939 255.616 C 188.455 256.042,189.625 256.596,190.539 256.845 C 191.452 257.095,193.100 257.616,194.200 258.002 C 195.300 258.389,196.830 258.926,197.600 259.198 C 198.370 259.469,199.810 259.932,200.800 260.227 C 203.215 260.947,206.194 261.971,208.474 262.865 C 209.505 263.269,210.636 263.600,210.987 263.600 C 212.339 263.600,215.540 265.570,215.687 266.492 C 216.103 269.109,213.885 270.472,210.901 269.434 C 209.856 269.070,208.190 268.529,207.200 268.231 C 206.210 267.934,204.770 267.469,204.000 267.198 C 203.230 266.926,201.700 266.397,200.600 266.022 C 199.500 265.646,197.700 265.029,196.600 264.651 C 195.500 264.273,193.790 263.722,192.800 263.427 C 190.809 262.833,189.203 262.280,186.192 261.152 C 182.249 259.675,182.004 259.783,176.305 265.500 C 173.302 268.513,171.340 270.780,171.511 271.040 C 171.980 271.754,173.370 272.359,177.913 273.828 C 180.271 274.590,182.560 275.374,183.000 275.570 C 183.854 275.951,186.659 276.885,189.600 277.769 C 190.590 278.066,192.030 278.531,192.800 278.802 C 193.570 279.074,195.100 279.603,196.200 279.978 C 197.300 280.354,199.100 280.971,200.200 281.349 C 201.300 281.727,203.010 282.278,204.000 282.573 C 204.990 282.868,206.430 283.331,207.200 283.602 C 207.970 283.874,209.500 284.403,210.600 284.778 C 211.700 285.154,213.500 285.771,214.600 286.149 C 215.700 286.527,217.410 287.078,218.400 287.373 C 220.278 287.933,221.650 288.401,225.000 289.627 C 228.597 290.943,231.588 291.359,233.600 290.823 C 236.221 290.124,324.008 202.508,325.730 198.872 L 326.805 196.600 326.803 177.550 C 326.800 156.378,326.811 156.222,328.450 155.374 C 331.741 153.672,332.800 155.659,332.800 163.531 C 332.800 168.465,332.909 169.592,333.427 170.023 C 334.100 170.581,375.437 129.860,378.000 126.114 C 379.901 123.337,380.065 121.371,379.926 103.000 L 379.800 86.200 378.666 83.963 C 376.802 80.283,321.116 24.854,317.850 23.427 L 315.500 22.400 297.850 22.433 L 280.200 22.466 278.000 23.462 M313.944 23.609 C 314.903 24.044,316.254 24.400,316.947 24.400 C 317.774 24.400,318.379 24.675,318.707 25.200 C 318.982 25.640,319.384 26.000,319.601 26.000 C 320.152 26.000,347.200 53.221,347.200 53.776 C 347.200 54.025,341.525 59.892,334.588 66.814 C 327.652 73.736,274.237 127.166,215.888 185.546 C 157.540 243.926,109.485 291.981,109.100 292.335 C 108.715 292.688,108.400 293.184,108.400 293.435 C 108.400 293.686,108.070 294.321,107.666 294.846 C 106.166 296.794,105.800 300.338,105.800 312.900 L 105.800 324.800 104.800 324.834 C 101.216 324.956,99.362 324.693,98.684 323.967 C 98.197 323.444,97.429 323.200,96.273 323.200 C 95.073 323.200,94.378 322.966,93.893 322.400 C 93.406 321.831,92.713 321.600,91.493 321.600 C 90.273 321.600,89.580 321.369,89.093 320.800 C 88.619 320.247,87.913 320.000,86.804 320.000 C 85.733 320.000,84.934 319.734,84.400 319.200 C 83.960 318.760,83.150 318.400,82.600 318.400 C 81.501 318.400,80.222 317.328,79.824 316.076 C 79.684 315.634,79.306 315.054,78.985 314.787 C 78.082 314.039,78.127 298.165,79.034 297.163 C 79.383 296.777,79.771 295.683,79.897 294.731 C 80.032 293.709,80.428 292.786,80.863 292.477 C 81.268 292.190,81.600 291.799,81.600 291.609 C 81.600 291.420,104.100 268.771,131.600 241.278 C 159.100 213.786,181.600 191.001,181.600 190.646 C 181.600 190.291,181.960 189.640,182.400 189.200 C 183.592 188.008,183.592 182.428,182.400 182.116 C 181.960 182.001,181.600 181.666,181.600 181.372 C 181.600 180.352,179.617 178.800,178.313 178.800 C 177.626 178.800,176.748 178.515,176.363 178.167 C 175.936 177.780,174.939 177.533,173.800 177.533 C 172.661 177.533,171.664 177.780,171.237 178.167 C 170.816 178.548,169.817 178.800,168.730 178.800 C 167.497 178.800,166.629 179.054,166.000 179.600 C 165.436 180.089,164.503 180.400,163.600 180.400 C 162.697 180.400,161.764 180.711,161.200 181.200 C 160.628 181.696,159.703 182.000,158.767 182.000 C 157.933 182.000,156.978 182.279,156.634 182.623 C 156.291 182.966,155.089 183.392,153.962 183.570 C 152.835 183.749,151.778 184.112,151.614 184.378 C 151.450 184.643,150.524 184.961,149.558 185.083 C 148.591 185.205,147.499 185.567,147.131 185.886 C 146.763 186.206,145.683 186.566,144.731 186.686 C 143.779 186.807,142.699 187.167,142.331 187.486 C 141.963 187.806,140.883 188.166,139.931 188.286 C 138.979 188.407,137.925 188.743,137.590 189.034 C 137.254 189.324,136.174 189.684,135.190 189.834 C 134.205 189.984,133.125 190.344,132.790 190.634 C 132.454 190.924,131.374 191.284,130.390 191.434 C 129.405 191.584,128.330 191.936,128.000 192.218 C 127.670 192.499,126.531 192.857,125.468 193.015 C 124.406 193.172,123.449 193.529,123.342 193.807 C 123.235 194.086,122.171 194.436,120.978 194.585 C 119.784 194.735,118.671 195.087,118.504 195.368 C 118.337 195.649,117.300 195.998,116.200 196.142 C 115.100 196.287,114.020 196.644,113.800 196.937 C 113.580 197.229,112.500 197.589,111.400 197.737 C 110.300 197.884,109.220 198.244,109.000 198.537 C 108.780 198.829,107.700 199.189,106.600 199.337 C 105.500 199.484,104.420 199.844,104.200 200.137 C 103.980 200.429,102.900 200.789,101.800 200.937 C 100.700 201.084,99.620 201.446,99.400 201.740 C 99.180 202.034,98.111 202.375,97.024 202.497 C 95.938 202.619,94.858 202.979,94.624 203.297 C 94.391 203.615,93.311 203.975,92.224 204.097 C 91.138 204.219,90.058 204.579,89.824 204.897 C 89.591 205.215,88.535 205.572,87.478 205.691 C 86.421 205.810,85.341 206.177,85.078 206.508 C 84.815 206.839,83.735 207.199,82.678 207.308 C 81.621 207.417,80.541 207.777,80.278 208.108 C 80.015 208.439,78.935 208.799,77.878 208.908 C 76.821 209.017,75.741 209.377,75.478 209.708 C 75.215 210.039,74.135 210.399,73.078 210.508 C 72.021 210.617,70.941 210.977,70.678 211.308 C 70.415 211.639,69.318 212.001,68.240 212.113 C 67.020 212.239,66.143 212.558,65.920 212.958 C 65.684 213.378,65.015 213.600,63.980 213.600 C 62.976 213.600,62.130 213.870,61.660 214.340 C 60.073 215.927,46.400 216.150,46.400 214.589 C 46.400 214.014,45.146 213.613,43.320 213.605 C 42.565 213.602,41.892 213.336,41.680 212.958 C 41.457 212.558,40.580 212.239,39.360 212.113 C 38.282 212.001,37.185 211.639,36.922 211.308 C 36.659 210.977,35.579 210.617,34.522 210.508 C 33.465 210.399,32.389 210.045,32.131 209.721 C 31.873 209.397,30.885 209.028,29.935 208.901 C 28.794 208.748,27.832 208.294,27.104 207.565 L 26.000 206.462 26.000 192.928 L 26.000 179.394 27.413 178.097 C 28.325 177.261,29.237 176.800,29.981 176.800 C 31.539 176.800,32.400 176.429,32.400 175.757 C 32.400 175.355,32.958 175.200,34.404 175.200 C 35.913 175.200,36.577 175.002,37.093 174.400 C 37.580 173.831,38.273 173.600,39.493 173.600 C 40.713 173.600,41.406 173.369,41.893 172.800 C 42.359 172.256,43.073 172.000,44.126 172.000 C 45.068 172.000,46.072 171.687,46.691 171.200 C 47.262 170.750,48.314 170.400,49.091 170.400 C 49.868 170.400,50.919 170.050,51.491 169.600 C 52.062 169.150,53.114 168.800,53.891 168.800 C 54.668 168.800,55.719 168.450,56.291 168.000 C 56.862 167.550,57.914 167.200,58.691 167.200 C 59.468 167.200,60.519 166.850,61.091 166.400 C 61.672 165.943,62.714 165.600,63.522 165.600 C 64.300 165.600,65.252 165.315,65.637 164.966 C 66.023 164.617,67.117 164.236,68.069 164.119 C 69.021 164.002,70.000 163.657,70.244 163.353 C 70.488 163.049,71.568 162.688,72.644 162.552 C 73.720 162.415,74.800 162.055,75.044 161.752 C 75.288 161.448,76.368 161.088,77.444 160.952 C 78.520 160.815,79.604 160.449,79.854 160.138 C 80.104 159.828,81.245 159.462,82.389 159.327 C 83.534 159.191,84.560 158.848,84.669 158.565 C 84.778 158.281,85.856 157.926,87.065 157.775 C 88.274 157.623,89.351 157.272,89.458 156.993 C 89.565 156.714,90.642 156.362,91.851 156.211 C 93.076 156.058,94.139 155.704,94.251 155.411 C 94.363 155.118,95.426 154.764,96.651 154.611 C 97.876 154.458,98.939 154.104,99.051 153.811 C 99.163 153.519,100.218 153.165,101.422 153.015 C 102.616 152.865,103.729 152.513,103.896 152.232 C 104.063 151.951,105.080 151.603,106.156 151.460 C 107.232 151.317,108.312 150.952,108.556 150.648 C 108.800 150.345,109.880 149.985,110.956 149.848 C 112.032 149.712,113.112 149.352,113.356 149.048 C 113.600 148.745,114.680 148.385,115.756 148.248 C 116.832 148.112,117.912 147.751,118.156 147.447 C 118.400 147.143,119.404 146.795,120.386 146.673 C 121.368 146.552,122.358 146.199,122.586 145.889 C 122.814 145.579,123.889 145.225,124.976 145.103 C 126.110 144.976,127.151 144.609,127.420 144.241 C 127.719 143.832,128.487 143.600,129.544 143.600 C 130.667 143.600,131.458 143.342,132.000 142.800 C 132.533 142.267,133.333 142.000,134.400 142.000 C 135.467 142.000,136.267 141.733,136.800 141.200 C 137.333 140.667,138.133 140.400,139.200 140.400 C 140.267 140.400,141.067 140.133,141.600 139.600 C 142.133 139.067,142.933 138.800,144.000 138.800 C 145.067 138.800,145.867 138.533,146.400 138.000 C 146.933 137.467,147.733 137.200,148.800 137.200 C 149.867 137.200,150.667 136.933,151.200 136.400 C 151.733 135.867,152.533 135.600,153.600 135.600 C 154.667 135.600,155.467 135.333,156.000 134.800 C 156.533 134.267,157.333 134.000,158.400 134.000 C 159.467 134.000,160.267 133.733,160.800 133.200 C 161.334 132.666,162.133 132.400,163.204 132.400 C 164.313 132.400,165.019 132.153,165.493 131.600 C 165.980 131.031,166.673 130.800,167.893 130.800 C 169.113 130.800,169.806 130.569,170.293 130.000 C 170.780 129.431,171.473 129.200,172.693 129.200 C 173.913 129.200,174.606 128.969,175.093 128.400 C 175.580 127.831,176.273 127.600,177.493 127.600 C 178.713 127.600,179.406 127.369,179.893 126.800 C 180.380 126.231,181.073 126.000,182.293 126.000 C 183.513 126.000,184.206 125.769,184.693 125.200 C 185.113 124.710,185.873 124.400,186.656 124.400 C 188.333 124.400,189.200 124.045,189.200 123.357 C 189.200 123.051,189.491 122.800,189.846 122.800 C 190.725 122.800,194.400 118.887,194.400 117.952 C 194.400 117.538,194.562 117.200,194.761 117.200 C 195.690 117.200,196.000 114.239,196.000 105.369 L 196.000 96.057 194.653 94.628 C 193.215 93.104,190.788 92.623,190.120 93.730 C 189.944 94.022,189.511 94.366,189.158 94.495 C 188.220 94.839,188.009 96.868,188.004 105.600 L 187.999 113.400 186.490 115.100 C 185.447 116.274,184.660 116.800,183.944 116.800 C 183.374 116.800,182.450 117.160,181.891 117.600 C 181.301 118.064,180.268 118.400,179.433 118.400 C 178.487 118.400,177.757 118.675,177.307 119.200 C 176.827 119.761,176.127 120.000,174.965 120.000 C 173.914 120.000,172.936 120.292,172.291 120.800 C 171.701 121.264,170.668 121.600,169.833 121.600 C 168.887 121.600,168.157 121.875,167.707 122.400 C 167.220 122.969,166.527 123.200,165.307 123.200 C 164.087 123.200,163.394 123.431,162.907 124.000 C 162.420 124.569,161.727 124.800,160.507 124.800 C 159.287 124.800,158.594 125.031,158.107 125.600 C 157.628 126.160,156.927 126.400,155.772 126.400 C 154.697 126.400,153.801 126.678,153.200 127.200 C 152.636 127.689,151.703 128.000,150.800 128.000 C 149.897 128.000,148.964 128.311,148.400 128.800 C 147.863 129.266,146.903 129.600,146.102 129.600 C 145.332 129.600,144.278 129.952,143.709 130.400 C 143.138 130.850,142.086 131.200,141.309 131.200 C 140.532 131.200,139.481 131.550,138.909 132.000 C 138.328 132.457,137.286 132.800,136.478 132.800 C 135.700 132.800,134.748 133.085,134.363 133.434 C 133.977 133.783,132.883 134.166,131.931 134.286 C 130.979 134.407,129.899 134.767,129.531 135.086 C 129.163 135.406,128.083 135.766,127.131 135.886 C 126.179 136.007,125.107 136.359,124.750 136.670 C 124.392 136.980,123.447 137.340,122.650 137.469 L 121.200 137.705 121.200 128.314 C 121.200 119.432,121.243 118.885,122.000 118.200 C 122.440 117.802,122.800 116.970,122.800 116.352 C 122.800 115.638,123.091 115.072,123.600 114.800 C 124.040 114.565,124.400 114.108,124.400 113.786 C 124.400 113.464,124.687 113.200,125.037 113.200 C 125.388 113.200,125.769 112.840,125.884 112.400 C 125.999 111.960,126.359 111.600,126.684 111.600 C 127.009 111.600,127.369 111.240,127.484 110.800 C 127.599 110.360,127.959 110.000,128.284 110.000 C 128.609 110.000,128.969 109.640,129.084 109.200 C 129.199 108.760,129.559 108.400,129.884 108.400 C 130.209 108.400,130.569 108.040,130.684 107.600 C 130.799 107.160,131.159 106.800,131.484 106.800 C 131.809 106.800,132.169 106.440,132.284 106.000 C 132.399 105.560,132.759 105.200,133.084 105.200 C 133.409 105.200,133.769 104.840,133.884 104.400 C 133.999 103.960,134.359 103.600,134.684 103.600 C 135.009 103.600,135.369 103.240,135.484 102.800 C 135.599 102.360,135.847 102.000,136.036 102.000 C 136.473 102.000,151.200 87.258,151.200 86.820 C 151.200 86.640,151.560 86.399,152.000 86.284 C 152.440 86.169,152.800 85.809,152.800 85.484 C 152.800 85.159,153.160 84.799,153.600 84.684 C 154.040 84.569,154.400 84.209,154.400 83.884 C 154.400 83.559,154.760 83.199,155.200 83.084 C 155.640 82.969,156.000 82.609,156.000 82.284 C 156.000 81.959,156.360 81.599,156.800 81.484 C 157.240 81.369,157.600 81.009,157.600 80.684 C 157.600 80.359,157.960 79.999,158.400 79.884 C 158.840 79.769,159.200 79.409,159.200 79.084 C 159.200 78.759,159.560 78.399,160.000 78.284 C 160.440 78.169,160.800 77.809,160.800 77.484 C 160.800 77.159,161.160 76.799,161.600 76.684 C 162.040 76.569,162.400 76.209,162.400 75.884 C 162.400 75.559,162.760 75.199,163.200 75.084 C 163.640 74.969,164.000 74.609,164.000 74.284 C 164.000 73.959,164.360 73.599,164.800 73.484 C 165.240 73.369,165.600 73.009,165.600 72.684 C 165.600 72.359,165.960 71.999,166.400 71.884 C 166.840 71.769,167.200 71.409,167.200 71.084 C 167.200 70.759,167.560 70.399,168.000 70.284 C 168.440 70.169,168.800 69.788,168.800 69.437 C 168.800 69.087,169.064 68.800,169.386 68.800 C 169.708 68.800,170.165 68.440,170.400 68.000 C 170.662 67.511,171.238 67.200,171.883 67.200 C 172.463 67.200,173.285 66.885,173.710 66.500 C 174.435 65.844,177.105 65.793,215.922 65.694 L 257.360 65.589 258.280 64.725 C 259.664 63.425,259.589 60.322,258.142 58.981 C 257.107 58.022,256.929 57.999,250.242 57.968 C 246.479 57.951,243.633 57.843,243.919 57.729 C 244.667 57.429,257.600 44.431,257.600 43.979 C 257.600 43.771,257.887 43.600,258.237 43.600 C 258.588 43.600,258.969 43.240,259.084 42.800 C 259.199 42.360,259.559 42.000,259.884 42.000 C 260.209 42.000,260.569 41.640,260.684 41.200 C 260.799 40.760,261.159 40.400,261.484 40.400 C 261.809 40.400,262.169 40.040,262.284 39.600 C 262.399 39.160,262.759 38.800,263.084 38.800 C 263.409 38.800,263.769 38.440,263.884 38.000 C 263.999 37.560,264.359 37.200,264.684 37.200 C 265.009 37.200,265.365 36.857,265.474 36.437 C 265.584 36.017,266.017 35.584,266.437 35.474 C 266.857 35.365,267.200 35.009,267.200 34.684 C 267.200 34.359,267.560 33.999,268.000 33.884 C 268.440 33.769,268.800 33.409,268.800 33.084 C 268.800 32.759,269.160 32.399,269.600 32.284 C 270.040 32.169,270.400 31.788,270.400 31.437 C 270.400 31.087,270.687 30.800,271.037 30.800 C 271.388 30.800,271.769 30.440,271.884 30.000 C 271.999 29.560,272.359 29.200,272.684 29.200 C 273.009 29.200,273.365 28.857,273.474 28.437 C 273.584 28.017,274.017 27.584,274.437 27.474 C 274.857 27.365,275.200 26.988,275.200 26.637 C 275.200 26.287,275.520 26.000,275.912 26.000 C 276.303 26.000,276.883 25.640,277.200 25.200 C 277.584 24.668,278.249 24.394,279.188 24.383 C 279.965 24.374,281.230 24.022,282.000 23.600 C 284.186 22.403,311.303 22.411,313.944 23.609 M170.800 185.285 C 169.150 185.697,167.260 186.278,166.600 186.575 C 165.940 186.872,164.770 187.245,164.000 187.404 C 163.230 187.563,162.418 187.838,162.195 188.017 C 161.972 188.195,160.897 188.566,159.806 188.840 C 158.715 189.115,157.367 189.577,156.811 189.867 C 156.255 190.158,155.505 190.396,155.144 190.398 C 154.783 190.399,153.703 190.756,152.744 191.191 C 151.785 191.626,150.640 191.992,150.200 192.005 C 149.760 192.017,148.680 192.375,147.800 192.800 C 146.920 193.225,145.840 193.585,145.400 193.600 C 144.960 193.615,143.880 193.975,143.000 194.400 C 142.120 194.825,141.076 195.179,140.680 195.186 C 140.284 195.194,139.448 195.465,138.822 195.789 C 138.196 196.112,136.990 196.553,136.142 196.769 C 130.360 198.238,124.783 202.419,121.694 207.600 L 120.621 209.400 120.481 219.945 C 120.307 232.966,120.854 234.488,125.903 235.049 L 127.800 235.260 140.983 222.044 L 154.167 208.829 153.203 207.804 C 150.562 204.992,152.295 202.680,156.780 203.031 L 159.800 203.268 167.936 195.095 C 177.934 185.050,178.421 183.383,170.800 185.285 M174.119 187.187 C 174.006 187.619,173.573 188.082,173.157 188.214 C 172.741 188.346,172.400 188.700,172.400 189.000 C 172.400 189.300,172.040 189.660,171.600 189.800 C 171.160 189.940,170.800 190.300,170.800 190.600 C 170.800 190.900,170.440 191.260,170.000 191.400 C 169.560 191.540,169.200 191.900,169.200 192.200 C 169.200 192.500,168.840 192.860,168.400 193.000 C 167.960 193.140,167.600 193.500,167.600 193.800 C 167.600 194.100,167.240 194.460,166.800 194.600 C 166.360 194.740,166.000 195.100,166.000 195.400 C 166.000 195.700,165.640 196.060,165.200 196.200 C 164.760 196.340,164.400 196.700,164.400 197.000 C 164.400 197.300,164.040 197.660,163.600 197.800 C 163.160 197.940,162.800 198.312,162.800 198.627 C 162.800 198.942,162.513 199.200,162.163 199.200 C 161.812 199.200,161.431 199.560,161.316 200.000 C 161.201 200.440,160.841 200.800,160.516 200.800 C 160.191 200.800,159.831 201.160,159.716 201.600 C 159.462 202.570,157.410 202.724,157.055 201.800 C 156.812 201.165,153.770 200.945,152.994 201.506 C 150.991 202.954,149.775 205.960,150.900 206.680 C 152.339 207.601,152.311 210.388,150.863 210.397 C 150.567 210.399,150.231 210.760,150.116 211.200 C 150.001 211.640,149.641 212.000,149.316 212.000 C 148.991 212.000,148.631 212.360,148.516 212.800 C 148.401 213.240,148.070 213.600,147.780 213.600 C 147.491 213.600,147.140 213.960,147.000 214.400 C 146.860 214.840,146.500 215.200,146.200 215.200 C 145.900 215.200,145.540 215.560,145.400 216.000 C 145.260 216.440,144.900 216.800,144.600 216.800 C 144.300 216.800,143.940 217.160,143.800 217.600 C 143.660 218.040,143.300 218.400,143.000 218.400 C 142.700 218.400,142.340 218.760,142.200 219.200 C 142.060 219.640,141.700 220.000,141.400 220.000 C 141.100 220.000,140.740 220.360,140.600 220.800 C 140.460 221.240,140.100 221.600,139.800 221.600 C 139.500 221.600,139.140 221.960,139.000 222.400 C 138.860 222.840,138.500 223.200,138.200 223.200 C 137.900 223.200,137.540 223.560,137.400 224.000 C 137.260 224.440,136.900 224.800,136.600 224.800 C 136.300 224.800,135.940 225.160,135.800 225.600 C 135.660 226.040,135.288 226.400,134.973 226.400 C 134.658 226.400,134.400 226.687,134.400 227.037 C 134.400 227.388,134.040 227.769,133.600 227.884 C 133.160 227.999,132.800 228.359,132.800 228.684 C 132.800 229.009,132.440 229.369,132.000 229.484 C 131.560 229.599,131.200 229.959,131.200 230.284 C 131.200 230.609,130.840 230.969,130.400 231.084 C 129.960 231.199,129.600 231.559,129.600 231.884 C 129.600 232.209,129.240 232.569,128.800 232.684 C 128.360 232.799,128.000 233.130,128.000 233.420 C 128.000 233.709,127.664 234.053,127.253 234.183 C 126.366 234.465,124.400 233.794,124.400 233.210 C 124.400 232.984,124.040 232.800,123.600 232.800 C 123.135 232.800,122.800 232.533,122.800 232.163 C 122.800 231.812,122.440 231.431,122.000 231.316 C 121.227 231.114,121.200 230.770,121.200 221.015 C 121.200 211.432,121.240 210.888,122.000 210.200 C 122.440 209.802,122.800 208.970,122.800 208.352 C 122.800 207.638,123.091 207.072,123.600 206.800 C 124.040 206.565,124.400 206.108,124.400 205.786 C 124.400 205.464,124.687 205.200,125.037 205.200 C 125.388 205.200,125.769 204.840,125.884 204.400 C 125.999 203.960,126.359 203.600,126.684 203.600 C 127.009 203.600,127.369 203.240,127.484 202.800 C 127.599 202.360,127.936 202.000,128.233 202.000 C 128.529 202.000,128.965 201.640,129.200 201.200 C 129.435 200.760,129.892 200.400,130.214 200.400 C 130.536 200.400,130.800 200.153,130.800 199.851 C 130.800 199.482,131.478 199.237,132.867 199.103 C 134.024 198.992,135.125 198.645,135.367 198.315 C 135.605 197.990,136.689 197.625,137.776 197.503 C 138.862 197.381,139.942 197.021,140.176 196.703 C 140.409 196.385,141.489 196.025,142.576 195.903 C 143.662 195.781,144.742 195.421,144.976 195.103 C 145.209 194.785,146.289 194.425,147.376 194.303 C 148.462 194.181,149.542 193.821,149.776 193.503 C 150.009 193.185,151.089 192.825,152.176 192.703 C 153.310 192.576,154.351 192.209,154.620 191.841 C 154.919 191.432,155.687 191.200,156.744 191.200 C 157.867 191.200,158.658 190.942,159.200 190.400 C 159.733 189.867,160.533 189.600,161.600 189.600 C 162.667 189.600,163.467 189.333,164.000 188.800 C 164.534 188.266,165.333 188.000,166.404 188.000 C 167.513 188.000,168.219 187.753,168.693 187.200 C 169.710 186.012,174.430 186.001,174.119 187.187 M219.400 226.609 C 220.280 226.763,221.379 227.126,221.842 227.416 C 222.304 227.705,223.384 228.072,224.242 228.232 C 227.108 228.766,231.994 232.008,232.002 233.381 C 232.004 233.612,232.319 234.340,232.702 235.000 C 233.344 236.103,233.409 238.352,233.511 262.853 L 233.622 289.507 232.163 289.781 C 230.337 290.123,227.726 289.706,227.467 289.030 C 227.359 288.749,226.334 288.409,225.189 288.273 C 224.045 288.138,222.904 287.772,222.654 287.462 C 222.404 287.151,221.320 286.785,220.244 286.648 C 219.168 286.512,218.088 286.151,217.844 285.847 C 217.600 285.543,216.621 285.198,215.669 285.081 C 214.717 284.964,213.623 284.583,213.237 284.234 C 212.852 283.885,211.900 283.600,211.122 283.600 C 210.314 283.600,209.272 283.257,208.691 282.800 C 208.119 282.350,207.068 282.000,206.291 282.000 C 205.514 282.000,204.462 281.650,203.891 281.200 C 203.319 280.750,202.268 280.400,201.491 280.400 C 200.714 280.400,199.662 280.050,199.091 279.600 C 198.465 279.108,197.468 278.800,196.499 278.800 C 195.432 278.800,194.690 278.542,194.200 278.000 C 193.699 277.446,192.968 277.200,191.827 277.200 C 190.673 277.200,189.972 276.960,189.493 276.400 C 189.006 275.831,188.313 275.600,187.093 275.600 C 185.873 275.600,185.180 275.369,184.693 274.800 C 184.206 274.231,183.513 274.000,182.293 274.000 C 181.073 274.000,180.380 273.769,179.893 273.200 C 179.406 272.631,178.713 272.400,177.493 272.400 C 176.273 272.400,175.580 272.169,175.093 271.600 C 174.716 271.160,174.001 270.786,173.504 270.768 C 173.007 270.751,172.825 270.646,173.100 270.535 C 173.375 270.424,173.600 270.090,173.600 269.794 C 173.600 269.497,173.960 269.140,174.400 269.000 C 174.840 268.860,175.200 268.500,175.200 268.200 C 175.200 267.900,175.560 267.540,176.000 267.400 C 176.440 267.260,176.800 266.900,176.800 266.600 C 176.800 266.300,177.160 265.940,177.600 265.800 C 178.040 265.660,178.400 265.300,178.400 265.000 C 178.400 264.700,178.760 264.340,179.200 264.200 C 179.640 264.060,180.000 263.700,180.000 263.400 C 180.000 263.100,180.360 262.740,180.800 262.600 C 181.240 262.460,181.600 262.088,181.600 261.773 C 181.600 261.038,183.441 261.009,183.722 261.740 C 183.840 262.047,184.826 262.386,186.011 262.527 C 187.155 262.662,188.296 263.028,188.546 263.340 C 188.796 263.651,189.779 264.002,190.731 264.119 C 191.683 264.236,192.777 264.617,193.163 264.966 C 193.548 265.315,194.500 265.600,195.278 265.600 C 196.086 265.600,197.128 265.943,197.709 266.400 C 198.281 266.850,199.332 267.200,200.109 267.200 C 200.886 267.200,201.938 267.550,202.509 268.000 C 203.135 268.492,204.132 268.800,205.101 268.800 C 206.168 268.800,206.910 269.058,207.400 269.600 C 207.914 270.168,208.657 270.408,209.962 270.428 C 210.973 270.444,212.146 270.592,212.569 270.757 C 214.709 271.596,216.191 270.271,216.319 267.406 C 216.426 264.999,216.357 264.714,215.619 264.521 C 215.169 264.403,214.800 264.077,214.800 263.796 C 214.800 263.162,213.903 262.800,212.330 262.800 C 211.668 262.800,210.669 262.440,210.109 262.000 C 209.538 261.550,208.486 261.200,207.709 261.200 C 206.932 261.200,205.881 260.850,205.309 260.400 C 204.738 259.950,203.686 259.600,202.909 259.600 C 202.132 259.600,201.081 259.250,200.509 258.800 C 199.938 258.350,198.886 258.000,198.109 258.000 C 197.332 258.000,196.281 257.650,195.709 257.200 C 195.087 256.711,194.086 256.400,193.134 256.400 C 192.161 256.400,191.493 256.188,191.359 255.836 C 191.239 255.526,190.722 255.167,190.208 255.038 C 189.156 254.774,189.221 253.200,190.284 253.200 C 190.609 253.200,190.969 252.840,191.084 252.400 C 191.199 251.960,191.559 251.600,191.884 251.600 C 192.209 251.600,192.569 251.240,192.684 250.800 C 192.799 250.360,193.159 250.000,193.484 250.000 C 193.809 250.000,194.169 249.640,194.284 249.200 C 194.399 248.760,194.759 248.400,195.084 248.400 C 195.409 248.400,195.769 248.040,195.884 247.600 C 195.999 247.160,196.359 246.800,196.684 246.800 C 197.009 246.800,197.369 246.440,197.484 246.000 C 197.599 245.560,197.959 245.200,198.284 245.200 C 198.609 245.200,198.969 244.840,199.084 244.400 C 199.199 243.960,199.559 243.600,199.884 243.600 C 200.209 243.600,200.569 243.240,200.684 242.800 C 200.799 242.360,201.159 242.000,201.484 242.000 C 201.809 242.000,202.169 241.640,202.284 241.200 C 202.399 240.760,202.759 240.400,203.084 240.400 C 203.409 240.400,203.769 240.040,203.884 239.600 C 203.999 239.160,204.359 238.800,204.684 238.800 C 205.009 238.800,205.369 238.440,205.484 238.000 C 205.599 237.560,205.959 237.200,206.284 237.200 C 206.609 237.200,206.969 236.840,207.084 236.400 C 207.199 235.960,207.559 235.600,207.884 235.600 C 208.209 235.600,208.569 235.240,208.684 234.800 C 208.799 234.360,209.159 234.000,209.484 234.000 C 209.809 234.000,210.169 233.640,210.284 233.200 C 210.399 232.760,210.730 232.400,211.020 232.400 C 211.309 232.400,211.660 232.040,211.800 231.600 C 211.940 231.160,212.300 230.800,212.600 230.800 C 212.900 230.800,213.260 230.440,213.400 230.000 C 213.540 229.560,213.900 229.200,214.200 229.200 C 214.500 229.200,214.860 228.840,215.000 228.400 C 215.140 227.960,215.492 227.600,215.784 227.600 C 216.075 227.600,216.430 227.134,216.573 226.565 C 216.761 225.814,216.966 225.639,217.316 225.929 C 217.582 226.149,218.520 226.455,219.400 226.609 " stroke="none" fill="#f0f0f0" fill-rule="evenodd"></path></g></svg>